G04 #@! TF.GenerationSoftware,KiCad,Pcbnew,5.0.0*
G04 #@! TF.CreationDate,2018-11-27T11:54:03-08:00*
G04 #@! TF.ProjectId,fanpower,66616E706F7765722E6B696361645F70,rev?*
G04 #@! TF.SameCoordinates,Original*
G04 #@! TF.FileFunction,Soldermask,Top*
G04 #@! TF.FilePolarity,Negative*
%FSLAX46Y46*%
G04 Gerber Fmt 4.6, Leading zero omitted, Abs format (unit mm)*
G04 Created by KiCad (PCBNEW 5.0.0) date Tue Nov 27 11:54:03 2018*
%MOMM*%
%LPD*%
G01*
G04 APERTURE LIST*
%ADD10R,2.100000X2.400000*%
%ADD11O,2.100000X2.400000*%
%ADD12R,1.300000X1.200000*%
%ADD13R,2.500000X2.300000*%
%ADD14O,2.500000X2.300000*%
%ADD15C,0.100000*%
%ADD16C,1.375000*%
%ADD17R,3.900000X3.900000*%
%ADD18C,3.400000*%
%ADD19C,3.900000*%
%ADD20R,2.100000X2.100000*%
%ADD21O,2.100000X2.100000*%
%ADD22C,1.500000*%
%ADD23O,2.130000X2.430000*%
%ADD24R,2.130000X2.430000*%
%ADD25O,3.900000X2.600000*%
%ADD26O,2.900000X1.900000*%
%ADD27R,2.900000X1.900000*%
%ADD28R,1.900000X2.900000*%
%ADD29O,1.900000X2.900000*%
G04 APERTURE END LIST*
D10*
G04 #@! TO.C,FLOW1*
X192405000Y-86995000D03*
D11*
X189905000Y-86995000D03*
G04 #@! TD*
D12*
G04 #@! TO.C,Q2*
X197628000Y-103124000D03*
X199628000Y-102174000D03*
X199628000Y-104074000D03*
G04 #@! TD*
G04 #@! TO.C,Q1*
X200184000Y-90744000D03*
X200184000Y-92644000D03*
X202184000Y-91694000D03*
G04 #@! TD*
D13*
G04 #@! TO.C,A1*
X209804000Y-91440000D03*
D14*
X189484000Y-91440000D03*
X209804000Y-93980000D03*
X189484000Y-93980000D03*
X209804000Y-96520000D03*
X189484000Y-96520000D03*
X209804000Y-99060000D03*
X189484000Y-99060000D03*
X209804000Y-101600000D03*
X189484000Y-101600000D03*
X209804000Y-104140000D03*
X189484000Y-104140000D03*
X209804000Y-106680000D03*
X189484000Y-106680000D03*
X209804000Y-109220000D03*
X189484000Y-109220000D03*
X209804000Y-111760000D03*
X189484000Y-111760000D03*
X209804000Y-114300000D03*
X189484000Y-114300000D03*
G04 #@! TD*
D15*
G04 #@! TO.C,R9*
G36*
X207345943Y-103375655D02*
X207379312Y-103380605D01*
X207412035Y-103388802D01*
X207443797Y-103400166D01*
X207474293Y-103414590D01*
X207503227Y-103431932D01*
X207530323Y-103452028D01*
X207555318Y-103474682D01*
X207577972Y-103499677D01*
X207598068Y-103526773D01*
X207615410Y-103555707D01*
X207629834Y-103586203D01*
X207641198Y-103617965D01*
X207649395Y-103650688D01*
X207654345Y-103684057D01*
X207656000Y-103717750D01*
X207656000Y-104405250D01*
X207654345Y-104438943D01*
X207649395Y-104472312D01*
X207641198Y-104505035D01*
X207629834Y-104536797D01*
X207615410Y-104567293D01*
X207598068Y-104596227D01*
X207577972Y-104623323D01*
X207555318Y-104648318D01*
X207530323Y-104670972D01*
X207503227Y-104691068D01*
X207474293Y-104708410D01*
X207443797Y-104722834D01*
X207412035Y-104734198D01*
X207379312Y-104742395D01*
X207345943Y-104747345D01*
X207312250Y-104749000D01*
X206199750Y-104749000D01*
X206166057Y-104747345D01*
X206132688Y-104742395D01*
X206099965Y-104734198D01*
X206068203Y-104722834D01*
X206037707Y-104708410D01*
X206008773Y-104691068D01*
X205981677Y-104670972D01*
X205956682Y-104648318D01*
X205934028Y-104623323D01*
X205913932Y-104596227D01*
X205896590Y-104567293D01*
X205882166Y-104536797D01*
X205870802Y-104505035D01*
X205862605Y-104472312D01*
X205857655Y-104438943D01*
X205856000Y-104405250D01*
X205856000Y-103717750D01*
X205857655Y-103684057D01*
X205862605Y-103650688D01*
X205870802Y-103617965D01*
X205882166Y-103586203D01*
X205896590Y-103555707D01*
X205913932Y-103526773D01*
X205934028Y-103499677D01*
X205956682Y-103474682D01*
X205981677Y-103452028D01*
X206008773Y-103431932D01*
X206037707Y-103414590D01*
X206068203Y-103400166D01*
X206099965Y-103388802D01*
X206132688Y-103380605D01*
X206166057Y-103375655D01*
X206199750Y-103374000D01*
X207312250Y-103374000D01*
X207345943Y-103375655D01*
X207345943Y-103375655D01*
G37*
D16*
X206756000Y-104061500D03*
D15*
G36*
X207345943Y-101500655D02*
X207379312Y-101505605D01*
X207412035Y-101513802D01*
X207443797Y-101525166D01*
X207474293Y-101539590D01*
X207503227Y-101556932D01*
X207530323Y-101577028D01*
X207555318Y-101599682D01*
X207577972Y-101624677D01*
X207598068Y-101651773D01*
X207615410Y-101680707D01*
X207629834Y-101711203D01*
X207641198Y-101742965D01*
X207649395Y-101775688D01*
X207654345Y-101809057D01*
X207656000Y-101842750D01*
X207656000Y-102530250D01*
X207654345Y-102563943D01*
X207649395Y-102597312D01*
X207641198Y-102630035D01*
X207629834Y-102661797D01*
X207615410Y-102692293D01*
X207598068Y-102721227D01*
X207577972Y-102748323D01*
X207555318Y-102773318D01*
X207530323Y-102795972D01*
X207503227Y-102816068D01*
X207474293Y-102833410D01*
X207443797Y-102847834D01*
X207412035Y-102859198D01*
X207379312Y-102867395D01*
X207345943Y-102872345D01*
X207312250Y-102874000D01*
X206199750Y-102874000D01*
X206166057Y-102872345D01*
X206132688Y-102867395D01*
X206099965Y-102859198D01*
X206068203Y-102847834D01*
X206037707Y-102833410D01*
X206008773Y-102816068D01*
X205981677Y-102795972D01*
X205956682Y-102773318D01*
X205934028Y-102748323D01*
X205913932Y-102721227D01*
X205896590Y-102692293D01*
X205882166Y-102661797D01*
X205870802Y-102630035D01*
X205862605Y-102597312D01*
X205857655Y-102563943D01*
X205856000Y-102530250D01*
X205856000Y-101842750D01*
X205857655Y-101809057D01*
X205862605Y-101775688D01*
X205870802Y-101742965D01*
X205882166Y-101711203D01*
X205896590Y-101680707D01*
X205913932Y-101651773D01*
X205934028Y-101624677D01*
X205956682Y-101599682D01*
X205981677Y-101577028D01*
X206008773Y-101556932D01*
X206037707Y-101539590D01*
X206068203Y-101525166D01*
X206099965Y-101513802D01*
X206132688Y-101505605D01*
X206166057Y-101500655D01*
X206199750Y-101499000D01*
X207312250Y-101499000D01*
X207345943Y-101500655D01*
X207345943Y-101500655D01*
G37*
D16*
X206756000Y-102186500D03*
G04 #@! TD*
D15*
G04 #@! TO.C,R6*
G36*
X194137943Y-90070655D02*
X194171312Y-90075605D01*
X194204035Y-90083802D01*
X194235797Y-90095166D01*
X194266293Y-90109590D01*
X194295227Y-90126932D01*
X194322323Y-90147028D01*
X194347318Y-90169682D01*
X194369972Y-90194677D01*
X194390068Y-90221773D01*
X194407410Y-90250707D01*
X194421834Y-90281203D01*
X194433198Y-90312965D01*
X194441395Y-90345688D01*
X194446345Y-90379057D01*
X194448000Y-90412750D01*
X194448000Y-91100250D01*
X194446345Y-91133943D01*
X194441395Y-91167312D01*
X194433198Y-91200035D01*
X194421834Y-91231797D01*
X194407410Y-91262293D01*
X194390068Y-91291227D01*
X194369972Y-91318323D01*
X194347318Y-91343318D01*
X194322323Y-91365972D01*
X194295227Y-91386068D01*
X194266293Y-91403410D01*
X194235797Y-91417834D01*
X194204035Y-91429198D01*
X194171312Y-91437395D01*
X194137943Y-91442345D01*
X194104250Y-91444000D01*
X192991750Y-91444000D01*
X192958057Y-91442345D01*
X192924688Y-91437395D01*
X192891965Y-91429198D01*
X192860203Y-91417834D01*
X192829707Y-91403410D01*
X192800773Y-91386068D01*
X192773677Y-91365972D01*
X192748682Y-91343318D01*
X192726028Y-91318323D01*
X192705932Y-91291227D01*
X192688590Y-91262293D01*
X192674166Y-91231797D01*
X192662802Y-91200035D01*
X192654605Y-91167312D01*
X192649655Y-91133943D01*
X192648000Y-91100250D01*
X192648000Y-90412750D01*
X192649655Y-90379057D01*
X192654605Y-90345688D01*
X192662802Y-90312965D01*
X192674166Y-90281203D01*
X192688590Y-90250707D01*
X192705932Y-90221773D01*
X192726028Y-90194677D01*
X192748682Y-90169682D01*
X192773677Y-90147028D01*
X192800773Y-90126932D01*
X192829707Y-90109590D01*
X192860203Y-90095166D01*
X192891965Y-90083802D01*
X192924688Y-90075605D01*
X192958057Y-90070655D01*
X192991750Y-90069000D01*
X194104250Y-90069000D01*
X194137943Y-90070655D01*
X194137943Y-90070655D01*
G37*
D16*
X193548000Y-90756500D03*
D15*
G36*
X194137943Y-91945655D02*
X194171312Y-91950605D01*
X194204035Y-91958802D01*
X194235797Y-91970166D01*
X194266293Y-91984590D01*
X194295227Y-92001932D01*
X194322323Y-92022028D01*
X194347318Y-92044682D01*
X194369972Y-92069677D01*
X194390068Y-92096773D01*
X194407410Y-92125707D01*
X194421834Y-92156203D01*
X194433198Y-92187965D01*
X194441395Y-92220688D01*
X194446345Y-92254057D01*
X194448000Y-92287750D01*
X194448000Y-92975250D01*
X194446345Y-93008943D01*
X194441395Y-93042312D01*
X194433198Y-93075035D01*
X194421834Y-93106797D01*
X194407410Y-93137293D01*
X194390068Y-93166227D01*
X194369972Y-93193323D01*
X194347318Y-93218318D01*
X194322323Y-93240972D01*
X194295227Y-93261068D01*
X194266293Y-93278410D01*
X194235797Y-93292834D01*
X194204035Y-93304198D01*
X194171312Y-93312395D01*
X194137943Y-93317345D01*
X194104250Y-93319000D01*
X192991750Y-93319000D01*
X192958057Y-93317345D01*
X192924688Y-93312395D01*
X192891965Y-93304198D01*
X192860203Y-93292834D01*
X192829707Y-93278410D01*
X192800773Y-93261068D01*
X192773677Y-93240972D01*
X192748682Y-93218318D01*
X192726028Y-93193323D01*
X192705932Y-93166227D01*
X192688590Y-93137293D01*
X192674166Y-93106797D01*
X192662802Y-93075035D01*
X192654605Y-93042312D01*
X192649655Y-93008943D01*
X192648000Y-92975250D01*
X192648000Y-92287750D01*
X192649655Y-92254057D01*
X192654605Y-92220688D01*
X192662802Y-92187965D01*
X192674166Y-92156203D01*
X192688590Y-92125707D01*
X192705932Y-92096773D01*
X192726028Y-92069677D01*
X192748682Y-92044682D01*
X192773677Y-92022028D01*
X192800773Y-92001932D01*
X192829707Y-91984590D01*
X192860203Y-91970166D01*
X192891965Y-91958802D01*
X192924688Y-91950605D01*
X192958057Y-91945655D01*
X192991750Y-91944000D01*
X194104250Y-91944000D01*
X194137943Y-91945655D01*
X194137943Y-91945655D01*
G37*
D16*
X193548000Y-92631500D03*
G04 #@! TD*
D15*
G04 #@! TO.C,R7*
G36*
X204297943Y-101500655D02*
X204331312Y-101505605D01*
X204364035Y-101513802D01*
X204395797Y-101525166D01*
X204426293Y-101539590D01*
X204455227Y-101556932D01*
X204482323Y-101577028D01*
X204507318Y-101599682D01*
X204529972Y-101624677D01*
X204550068Y-101651773D01*
X204567410Y-101680707D01*
X204581834Y-101711203D01*
X204593198Y-101742965D01*
X204601395Y-101775688D01*
X204606345Y-101809057D01*
X204608000Y-101842750D01*
X204608000Y-102530250D01*
X204606345Y-102563943D01*
X204601395Y-102597312D01*
X204593198Y-102630035D01*
X204581834Y-102661797D01*
X204567410Y-102692293D01*
X204550068Y-102721227D01*
X204529972Y-102748323D01*
X204507318Y-102773318D01*
X204482323Y-102795972D01*
X204455227Y-102816068D01*
X204426293Y-102833410D01*
X204395797Y-102847834D01*
X204364035Y-102859198D01*
X204331312Y-102867395D01*
X204297943Y-102872345D01*
X204264250Y-102874000D01*
X203151750Y-102874000D01*
X203118057Y-102872345D01*
X203084688Y-102867395D01*
X203051965Y-102859198D01*
X203020203Y-102847834D01*
X202989707Y-102833410D01*
X202960773Y-102816068D01*
X202933677Y-102795972D01*
X202908682Y-102773318D01*
X202886028Y-102748323D01*
X202865932Y-102721227D01*
X202848590Y-102692293D01*
X202834166Y-102661797D01*
X202822802Y-102630035D01*
X202814605Y-102597312D01*
X202809655Y-102563943D01*
X202808000Y-102530250D01*
X202808000Y-101842750D01*
X202809655Y-101809057D01*
X202814605Y-101775688D01*
X202822802Y-101742965D01*
X202834166Y-101711203D01*
X202848590Y-101680707D01*
X202865932Y-101651773D01*
X202886028Y-101624677D01*
X202908682Y-101599682D01*
X202933677Y-101577028D01*
X202960773Y-101556932D01*
X202989707Y-101539590D01*
X203020203Y-101525166D01*
X203051965Y-101513802D01*
X203084688Y-101505605D01*
X203118057Y-101500655D01*
X203151750Y-101499000D01*
X204264250Y-101499000D01*
X204297943Y-101500655D01*
X204297943Y-101500655D01*
G37*
D16*
X203708000Y-102186500D03*
D15*
G36*
X204297943Y-103375655D02*
X204331312Y-103380605D01*
X204364035Y-103388802D01*
X204395797Y-103400166D01*
X204426293Y-103414590D01*
X204455227Y-103431932D01*
X204482323Y-103452028D01*
X204507318Y-103474682D01*
X204529972Y-103499677D01*
X204550068Y-103526773D01*
X204567410Y-103555707D01*
X204581834Y-103586203D01*
X204593198Y-103617965D01*
X204601395Y-103650688D01*
X204606345Y-103684057D01*
X204608000Y-103717750D01*
X204608000Y-104405250D01*
X204606345Y-104438943D01*
X204601395Y-104472312D01*
X204593198Y-104505035D01*
X204581834Y-104536797D01*
X204567410Y-104567293D01*
X204550068Y-104596227D01*
X204529972Y-104623323D01*
X204507318Y-104648318D01*
X204482323Y-104670972D01*
X204455227Y-104691068D01*
X204426293Y-104708410D01*
X204395797Y-104722834D01*
X204364035Y-104734198D01*
X204331312Y-104742395D01*
X204297943Y-104747345D01*
X204264250Y-104749000D01*
X203151750Y-104749000D01*
X203118057Y-104747345D01*
X203084688Y-104742395D01*
X203051965Y-104734198D01*
X203020203Y-104722834D01*
X202989707Y-104708410D01*
X202960773Y-104691068D01*
X202933677Y-104670972D01*
X202908682Y-104648318D01*
X202886028Y-104623323D01*
X202865932Y-104596227D01*
X202848590Y-104567293D01*
X202834166Y-104536797D01*
X202822802Y-104505035D01*
X202814605Y-104472312D01*
X202809655Y-104438943D01*
X202808000Y-104405250D01*
X202808000Y-103717750D01*
X202809655Y-103684057D01*
X202814605Y-103650688D01*
X202822802Y-103617965D01*
X202834166Y-103586203D01*
X202848590Y-103555707D01*
X202865932Y-103526773D01*
X202886028Y-103499677D01*
X202908682Y-103474682D01*
X202933677Y-103452028D01*
X202960773Y-103431932D01*
X202989707Y-103414590D01*
X203020203Y-103400166D01*
X203051965Y-103388802D01*
X203084688Y-103380605D01*
X203118057Y-103375655D01*
X203151750Y-103374000D01*
X204264250Y-103374000D01*
X204297943Y-103375655D01*
X204297943Y-103375655D01*
G37*
D16*
X203708000Y-104061500D03*
G04 #@! TD*
D15*
G04 #@! TO.C,R8*
G36*
X202265943Y-103375655D02*
X202299312Y-103380605D01*
X202332035Y-103388802D01*
X202363797Y-103400166D01*
X202394293Y-103414590D01*
X202423227Y-103431932D01*
X202450323Y-103452028D01*
X202475318Y-103474682D01*
X202497972Y-103499677D01*
X202518068Y-103526773D01*
X202535410Y-103555707D01*
X202549834Y-103586203D01*
X202561198Y-103617965D01*
X202569395Y-103650688D01*
X202574345Y-103684057D01*
X202576000Y-103717750D01*
X202576000Y-104405250D01*
X202574345Y-104438943D01*
X202569395Y-104472312D01*
X202561198Y-104505035D01*
X202549834Y-104536797D01*
X202535410Y-104567293D01*
X202518068Y-104596227D01*
X202497972Y-104623323D01*
X202475318Y-104648318D01*
X202450323Y-104670972D01*
X202423227Y-104691068D01*
X202394293Y-104708410D01*
X202363797Y-104722834D01*
X202332035Y-104734198D01*
X202299312Y-104742395D01*
X202265943Y-104747345D01*
X202232250Y-104749000D01*
X201119750Y-104749000D01*
X201086057Y-104747345D01*
X201052688Y-104742395D01*
X201019965Y-104734198D01*
X200988203Y-104722834D01*
X200957707Y-104708410D01*
X200928773Y-104691068D01*
X200901677Y-104670972D01*
X200876682Y-104648318D01*
X200854028Y-104623323D01*
X200833932Y-104596227D01*
X200816590Y-104567293D01*
X200802166Y-104536797D01*
X200790802Y-104505035D01*
X200782605Y-104472312D01*
X200777655Y-104438943D01*
X200776000Y-104405250D01*
X200776000Y-103717750D01*
X200777655Y-103684057D01*
X200782605Y-103650688D01*
X200790802Y-103617965D01*
X200802166Y-103586203D01*
X200816590Y-103555707D01*
X200833932Y-103526773D01*
X200854028Y-103499677D01*
X200876682Y-103474682D01*
X200901677Y-103452028D01*
X200928773Y-103431932D01*
X200957707Y-103414590D01*
X200988203Y-103400166D01*
X201019965Y-103388802D01*
X201052688Y-103380605D01*
X201086057Y-103375655D01*
X201119750Y-103374000D01*
X202232250Y-103374000D01*
X202265943Y-103375655D01*
X202265943Y-103375655D01*
G37*
D16*
X201676000Y-104061500D03*
D15*
G36*
X202265943Y-101500655D02*
X202299312Y-101505605D01*
X202332035Y-101513802D01*
X202363797Y-101525166D01*
X202394293Y-101539590D01*
X202423227Y-101556932D01*
X202450323Y-101577028D01*
X202475318Y-101599682D01*
X202497972Y-101624677D01*
X202518068Y-101651773D01*
X202535410Y-101680707D01*
X202549834Y-101711203D01*
X202561198Y-101742965D01*
X202569395Y-101775688D01*
X202574345Y-101809057D01*
X202576000Y-101842750D01*
X202576000Y-102530250D01*
X202574345Y-102563943D01*
X202569395Y-102597312D01*
X202561198Y-102630035D01*
X202549834Y-102661797D01*
X202535410Y-102692293D01*
X202518068Y-102721227D01*
X202497972Y-102748323D01*
X202475318Y-102773318D01*
X202450323Y-102795972D01*
X202423227Y-102816068D01*
X202394293Y-102833410D01*
X202363797Y-102847834D01*
X202332035Y-102859198D01*
X202299312Y-102867395D01*
X202265943Y-102872345D01*
X202232250Y-102874000D01*
X201119750Y-102874000D01*
X201086057Y-102872345D01*
X201052688Y-102867395D01*
X201019965Y-102859198D01*
X200988203Y-102847834D01*
X200957707Y-102833410D01*
X200928773Y-102816068D01*
X200901677Y-102795972D01*
X200876682Y-102773318D01*
X200854028Y-102748323D01*
X200833932Y-102721227D01*
X200816590Y-102692293D01*
X200802166Y-102661797D01*
X200790802Y-102630035D01*
X200782605Y-102597312D01*
X200777655Y-102563943D01*
X200776000Y-102530250D01*
X200776000Y-101842750D01*
X200777655Y-101809057D01*
X200782605Y-101775688D01*
X200790802Y-101742965D01*
X200802166Y-101711203D01*
X200816590Y-101680707D01*
X200833932Y-101651773D01*
X200854028Y-101624677D01*
X200876682Y-101599682D01*
X200901677Y-101577028D01*
X200928773Y-101556932D01*
X200957707Y-101539590D01*
X200988203Y-101525166D01*
X201019965Y-101513802D01*
X201052688Y-101505605D01*
X201086057Y-101500655D01*
X201119750Y-101499000D01*
X202232250Y-101499000D01*
X202265943Y-101500655D01*
X202265943Y-101500655D01*
G37*
D16*
X201676000Y-102186500D03*
G04 #@! TD*
D15*
G04 #@! TO.C,C1*
G36*
X201735139Y-113662133D02*
X201768508Y-113667083D01*
X201801231Y-113675280D01*
X201832993Y-113686644D01*
X201863489Y-113701068D01*
X201892423Y-113718410D01*
X201919519Y-113738506D01*
X201944514Y-113761160D01*
X201967168Y-113786155D01*
X201987264Y-113813251D01*
X202004606Y-113842185D01*
X202019030Y-113872681D01*
X202030394Y-113904443D01*
X202038591Y-113937166D01*
X202043541Y-113970535D01*
X202045196Y-114004228D01*
X202045196Y-115116728D01*
X202043541Y-115150421D01*
X202038591Y-115183790D01*
X202030394Y-115216513D01*
X202019030Y-115248275D01*
X202004606Y-115278771D01*
X201987264Y-115307705D01*
X201967168Y-115334801D01*
X201944514Y-115359796D01*
X201919519Y-115382450D01*
X201892423Y-115402546D01*
X201863489Y-115419888D01*
X201832993Y-115434312D01*
X201801231Y-115445676D01*
X201768508Y-115453873D01*
X201735139Y-115458823D01*
X201701446Y-115460478D01*
X201013946Y-115460478D01*
X200980253Y-115458823D01*
X200946884Y-115453873D01*
X200914161Y-115445676D01*
X200882399Y-115434312D01*
X200851903Y-115419888D01*
X200822969Y-115402546D01*
X200795873Y-115382450D01*
X200770878Y-115359796D01*
X200748224Y-115334801D01*
X200728128Y-115307705D01*
X200710786Y-115278771D01*
X200696362Y-115248275D01*
X200684998Y-115216513D01*
X200676801Y-115183790D01*
X200671851Y-115150421D01*
X200670196Y-115116728D01*
X200670196Y-114004228D01*
X200671851Y-113970535D01*
X200676801Y-113937166D01*
X200684998Y-113904443D01*
X200696362Y-113872681D01*
X200710786Y-113842185D01*
X200728128Y-113813251D01*
X200748224Y-113786155D01*
X200770878Y-113761160D01*
X200795873Y-113738506D01*
X200822969Y-113718410D01*
X200851903Y-113701068D01*
X200882399Y-113686644D01*
X200914161Y-113675280D01*
X200946884Y-113667083D01*
X200980253Y-113662133D01*
X201013946Y-113660478D01*
X201701446Y-113660478D01*
X201735139Y-113662133D01*
X201735139Y-113662133D01*
G37*
D16*
X201357696Y-114560478D03*
D15*
G36*
X203610139Y-113662133D02*
X203643508Y-113667083D01*
X203676231Y-113675280D01*
X203707993Y-113686644D01*
X203738489Y-113701068D01*
X203767423Y-113718410D01*
X203794519Y-113738506D01*
X203819514Y-113761160D01*
X203842168Y-113786155D01*
X203862264Y-113813251D01*
X203879606Y-113842185D01*
X203894030Y-113872681D01*
X203905394Y-113904443D01*
X203913591Y-113937166D01*
X203918541Y-113970535D01*
X203920196Y-114004228D01*
X203920196Y-115116728D01*
X203918541Y-115150421D01*
X203913591Y-115183790D01*
X203905394Y-115216513D01*
X203894030Y-115248275D01*
X203879606Y-115278771D01*
X203862264Y-115307705D01*
X203842168Y-115334801D01*
X203819514Y-115359796D01*
X203794519Y-115382450D01*
X203767423Y-115402546D01*
X203738489Y-115419888D01*
X203707993Y-115434312D01*
X203676231Y-115445676D01*
X203643508Y-115453873D01*
X203610139Y-115458823D01*
X203576446Y-115460478D01*
X202888946Y-115460478D01*
X202855253Y-115458823D01*
X202821884Y-115453873D01*
X202789161Y-115445676D01*
X202757399Y-115434312D01*
X202726903Y-115419888D01*
X202697969Y-115402546D01*
X202670873Y-115382450D01*
X202645878Y-115359796D01*
X202623224Y-115334801D01*
X202603128Y-115307705D01*
X202585786Y-115278771D01*
X202571362Y-115248275D01*
X202559998Y-115216513D01*
X202551801Y-115183790D01*
X202546851Y-115150421D01*
X202545196Y-115116728D01*
X202545196Y-114004228D01*
X202546851Y-113970535D01*
X202551801Y-113937166D01*
X202559998Y-113904443D01*
X202571362Y-113872681D01*
X202585786Y-113842185D01*
X202603128Y-113813251D01*
X202623224Y-113786155D01*
X202645878Y-113761160D01*
X202670873Y-113738506D01*
X202697969Y-113718410D01*
X202726903Y-113701068D01*
X202757399Y-113686644D01*
X202789161Y-113675280D01*
X202821884Y-113667083D01*
X202855253Y-113662133D01*
X202888946Y-113660478D01*
X203576446Y-113660478D01*
X203610139Y-113662133D01*
X203610139Y-113662133D01*
G37*
D16*
X203232696Y-114560478D03*
G04 #@! TD*
D15*
G04 #@! TO.C,C2*
G36*
X205545139Y-113662133D02*
X205578508Y-113667083D01*
X205611231Y-113675280D01*
X205642993Y-113686644D01*
X205673489Y-113701068D01*
X205702423Y-113718410D01*
X205729519Y-113738506D01*
X205754514Y-113761160D01*
X205777168Y-113786155D01*
X205797264Y-113813251D01*
X205814606Y-113842185D01*
X205829030Y-113872681D01*
X205840394Y-113904443D01*
X205848591Y-113937166D01*
X205853541Y-113970535D01*
X205855196Y-114004228D01*
X205855196Y-115116728D01*
X205853541Y-115150421D01*
X205848591Y-115183790D01*
X205840394Y-115216513D01*
X205829030Y-115248275D01*
X205814606Y-115278771D01*
X205797264Y-115307705D01*
X205777168Y-115334801D01*
X205754514Y-115359796D01*
X205729519Y-115382450D01*
X205702423Y-115402546D01*
X205673489Y-115419888D01*
X205642993Y-115434312D01*
X205611231Y-115445676D01*
X205578508Y-115453873D01*
X205545139Y-115458823D01*
X205511446Y-115460478D01*
X204823946Y-115460478D01*
X204790253Y-115458823D01*
X204756884Y-115453873D01*
X204724161Y-115445676D01*
X204692399Y-115434312D01*
X204661903Y-115419888D01*
X204632969Y-115402546D01*
X204605873Y-115382450D01*
X204580878Y-115359796D01*
X204558224Y-115334801D01*
X204538128Y-115307705D01*
X204520786Y-115278771D01*
X204506362Y-115248275D01*
X204494998Y-115216513D01*
X204486801Y-115183790D01*
X204481851Y-115150421D01*
X204480196Y-115116728D01*
X204480196Y-114004228D01*
X204481851Y-113970535D01*
X204486801Y-113937166D01*
X204494998Y-113904443D01*
X204506362Y-113872681D01*
X204520786Y-113842185D01*
X204538128Y-113813251D01*
X204558224Y-113786155D01*
X204580878Y-113761160D01*
X204605873Y-113738506D01*
X204632969Y-113718410D01*
X204661903Y-113701068D01*
X204692399Y-113686644D01*
X204724161Y-113675280D01*
X204756884Y-113667083D01*
X204790253Y-113662133D01*
X204823946Y-113660478D01*
X205511446Y-113660478D01*
X205545139Y-113662133D01*
X205545139Y-113662133D01*
G37*
D16*
X205167696Y-114560478D03*
D15*
G36*
X207420139Y-113662133D02*
X207453508Y-113667083D01*
X207486231Y-113675280D01*
X207517993Y-113686644D01*
X207548489Y-113701068D01*
X207577423Y-113718410D01*
X207604519Y-113738506D01*
X207629514Y-113761160D01*
X207652168Y-113786155D01*
X207672264Y-113813251D01*
X207689606Y-113842185D01*
X207704030Y-113872681D01*
X207715394Y-113904443D01*
X207723591Y-113937166D01*
X207728541Y-113970535D01*
X207730196Y-114004228D01*
X207730196Y-115116728D01*
X207728541Y-115150421D01*
X207723591Y-115183790D01*
X207715394Y-115216513D01*
X207704030Y-115248275D01*
X207689606Y-115278771D01*
X207672264Y-115307705D01*
X207652168Y-115334801D01*
X207629514Y-115359796D01*
X207604519Y-115382450D01*
X207577423Y-115402546D01*
X207548489Y-115419888D01*
X207517993Y-115434312D01*
X207486231Y-115445676D01*
X207453508Y-115453873D01*
X207420139Y-115458823D01*
X207386446Y-115460478D01*
X206698946Y-115460478D01*
X206665253Y-115458823D01*
X206631884Y-115453873D01*
X206599161Y-115445676D01*
X206567399Y-115434312D01*
X206536903Y-115419888D01*
X206507969Y-115402546D01*
X206480873Y-115382450D01*
X206455878Y-115359796D01*
X206433224Y-115334801D01*
X206413128Y-115307705D01*
X206395786Y-115278771D01*
X206381362Y-115248275D01*
X206369998Y-115216513D01*
X206361801Y-115183790D01*
X206356851Y-115150421D01*
X206355196Y-115116728D01*
X206355196Y-114004228D01*
X206356851Y-113970535D01*
X206361801Y-113937166D01*
X206369998Y-113904443D01*
X206381362Y-113872681D01*
X206395786Y-113842185D01*
X206413128Y-113813251D01*
X206433224Y-113786155D01*
X206455878Y-113761160D01*
X206480873Y-113738506D01*
X206507969Y-113718410D01*
X206536903Y-113701068D01*
X206567399Y-113686644D01*
X206599161Y-113675280D01*
X206631884Y-113667083D01*
X206665253Y-113662133D01*
X206698946Y-113660478D01*
X207386446Y-113660478D01*
X207420139Y-113662133D01*
X207420139Y-113662133D01*
G37*
D16*
X207042696Y-114560478D03*
G04 #@! TD*
D17*
G04 #@! TO.C,J2*
X193040000Y-118364000D03*
D15*
G36*
X194223315Y-122668093D02*
X194305827Y-122680333D01*
X194386742Y-122700601D01*
X194465281Y-122728702D01*
X194540687Y-122764367D01*
X194612235Y-122807251D01*
X194679234Y-122856941D01*
X194741041Y-122912959D01*
X194797059Y-122974766D01*
X194846749Y-123041765D01*
X194889633Y-123113313D01*
X194925298Y-123188719D01*
X194953399Y-123267258D01*
X194973667Y-123348173D01*
X194985907Y-123430685D01*
X194990000Y-123514000D01*
X194990000Y-125214000D01*
X194985907Y-125297315D01*
X194973667Y-125379827D01*
X194953399Y-125460742D01*
X194925298Y-125539281D01*
X194889633Y-125614687D01*
X194846749Y-125686235D01*
X194797059Y-125753234D01*
X194741041Y-125815041D01*
X194679234Y-125871059D01*
X194612235Y-125920749D01*
X194540687Y-125963633D01*
X194465281Y-125999298D01*
X194386742Y-126027399D01*
X194305827Y-126047667D01*
X194223315Y-126059907D01*
X194140000Y-126064000D01*
X191940000Y-126064000D01*
X191856685Y-126059907D01*
X191774173Y-126047667D01*
X191693258Y-126027399D01*
X191614719Y-125999298D01*
X191539313Y-125963633D01*
X191467765Y-125920749D01*
X191400766Y-125871059D01*
X191338959Y-125815041D01*
X191282941Y-125753234D01*
X191233251Y-125686235D01*
X191190367Y-125614687D01*
X191154702Y-125539281D01*
X191126601Y-125460742D01*
X191106333Y-125379827D01*
X191094093Y-125297315D01*
X191090000Y-125214000D01*
X191090000Y-123514000D01*
X191094093Y-123430685D01*
X191106333Y-123348173D01*
X191126601Y-123267258D01*
X191154702Y-123188719D01*
X191190367Y-123113313D01*
X191233251Y-123041765D01*
X191282941Y-122974766D01*
X191338959Y-122912959D01*
X191400766Y-122856941D01*
X191467765Y-122807251D01*
X191539313Y-122764367D01*
X191614719Y-122728702D01*
X191693258Y-122700601D01*
X191774173Y-122680333D01*
X191856685Y-122668093D01*
X191940000Y-122664000D01*
X194140000Y-122664000D01*
X194223315Y-122668093D01*
X194223315Y-122668093D01*
G37*
D18*
X193040000Y-124364000D03*
D15*
G36*
X198810567Y-119418695D02*
X198905213Y-119432734D01*
X198998028Y-119455983D01*
X199088116Y-119488217D01*
X199174612Y-119529127D01*
X199256681Y-119578317D01*
X199333533Y-119635315D01*
X199404429Y-119699571D01*
X199468685Y-119770467D01*
X199525683Y-119847319D01*
X199574873Y-119929388D01*
X199615783Y-120015884D01*
X199648017Y-120105972D01*
X199671266Y-120198787D01*
X199685305Y-120293433D01*
X199690000Y-120389000D01*
X199690000Y-122339000D01*
X199685305Y-122434567D01*
X199671266Y-122529213D01*
X199648017Y-122622028D01*
X199615783Y-122712116D01*
X199574873Y-122798612D01*
X199525683Y-122880681D01*
X199468685Y-122957533D01*
X199404429Y-123028429D01*
X199333533Y-123092685D01*
X199256681Y-123149683D01*
X199174612Y-123198873D01*
X199088116Y-123239783D01*
X198998028Y-123272017D01*
X198905213Y-123295266D01*
X198810567Y-123309305D01*
X198715000Y-123314000D01*
X196765000Y-123314000D01*
X196669433Y-123309305D01*
X196574787Y-123295266D01*
X196481972Y-123272017D01*
X196391884Y-123239783D01*
X196305388Y-123198873D01*
X196223319Y-123149683D01*
X196146467Y-123092685D01*
X196075571Y-123028429D01*
X196011315Y-122957533D01*
X195954317Y-122880681D01*
X195905127Y-122798612D01*
X195864217Y-122712116D01*
X195831983Y-122622028D01*
X195808734Y-122529213D01*
X195794695Y-122434567D01*
X195790000Y-122339000D01*
X195790000Y-120389000D01*
X195794695Y-120293433D01*
X195808734Y-120198787D01*
X195831983Y-120105972D01*
X195864217Y-120015884D01*
X195905127Y-119929388D01*
X195954317Y-119847319D01*
X196011315Y-119770467D01*
X196075571Y-119699571D01*
X196146467Y-119635315D01*
X196223319Y-119578317D01*
X196305388Y-119529127D01*
X196391884Y-119488217D01*
X196481972Y-119455983D01*
X196574787Y-119432734D01*
X196669433Y-119418695D01*
X196765000Y-119414000D01*
X198715000Y-119414000D01*
X198810567Y-119418695D01*
X198810567Y-119418695D01*
G37*
D19*
X197740000Y-121364000D03*
G04 #@! TD*
D20*
G04 #@! TO.C,NTC1*
X204216000Y-86995000D03*
D21*
X201676000Y-86995000D03*
G04 #@! TD*
D22*
G04 #@! TO.C,FAN1*
X198120000Y-94360000D03*
D23*
X200660000Y-96520000D03*
X198120000Y-96520000D03*
X195580000Y-96520000D03*
D24*
X193040000Y-96520000D03*
G04 #@! TD*
G04 #@! TO.C,FAN2*
X198755000Y-107950000D03*
D23*
X201295000Y-107950000D03*
X203835000Y-107950000D03*
X206375000Y-107950000D03*
D22*
X203835000Y-105790000D03*
G04 #@! TD*
D15*
G04 #@! TO.C,R1*
G36*
X207719943Y-86096655D02*
X207753312Y-86101605D01*
X207786035Y-86109802D01*
X207817797Y-86121166D01*
X207848293Y-86135590D01*
X207877227Y-86152932D01*
X207904323Y-86173028D01*
X207929318Y-86195682D01*
X207951972Y-86220677D01*
X207972068Y-86247773D01*
X207989410Y-86276707D01*
X208003834Y-86307203D01*
X208015198Y-86338965D01*
X208023395Y-86371688D01*
X208028345Y-86405057D01*
X208030000Y-86438750D01*
X208030000Y-87551250D01*
X208028345Y-87584943D01*
X208023395Y-87618312D01*
X208015198Y-87651035D01*
X208003834Y-87682797D01*
X207989410Y-87713293D01*
X207972068Y-87742227D01*
X207951972Y-87769323D01*
X207929318Y-87794318D01*
X207904323Y-87816972D01*
X207877227Y-87837068D01*
X207848293Y-87854410D01*
X207817797Y-87868834D01*
X207786035Y-87880198D01*
X207753312Y-87888395D01*
X207719943Y-87893345D01*
X207686250Y-87895000D01*
X206998750Y-87895000D01*
X206965057Y-87893345D01*
X206931688Y-87888395D01*
X206898965Y-87880198D01*
X206867203Y-87868834D01*
X206836707Y-87854410D01*
X206807773Y-87837068D01*
X206780677Y-87816972D01*
X206755682Y-87794318D01*
X206733028Y-87769323D01*
X206712932Y-87742227D01*
X206695590Y-87713293D01*
X206681166Y-87682797D01*
X206669802Y-87651035D01*
X206661605Y-87618312D01*
X206656655Y-87584943D01*
X206655000Y-87551250D01*
X206655000Y-86438750D01*
X206656655Y-86405057D01*
X206661605Y-86371688D01*
X206669802Y-86338965D01*
X206681166Y-86307203D01*
X206695590Y-86276707D01*
X206712932Y-86247773D01*
X206733028Y-86220677D01*
X206755682Y-86195682D01*
X206780677Y-86173028D01*
X206807773Y-86152932D01*
X206836707Y-86135590D01*
X206867203Y-86121166D01*
X206898965Y-86109802D01*
X206931688Y-86101605D01*
X206965057Y-86096655D01*
X206998750Y-86095000D01*
X207686250Y-86095000D01*
X207719943Y-86096655D01*
X207719943Y-86096655D01*
G37*
D16*
X207342500Y-86995000D03*
D15*
G36*
X209594943Y-86096655D02*
X209628312Y-86101605D01*
X209661035Y-86109802D01*
X209692797Y-86121166D01*
X209723293Y-86135590D01*
X209752227Y-86152932D01*
X209779323Y-86173028D01*
X209804318Y-86195682D01*
X209826972Y-86220677D01*
X209847068Y-86247773D01*
X209864410Y-86276707D01*
X209878834Y-86307203D01*
X209890198Y-86338965D01*
X209898395Y-86371688D01*
X209903345Y-86405057D01*
X209905000Y-86438750D01*
X209905000Y-87551250D01*
X209903345Y-87584943D01*
X209898395Y-87618312D01*
X209890198Y-87651035D01*
X209878834Y-87682797D01*
X209864410Y-87713293D01*
X209847068Y-87742227D01*
X209826972Y-87769323D01*
X209804318Y-87794318D01*
X209779323Y-87816972D01*
X209752227Y-87837068D01*
X209723293Y-87854410D01*
X209692797Y-87868834D01*
X209661035Y-87880198D01*
X209628312Y-87888395D01*
X209594943Y-87893345D01*
X209561250Y-87895000D01*
X208873750Y-87895000D01*
X208840057Y-87893345D01*
X208806688Y-87888395D01*
X208773965Y-87880198D01*
X208742203Y-87868834D01*
X208711707Y-87854410D01*
X208682773Y-87837068D01*
X208655677Y-87816972D01*
X208630682Y-87794318D01*
X208608028Y-87769323D01*
X208587932Y-87742227D01*
X208570590Y-87713293D01*
X208556166Y-87682797D01*
X208544802Y-87651035D01*
X208536605Y-87618312D01*
X208531655Y-87584943D01*
X208530000Y-87551250D01*
X208530000Y-86438750D01*
X208531655Y-86405057D01*
X208536605Y-86371688D01*
X208544802Y-86338965D01*
X208556166Y-86307203D01*
X208570590Y-86276707D01*
X208587932Y-86247773D01*
X208608028Y-86220677D01*
X208630682Y-86195682D01*
X208655677Y-86173028D01*
X208682773Y-86152932D01*
X208711707Y-86135590D01*
X208742203Y-86121166D01*
X208773965Y-86109802D01*
X208806688Y-86101605D01*
X208840057Y-86096655D01*
X208873750Y-86095000D01*
X209561250Y-86095000D01*
X209594943Y-86096655D01*
X209594943Y-86096655D01*
G37*
D16*
X209217500Y-86995000D03*
G04 #@! TD*
D15*
G04 #@! TO.C,R2*
G36*
X198799943Y-86096655D02*
X198833312Y-86101605D01*
X198866035Y-86109802D01*
X198897797Y-86121166D01*
X198928293Y-86135590D01*
X198957227Y-86152932D01*
X198984323Y-86173028D01*
X199009318Y-86195682D01*
X199031972Y-86220677D01*
X199052068Y-86247773D01*
X199069410Y-86276707D01*
X199083834Y-86307203D01*
X199095198Y-86338965D01*
X199103395Y-86371688D01*
X199108345Y-86405057D01*
X199110000Y-86438750D01*
X199110000Y-87551250D01*
X199108345Y-87584943D01*
X199103395Y-87618312D01*
X199095198Y-87651035D01*
X199083834Y-87682797D01*
X199069410Y-87713293D01*
X199052068Y-87742227D01*
X199031972Y-87769323D01*
X199009318Y-87794318D01*
X198984323Y-87816972D01*
X198957227Y-87837068D01*
X198928293Y-87854410D01*
X198897797Y-87868834D01*
X198866035Y-87880198D01*
X198833312Y-87888395D01*
X198799943Y-87893345D01*
X198766250Y-87895000D01*
X198078750Y-87895000D01*
X198045057Y-87893345D01*
X198011688Y-87888395D01*
X197978965Y-87880198D01*
X197947203Y-87868834D01*
X197916707Y-87854410D01*
X197887773Y-87837068D01*
X197860677Y-87816972D01*
X197835682Y-87794318D01*
X197813028Y-87769323D01*
X197792932Y-87742227D01*
X197775590Y-87713293D01*
X197761166Y-87682797D01*
X197749802Y-87651035D01*
X197741605Y-87618312D01*
X197736655Y-87584943D01*
X197735000Y-87551250D01*
X197735000Y-86438750D01*
X197736655Y-86405057D01*
X197741605Y-86371688D01*
X197749802Y-86338965D01*
X197761166Y-86307203D01*
X197775590Y-86276707D01*
X197792932Y-86247773D01*
X197813028Y-86220677D01*
X197835682Y-86195682D01*
X197860677Y-86173028D01*
X197887773Y-86152932D01*
X197916707Y-86135590D01*
X197947203Y-86121166D01*
X197978965Y-86109802D01*
X198011688Y-86101605D01*
X198045057Y-86096655D01*
X198078750Y-86095000D01*
X198766250Y-86095000D01*
X198799943Y-86096655D01*
X198799943Y-86096655D01*
G37*
D16*
X198422500Y-86995000D03*
D15*
G36*
X196924943Y-86096655D02*
X196958312Y-86101605D01*
X196991035Y-86109802D01*
X197022797Y-86121166D01*
X197053293Y-86135590D01*
X197082227Y-86152932D01*
X197109323Y-86173028D01*
X197134318Y-86195682D01*
X197156972Y-86220677D01*
X197177068Y-86247773D01*
X197194410Y-86276707D01*
X197208834Y-86307203D01*
X197220198Y-86338965D01*
X197228395Y-86371688D01*
X197233345Y-86405057D01*
X197235000Y-86438750D01*
X197235000Y-87551250D01*
X197233345Y-87584943D01*
X197228395Y-87618312D01*
X197220198Y-87651035D01*
X197208834Y-87682797D01*
X197194410Y-87713293D01*
X197177068Y-87742227D01*
X197156972Y-87769323D01*
X197134318Y-87794318D01*
X197109323Y-87816972D01*
X197082227Y-87837068D01*
X197053293Y-87854410D01*
X197022797Y-87868834D01*
X196991035Y-87880198D01*
X196958312Y-87888395D01*
X196924943Y-87893345D01*
X196891250Y-87895000D01*
X196203750Y-87895000D01*
X196170057Y-87893345D01*
X196136688Y-87888395D01*
X196103965Y-87880198D01*
X196072203Y-87868834D01*
X196041707Y-87854410D01*
X196012773Y-87837068D01*
X195985677Y-87816972D01*
X195960682Y-87794318D01*
X195938028Y-87769323D01*
X195917932Y-87742227D01*
X195900590Y-87713293D01*
X195886166Y-87682797D01*
X195874802Y-87651035D01*
X195866605Y-87618312D01*
X195861655Y-87584943D01*
X195860000Y-87551250D01*
X195860000Y-86438750D01*
X195861655Y-86405057D01*
X195866605Y-86371688D01*
X195874802Y-86338965D01*
X195886166Y-86307203D01*
X195900590Y-86276707D01*
X195917932Y-86247773D01*
X195938028Y-86220677D01*
X195960682Y-86195682D01*
X195985677Y-86173028D01*
X196012773Y-86152932D01*
X196041707Y-86135590D01*
X196072203Y-86121166D01*
X196103965Y-86109802D01*
X196136688Y-86101605D01*
X196170057Y-86096655D01*
X196203750Y-86095000D01*
X196891250Y-86095000D01*
X196924943Y-86096655D01*
X196924943Y-86096655D01*
G37*
D16*
X196547500Y-86995000D03*
G04 #@! TD*
D15*
G04 #@! TO.C,R4*
G36*
X196677943Y-90070655D02*
X196711312Y-90075605D01*
X196744035Y-90083802D01*
X196775797Y-90095166D01*
X196806293Y-90109590D01*
X196835227Y-90126932D01*
X196862323Y-90147028D01*
X196887318Y-90169682D01*
X196909972Y-90194677D01*
X196930068Y-90221773D01*
X196947410Y-90250707D01*
X196961834Y-90281203D01*
X196973198Y-90312965D01*
X196981395Y-90345688D01*
X196986345Y-90379057D01*
X196988000Y-90412750D01*
X196988000Y-91100250D01*
X196986345Y-91133943D01*
X196981395Y-91167312D01*
X196973198Y-91200035D01*
X196961834Y-91231797D01*
X196947410Y-91262293D01*
X196930068Y-91291227D01*
X196909972Y-91318323D01*
X196887318Y-91343318D01*
X196862323Y-91365972D01*
X196835227Y-91386068D01*
X196806293Y-91403410D01*
X196775797Y-91417834D01*
X196744035Y-91429198D01*
X196711312Y-91437395D01*
X196677943Y-91442345D01*
X196644250Y-91444000D01*
X195531750Y-91444000D01*
X195498057Y-91442345D01*
X195464688Y-91437395D01*
X195431965Y-91429198D01*
X195400203Y-91417834D01*
X195369707Y-91403410D01*
X195340773Y-91386068D01*
X195313677Y-91365972D01*
X195288682Y-91343318D01*
X195266028Y-91318323D01*
X195245932Y-91291227D01*
X195228590Y-91262293D01*
X195214166Y-91231797D01*
X195202802Y-91200035D01*
X195194605Y-91167312D01*
X195189655Y-91133943D01*
X195188000Y-91100250D01*
X195188000Y-90412750D01*
X195189655Y-90379057D01*
X195194605Y-90345688D01*
X195202802Y-90312965D01*
X195214166Y-90281203D01*
X195228590Y-90250707D01*
X195245932Y-90221773D01*
X195266028Y-90194677D01*
X195288682Y-90169682D01*
X195313677Y-90147028D01*
X195340773Y-90126932D01*
X195369707Y-90109590D01*
X195400203Y-90095166D01*
X195431965Y-90083802D01*
X195464688Y-90075605D01*
X195498057Y-90070655D01*
X195531750Y-90069000D01*
X196644250Y-90069000D01*
X196677943Y-90070655D01*
X196677943Y-90070655D01*
G37*
D16*
X196088000Y-90756500D03*
D15*
G36*
X196677943Y-91945655D02*
X196711312Y-91950605D01*
X196744035Y-91958802D01*
X196775797Y-91970166D01*
X196806293Y-91984590D01*
X196835227Y-92001932D01*
X196862323Y-92022028D01*
X196887318Y-92044682D01*
X196909972Y-92069677D01*
X196930068Y-92096773D01*
X196947410Y-92125707D01*
X196961834Y-92156203D01*
X196973198Y-92187965D01*
X196981395Y-92220688D01*
X196986345Y-92254057D01*
X196988000Y-92287750D01*
X196988000Y-92975250D01*
X196986345Y-93008943D01*
X196981395Y-93042312D01*
X196973198Y-93075035D01*
X196961834Y-93106797D01*
X196947410Y-93137293D01*
X196930068Y-93166227D01*
X196909972Y-93193323D01*
X196887318Y-93218318D01*
X196862323Y-93240972D01*
X196835227Y-93261068D01*
X196806293Y-93278410D01*
X196775797Y-93292834D01*
X196744035Y-93304198D01*
X196711312Y-93312395D01*
X196677943Y-93317345D01*
X196644250Y-93319000D01*
X195531750Y-93319000D01*
X195498057Y-93317345D01*
X195464688Y-93312395D01*
X195431965Y-93304198D01*
X195400203Y-93292834D01*
X195369707Y-93278410D01*
X195340773Y-93261068D01*
X195313677Y-93240972D01*
X195288682Y-93218318D01*
X195266028Y-93193323D01*
X195245932Y-93166227D01*
X195228590Y-93137293D01*
X195214166Y-93106797D01*
X195202802Y-93075035D01*
X195194605Y-93042312D01*
X195189655Y-93008943D01*
X195188000Y-92975250D01*
X195188000Y-92287750D01*
X195189655Y-92254057D01*
X195194605Y-92220688D01*
X195202802Y-92187965D01*
X195214166Y-92156203D01*
X195228590Y-92125707D01*
X195245932Y-92096773D01*
X195266028Y-92069677D01*
X195288682Y-92044682D01*
X195313677Y-92022028D01*
X195340773Y-92001932D01*
X195369707Y-91984590D01*
X195400203Y-91970166D01*
X195431965Y-91958802D01*
X195464688Y-91950605D01*
X195498057Y-91945655D01*
X195531750Y-91944000D01*
X196644250Y-91944000D01*
X196677943Y-91945655D01*
X196677943Y-91945655D01*
G37*
D16*
X196088000Y-92631500D03*
G04 #@! TD*
D15*
G04 #@! TO.C,R5*
G36*
X198709943Y-90070655D02*
X198743312Y-90075605D01*
X198776035Y-90083802D01*
X198807797Y-90095166D01*
X198838293Y-90109590D01*
X198867227Y-90126932D01*
X198894323Y-90147028D01*
X198919318Y-90169682D01*
X198941972Y-90194677D01*
X198962068Y-90221773D01*
X198979410Y-90250707D01*
X198993834Y-90281203D01*
X199005198Y-90312965D01*
X199013395Y-90345688D01*
X199018345Y-90379057D01*
X199020000Y-90412750D01*
X199020000Y-91100250D01*
X199018345Y-91133943D01*
X199013395Y-91167312D01*
X199005198Y-91200035D01*
X198993834Y-91231797D01*
X198979410Y-91262293D01*
X198962068Y-91291227D01*
X198941972Y-91318323D01*
X198919318Y-91343318D01*
X198894323Y-91365972D01*
X198867227Y-91386068D01*
X198838293Y-91403410D01*
X198807797Y-91417834D01*
X198776035Y-91429198D01*
X198743312Y-91437395D01*
X198709943Y-91442345D01*
X198676250Y-91444000D01*
X197563750Y-91444000D01*
X197530057Y-91442345D01*
X197496688Y-91437395D01*
X197463965Y-91429198D01*
X197432203Y-91417834D01*
X197401707Y-91403410D01*
X197372773Y-91386068D01*
X197345677Y-91365972D01*
X197320682Y-91343318D01*
X197298028Y-91318323D01*
X197277932Y-91291227D01*
X197260590Y-91262293D01*
X197246166Y-91231797D01*
X197234802Y-91200035D01*
X197226605Y-91167312D01*
X197221655Y-91133943D01*
X197220000Y-91100250D01*
X197220000Y-90412750D01*
X197221655Y-90379057D01*
X197226605Y-90345688D01*
X197234802Y-90312965D01*
X197246166Y-90281203D01*
X197260590Y-90250707D01*
X197277932Y-90221773D01*
X197298028Y-90194677D01*
X197320682Y-90169682D01*
X197345677Y-90147028D01*
X197372773Y-90126932D01*
X197401707Y-90109590D01*
X197432203Y-90095166D01*
X197463965Y-90083802D01*
X197496688Y-90075605D01*
X197530057Y-90070655D01*
X197563750Y-90069000D01*
X198676250Y-90069000D01*
X198709943Y-90070655D01*
X198709943Y-90070655D01*
G37*
D16*
X198120000Y-90756500D03*
D15*
G36*
X198709943Y-91945655D02*
X198743312Y-91950605D01*
X198776035Y-91958802D01*
X198807797Y-91970166D01*
X198838293Y-91984590D01*
X198867227Y-92001932D01*
X198894323Y-92022028D01*
X198919318Y-92044682D01*
X198941972Y-92069677D01*
X198962068Y-92096773D01*
X198979410Y-92125707D01*
X198993834Y-92156203D01*
X199005198Y-92187965D01*
X199013395Y-92220688D01*
X199018345Y-92254057D01*
X199020000Y-92287750D01*
X199020000Y-92975250D01*
X199018345Y-93008943D01*
X199013395Y-93042312D01*
X199005198Y-93075035D01*
X198993834Y-93106797D01*
X198979410Y-93137293D01*
X198962068Y-93166227D01*
X198941972Y-93193323D01*
X198919318Y-93218318D01*
X198894323Y-93240972D01*
X198867227Y-93261068D01*
X198838293Y-93278410D01*
X198807797Y-93292834D01*
X198776035Y-93304198D01*
X198743312Y-93312395D01*
X198709943Y-93317345D01*
X198676250Y-93319000D01*
X197563750Y-93319000D01*
X197530057Y-93317345D01*
X197496688Y-93312395D01*
X197463965Y-93304198D01*
X197432203Y-93292834D01*
X197401707Y-93278410D01*
X197372773Y-93261068D01*
X197345677Y-93240972D01*
X197320682Y-93218318D01*
X197298028Y-93193323D01*
X197277932Y-93166227D01*
X197260590Y-93137293D01*
X197246166Y-93106797D01*
X197234802Y-93075035D01*
X197226605Y-93042312D01*
X197221655Y-93008943D01*
X197220000Y-92975250D01*
X197220000Y-92287750D01*
X197221655Y-92254057D01*
X197226605Y-92220688D01*
X197234802Y-92187965D01*
X197246166Y-92156203D01*
X197260590Y-92125707D01*
X197277932Y-92096773D01*
X197298028Y-92069677D01*
X197320682Y-92044682D01*
X197345677Y-92022028D01*
X197372773Y-92001932D01*
X197401707Y-91984590D01*
X197432203Y-91970166D01*
X197463965Y-91958802D01*
X197496688Y-91950605D01*
X197530057Y-91945655D01*
X197563750Y-91944000D01*
X198676250Y-91944000D01*
X198709943Y-91945655D01*
X198709943Y-91945655D01*
G37*
D16*
X198120000Y-92631500D03*
G04 #@! TD*
D25*
G04 #@! TO.C,SW1*
X205740000Y-99060000D03*
X205740000Y-90860000D03*
D26*
X205740000Y-96960000D03*
X205740000Y-94960000D03*
D27*
X205740000Y-92960000D03*
G04 #@! TD*
G04 #@! TO.C,SW2*
X193675000Y-104390000D03*
D26*
X193675000Y-106390000D03*
X193675000Y-108390000D03*
D25*
X193675000Y-102290000D03*
X193675000Y-110490000D03*
G04 #@! TD*
D28*
G04 #@! TO.C,U1*
X203708000Y-122936000D03*
D29*
X206248000Y-122936000D03*
X208788000Y-122936000D03*
G04 #@! TD*
M02*
