G04 #@! TF.GenerationSoftware,KiCad,Pcbnew,5.0.1*
G04 #@! TF.CreationDate,2018-12-14T16:44:58-08:00*
G04 #@! TF.ProjectId,fanpower,66616E706F7765722E6B696361645F70,rev?*
G04 #@! TF.SameCoordinates,Original*
G04 #@! TF.FileFunction,Legend,Bot*
G04 #@! TF.FilePolarity,Positive*
%FSLAX46Y46*%
G04 Gerber Fmt 4.6, Leading zero omitted, Abs format (unit mm)*
G04 Created by KiCad (PCBNEW 5.0.1) date Fri Dec 14 16:44:58 2018*
%MOMM*%
%LPD*%
G01*
G04 APERTURE LIST*
%ADD10C,0.120000*%
%ADD11C,0.150000*%
G04 APERTURE END LIST*
D10*
G04 #@! TO.C,A1*
X209804000Y-84970000D02*
G75*
G02X212464000Y-87630000I0J-2660000D01*
G01*
X186824000Y-87630000D02*
G75*
G02X189484000Y-84970000I2660000J0D01*
G01*
X189484000Y-123310000D02*
G75*
G02X186824000Y-120650000I0J2660000D01*
G01*
X212464000Y-120650000D02*
G75*
G02X209804000Y-123310000I-2660000J0D01*
G01*
X209804000Y-84970000D02*
X189484000Y-84970000D01*
X209804000Y-123310000D02*
X189484000Y-123310000D01*
X212464000Y-87630000D02*
X212464000Y-120650000D01*
X186824000Y-87630000D02*
X186824000Y-120650000D01*
X212594000Y-86590000D02*
X212594000Y-84840000D01*
X212594000Y-84840000D02*
X210844000Y-84840000D01*
X211174000Y-90070000D02*
X211174000Y-115670000D01*
X211174000Y-115670000D02*
X208434000Y-115670000D01*
X208434000Y-115670000D02*
X208434000Y-90070000D01*
X208434000Y-90070000D02*
X211174000Y-90070000D01*
X190854000Y-90070000D02*
X190854000Y-115670000D01*
X190854000Y-115670000D02*
X188114000Y-115670000D01*
X188114000Y-115670000D02*
X188114000Y-90070000D01*
X188114000Y-90070000D02*
X190854000Y-90070000D01*
D11*
X188928285Y-87034666D02*
X188452095Y-87034666D01*
X189023523Y-87320380D02*
X188690190Y-86320380D01*
X188356857Y-87320380D01*
X187499714Y-87320380D02*
X188071142Y-87320380D01*
X187785428Y-87320380D02*
X187785428Y-86320380D01*
X187880666Y-86463238D01*
X187975904Y-86558476D01*
X188071142Y-86606095D01*
G04 #@! TD*
M02*
