G04 #@! TF.GenerationSoftware,KiCad,Pcbnew,5.0.1*
G04 #@! TF.CreationDate,2018-12-14T16:44:58-08:00*
G04 #@! TF.ProjectId,fanpower,66616E706F7765722E6B696361645F70,rev?*
G04 #@! TF.SameCoordinates,Original*
G04 #@! TF.FileFunction,Legend,Top*
G04 #@! TF.FilePolarity,Positive*
%FSLAX46Y46*%
G04 Gerber Fmt 4.6, Leading zero omitted, Abs format (unit mm)*
G04 Created by KiCad (PCBNEW 5.0.1) date Fri Dec 14 16:44:58 2018*
%MOMM*%
%LPD*%
G01*
G04 APERTURE LIST*
%ADD10C,0.127000*%
%ADD11C,0.076200*%
%ADD12C,0.120000*%
%ADD13C,0.150000*%
G04 APERTURE END LIST*
D10*
X202202142Y-83614380D02*
X202250523Y-83566000D01*
X202347285Y-83517619D01*
X202589190Y-83517619D01*
X202685952Y-83566000D01*
X202734333Y-83614380D01*
X202782714Y-83711142D01*
X202782714Y-83807904D01*
X202734333Y-83953047D01*
X202153761Y-84533619D01*
X202782714Y-84533619D01*
X203411666Y-83517619D02*
X203508428Y-83517619D01*
X203605190Y-83566000D01*
X203653571Y-83614380D01*
X203701952Y-83711142D01*
X203750333Y-83904666D01*
X203750333Y-84146571D01*
X203701952Y-84340095D01*
X203653571Y-84436857D01*
X203605190Y-84485238D01*
X203508428Y-84533619D01*
X203411666Y-84533619D01*
X203314904Y-84485238D01*
X203266523Y-84436857D01*
X203218142Y-84340095D01*
X203169761Y-84146571D01*
X203169761Y-83904666D01*
X203218142Y-83711142D01*
X203266523Y-83614380D01*
X203314904Y-83566000D01*
X203411666Y-83517619D01*
X204717952Y-84533619D02*
X204137380Y-84533619D01*
X204427666Y-84533619D02*
X204427666Y-83517619D01*
X204330904Y-83662761D01*
X204234142Y-83759523D01*
X204137380Y-83807904D01*
X205298523Y-83953047D02*
X205201761Y-83904666D01*
X205153380Y-83856285D01*
X205105000Y-83759523D01*
X205105000Y-83711142D01*
X205153380Y-83614380D01*
X205201761Y-83566000D01*
X205298523Y-83517619D01*
X205492047Y-83517619D01*
X205588809Y-83566000D01*
X205637190Y-83614380D01*
X205685571Y-83711142D01*
X205685571Y-83759523D01*
X205637190Y-83856285D01*
X205588809Y-83904666D01*
X205492047Y-83953047D01*
X205298523Y-83953047D01*
X205201761Y-84001428D01*
X205153380Y-84049809D01*
X205105000Y-84146571D01*
X205105000Y-84340095D01*
X205153380Y-84436857D01*
X205201761Y-84485238D01*
X205298523Y-84533619D01*
X205492047Y-84533619D01*
X205588809Y-84485238D01*
X205637190Y-84436857D01*
X205685571Y-84340095D01*
X205685571Y-84146571D01*
X205637190Y-84049809D01*
X205588809Y-84001428D01*
X205492047Y-83953047D01*
X206121000Y-84146571D02*
X206895095Y-84146571D01*
X207911095Y-84533619D02*
X207330523Y-84533619D01*
X207620809Y-84533619D02*
X207620809Y-83517619D01*
X207524047Y-83662761D01*
X207427285Y-83759523D01*
X207330523Y-83807904D01*
X208298142Y-83614380D02*
X208346523Y-83566000D01*
X208443285Y-83517619D01*
X208685190Y-83517619D01*
X208781952Y-83566000D01*
X208830333Y-83614380D01*
X208878714Y-83711142D01*
X208878714Y-83807904D01*
X208830333Y-83953047D01*
X208249761Y-84533619D01*
X208878714Y-84533619D01*
X209314142Y-84146571D02*
X210088238Y-84146571D01*
X211104238Y-84533619D02*
X210523666Y-84533619D01*
X210813952Y-84533619D02*
X210813952Y-83517619D01*
X210717190Y-83662761D01*
X210620428Y-83759523D01*
X210523666Y-83807904D01*
X211975095Y-83856285D02*
X211975095Y-84533619D01*
X211733190Y-83469238D02*
X211491285Y-84194952D01*
X212120238Y-84194952D01*
X191207571Y-115521619D02*
X191207571Y-114505619D01*
X191788142Y-115521619D02*
X191352714Y-114941047D01*
X191788142Y-114505619D02*
X191207571Y-115086190D01*
X192659000Y-115521619D02*
X192659000Y-114989428D01*
X192610619Y-114892666D01*
X192513857Y-114844285D01*
X192320333Y-114844285D01*
X192223571Y-114892666D01*
X192659000Y-115473238D02*
X192562238Y-115521619D01*
X192320333Y-115521619D01*
X192223571Y-115473238D01*
X192175190Y-115376476D01*
X192175190Y-115279714D01*
X192223571Y-115182952D01*
X192320333Y-115134571D01*
X192562238Y-115134571D01*
X192659000Y-115086190D01*
X193142809Y-115521619D02*
X193142809Y-114844285D01*
X193142809Y-115037809D02*
X193191190Y-114941047D01*
X193239571Y-114892666D01*
X193336333Y-114844285D01*
X193433095Y-114844285D01*
X193916904Y-115521619D02*
X193820142Y-115473238D01*
X193771761Y-115424857D01*
X193723380Y-115328095D01*
X193723380Y-115037809D01*
X193771761Y-114941047D01*
X193820142Y-114892666D01*
X193916904Y-114844285D01*
X194062047Y-114844285D01*
X194158809Y-114892666D01*
X194207190Y-114941047D01*
X194255571Y-115037809D01*
X194255571Y-115328095D01*
X194207190Y-115424857D01*
X194158809Y-115473238D01*
X194062047Y-115521619D01*
X193916904Y-115521619D01*
X194836142Y-115521619D02*
X194739380Y-115473238D01*
X194691000Y-115376476D01*
X194691000Y-114505619D01*
X195997285Y-115521619D02*
X195997285Y-114505619D01*
X196577857Y-115521619D02*
X196142428Y-114941047D01*
X196577857Y-114505619D02*
X195997285Y-115086190D01*
X197013285Y-115521619D02*
X197013285Y-114844285D01*
X197013285Y-115037809D02*
X197061666Y-114941047D01*
X197110047Y-114892666D01*
X197206809Y-114844285D01*
X197303571Y-114844285D01*
X197642238Y-115521619D02*
X197642238Y-114844285D01*
X197642238Y-114505619D02*
X197593857Y-114554000D01*
X197642238Y-114602380D01*
X197690619Y-114554000D01*
X197642238Y-114505619D01*
X197642238Y-114602380D01*
X198029285Y-114844285D02*
X198561476Y-114844285D01*
X198029285Y-115521619D01*
X198561476Y-115521619D01*
X198948523Y-115521619D02*
X198948523Y-114505619D01*
X199045285Y-115134571D02*
X199335571Y-115521619D01*
X199335571Y-114844285D02*
X198948523Y-115231333D01*
X200206428Y-115521619D02*
X200206428Y-114989428D01*
X200158047Y-114892666D01*
X200061285Y-114844285D01*
X199867761Y-114844285D01*
X199771000Y-114892666D01*
X200206428Y-115473238D02*
X200109666Y-115521619D01*
X199867761Y-115521619D01*
X199771000Y-115473238D01*
X199722619Y-115376476D01*
X199722619Y-115279714D01*
X199771000Y-115182952D01*
X199867761Y-115134571D01*
X200109666Y-115134571D01*
X200206428Y-115086190D01*
D11*
X187166612Y-109011357D02*
X187402470Y-109011357D01*
X187275470Y-109156500D01*
X187329898Y-109156500D01*
X187366184Y-109174642D01*
X187384327Y-109192785D01*
X187402470Y-109229071D01*
X187402470Y-109319785D01*
X187384327Y-109356071D01*
X187366184Y-109374214D01*
X187329898Y-109392357D01*
X187221041Y-109392357D01*
X187184755Y-109374214D01*
X187166612Y-109356071D01*
X187511327Y-109011357D02*
X187638327Y-109392357D01*
X187765327Y-109011357D01*
X187856041Y-109011357D02*
X188091898Y-109011357D01*
X187964898Y-109156500D01*
X188019327Y-109156500D01*
X188055612Y-109174642D01*
X188073755Y-109192785D01*
X188091898Y-109229071D01*
X188091898Y-109319785D01*
X188073755Y-109356071D01*
X188055612Y-109374214D01*
X188019327Y-109392357D01*
X187910470Y-109392357D01*
X187874184Y-109374214D01*
X187856041Y-109356071D01*
X187293612Y-114109500D02*
X187257327Y-114091357D01*
X187202898Y-114091357D01*
X187148470Y-114109500D01*
X187112184Y-114145785D01*
X187094041Y-114182071D01*
X187075898Y-114254642D01*
X187075898Y-114309071D01*
X187094041Y-114381642D01*
X187112184Y-114417928D01*
X187148470Y-114454214D01*
X187202898Y-114472357D01*
X187239184Y-114472357D01*
X187293612Y-114454214D01*
X187311755Y-114436071D01*
X187311755Y-114309071D01*
X187239184Y-114309071D01*
X187475041Y-114472357D02*
X187475041Y-114091357D01*
X187692755Y-114472357D01*
X187692755Y-114091357D01*
X187874184Y-114472357D02*
X187874184Y-114091357D01*
X187964898Y-114091357D01*
X188019327Y-114109500D01*
X188055612Y-114145785D01*
X188073755Y-114182071D01*
X188091898Y-114254642D01*
X188091898Y-114309071D01*
X188073755Y-114381642D01*
X188055612Y-114417928D01*
X188019327Y-114454214D01*
X187964898Y-114472357D01*
X187874184Y-114472357D01*
X211413815Y-114109500D02*
X211377530Y-114091357D01*
X211323101Y-114091357D01*
X211268672Y-114109500D01*
X211232387Y-114145785D01*
X211214244Y-114182071D01*
X211196101Y-114254642D01*
X211196101Y-114309071D01*
X211214244Y-114381642D01*
X211232387Y-114417928D01*
X211268672Y-114454214D01*
X211323101Y-114472357D01*
X211359387Y-114472357D01*
X211413815Y-114454214D01*
X211431958Y-114436071D01*
X211431958Y-114309071D01*
X211359387Y-114309071D01*
X211595244Y-114472357D02*
X211595244Y-114091357D01*
X211812958Y-114472357D01*
X211812958Y-114091357D01*
X211994387Y-114472357D02*
X211994387Y-114091357D01*
X212085101Y-114091357D01*
X212139530Y-114109500D01*
X212175815Y-114145785D01*
X212193958Y-114182071D01*
X212212101Y-114254642D01*
X212212101Y-114309071D01*
X212193958Y-114381642D01*
X212175815Y-114417928D01*
X212139530Y-114454214D01*
X212085101Y-114472357D01*
X211994387Y-114472357D01*
X211214244Y-111787214D02*
X211504530Y-111787214D01*
X211359387Y-111932357D02*
X211359387Y-111642071D01*
X211867387Y-111551357D02*
X211685958Y-111551357D01*
X211667815Y-111732785D01*
X211685958Y-111714642D01*
X211722244Y-111696500D01*
X211812958Y-111696500D01*
X211849244Y-111714642D01*
X211867387Y-111732785D01*
X211885530Y-111769071D01*
X211885530Y-111859785D01*
X211867387Y-111896071D01*
X211849244Y-111914214D01*
X211812958Y-111932357D01*
X211722244Y-111932357D01*
X211685958Y-111914214D01*
X211667815Y-111896071D01*
X211994387Y-111551357D02*
X212121387Y-111932357D01*
X212248387Y-111551357D01*
D12*
G04 #@! TO.C,FLOW1*
X194965000Y-89455000D02*
X194965000Y-83485000D01*
X194965000Y-83485000D02*
X187345000Y-83485000D01*
X187345000Y-83485000D02*
X187345000Y-89455000D01*
X187345000Y-89455000D02*
X194965000Y-89455000D01*
X191655000Y-89445000D02*
X191655000Y-88695000D01*
X191655000Y-88695000D02*
X190655000Y-88695000D01*
X190655000Y-88695000D02*
X190655000Y-89445000D01*
X190655000Y-89445000D02*
X191655000Y-89445000D01*
X194955000Y-89445000D02*
X194955000Y-88695000D01*
X194955000Y-88695000D02*
X193155000Y-88695000D01*
X193155000Y-88695000D02*
X193155000Y-89445000D01*
X193155000Y-89445000D02*
X194955000Y-89445000D01*
X189155000Y-89445000D02*
X189155000Y-88695000D01*
X189155000Y-88695000D02*
X187355000Y-88695000D01*
X187355000Y-88695000D02*
X187355000Y-89445000D01*
X187355000Y-89445000D02*
X189155000Y-89445000D01*
X194955000Y-87195000D02*
X194205000Y-87195000D01*
X194205000Y-87195000D02*
X194205000Y-84245000D01*
X194205000Y-84245000D02*
X191155000Y-84245000D01*
X187355000Y-87195000D02*
X188105000Y-87195000D01*
X188105000Y-87195000D02*
X188105000Y-84245000D01*
X188105000Y-84245000D02*
X191155000Y-84245000D01*
X194005000Y-89745000D02*
X195255000Y-89745000D01*
X195255000Y-89745000D02*
X195255000Y-88495000D01*
G04 #@! TO.C,Q2*
X197868000Y-101544000D02*
X199328000Y-101544000D01*
X197868000Y-104704000D02*
X200028000Y-104704000D01*
X197868000Y-104704000D02*
X197868000Y-103774000D01*
X197868000Y-101544000D02*
X197868000Y-102474000D01*
G04 #@! TO.C,Q1*
X201944000Y-93274000D02*
X201944000Y-92344000D01*
X201944000Y-90114000D02*
X201944000Y-91044000D01*
X201944000Y-90114000D02*
X199784000Y-90114000D01*
X201944000Y-93274000D02*
X200484000Y-93274000D01*
G04 #@! TO.C,R9*
X206046000Y-102865422D02*
X206046000Y-103382578D01*
X207466000Y-102865422D02*
X207466000Y-103382578D01*
G04 #@! TO.C,R6*
X194258000Y-91435422D02*
X194258000Y-91952578D01*
X192838000Y-91435422D02*
X192838000Y-91952578D01*
G04 #@! TO.C,R7*
X204418000Y-103382578D02*
X204418000Y-102865422D01*
X202998000Y-103382578D02*
X202998000Y-102865422D01*
G04 #@! TO.C,R8*
X200966000Y-103382578D02*
X200966000Y-102865422D01*
X202386000Y-103382578D02*
X202386000Y-102865422D01*
G04 #@! TO.C,C1*
X202036618Y-113850478D02*
X202553774Y-113850478D01*
X202036618Y-115270478D02*
X202553774Y-115270478D01*
G04 #@! TO.C,C2*
X206363774Y-113850478D02*
X205846618Y-113850478D01*
X206363774Y-115270478D02*
X205846618Y-115270478D01*
G04 #@! TO.C,J2*
X189290000Y-117264000D02*
X188240000Y-117264000D01*
X188240000Y-118314000D02*
X188240000Y-117264000D01*
X197640000Y-123364000D02*
X197640000Y-132164000D01*
X197640000Y-132164000D02*
X188440000Y-132164000D01*
X194940000Y-117464000D02*
X197640000Y-117464000D01*
X197640000Y-117464000D02*
X197640000Y-119364000D01*
X188440000Y-132164000D02*
X188440000Y-117464000D01*
X188440000Y-117464000D02*
X191040000Y-117464000D01*
G04 #@! TO.C,NTC1*
X200346000Y-85665000D02*
X200346000Y-88325000D01*
X202946000Y-85665000D02*
X200346000Y-85665000D01*
X202946000Y-88325000D02*
X200346000Y-88325000D01*
X202946000Y-85665000D02*
X202946000Y-88325000D01*
X204216000Y-85665000D02*
X205546000Y-85665000D01*
X205546000Y-85665000D02*
X205546000Y-86995000D01*
G04 #@! TO.C,FAN1*
X198120000Y-98810000D02*
X198120000Y-99820000D01*
X193040000Y-98810000D02*
X198120000Y-98810000D01*
X193040000Y-99820000D02*
X193040000Y-98810000D01*
X191690000Y-99920000D02*
X191690000Y-93920000D01*
X201990000Y-99920000D02*
X191690000Y-99920000D01*
X201990000Y-93970000D02*
X201990000Y-99920000D01*
X198790000Y-93970000D02*
X201990000Y-93970000D01*
X191690000Y-93920000D02*
X197440000Y-93920000D01*
G04 #@! TO.C,FAN2*
X197405000Y-105350000D02*
X203155000Y-105350000D01*
X204505000Y-105400000D02*
X207705000Y-105400000D01*
X207705000Y-105400000D02*
X207705000Y-111350000D01*
X207705000Y-111350000D02*
X197405000Y-111350000D01*
X197405000Y-111350000D02*
X197405000Y-105350000D01*
X198755000Y-111250000D02*
X198755000Y-110240000D01*
X198755000Y-110240000D02*
X203835000Y-110240000D01*
X203835000Y-110240000D02*
X203835000Y-111250000D01*
G04 #@! TO.C,R1*
X208538578Y-86285000D02*
X208021422Y-86285000D01*
X208538578Y-87705000D02*
X208021422Y-87705000D01*
G04 #@! TO.C,R2*
X197743578Y-87705000D02*
X197226422Y-87705000D01*
X197743578Y-86285000D02*
X197226422Y-86285000D01*
G04 #@! TO.C,R4*
X196798000Y-91435422D02*
X196798000Y-91952578D01*
X195378000Y-91435422D02*
X195378000Y-91952578D01*
G04 #@! TO.C,R5*
X198830000Y-91435422D02*
X198830000Y-91952578D01*
X197410000Y-91435422D02*
X197410000Y-91952578D01*
D13*
G04 #@! TO.C,SW1*
X203440000Y-96960000D02*
X203440000Y-99260000D01*
X203440000Y-90660000D02*
X203440000Y-92860000D01*
X208040000Y-90660000D02*
X208040000Y-99260000D01*
G04 #@! TO.C,SW2*
X195975000Y-102090000D02*
X195975000Y-110690000D01*
X191375000Y-102090000D02*
X191375000Y-104290000D01*
X191375000Y-108390000D02*
X191375000Y-110690000D01*
D12*
G04 #@! TO.C,U1*
X200248000Y-123036000D02*
X200248000Y-125186000D01*
X200248000Y-125186000D02*
X202398000Y-125186000D01*
X200398000Y-116336000D02*
X200398000Y-125036000D01*
X200398000Y-125036000D02*
X212198000Y-125036000D01*
X212198000Y-125036000D02*
X212198000Y-116336000D01*
X212198000Y-116336000D02*
X200398000Y-116336000D01*
G04 #@! TO.C,FLOW1*
D13*
X195651666Y-84383571D02*
X195318333Y-84383571D01*
X195318333Y-84907380D02*
X195318333Y-83907380D01*
X195794523Y-83907380D01*
X196651666Y-84907380D02*
X196175476Y-84907380D01*
X196175476Y-83907380D01*
X197175476Y-83907380D02*
X197365952Y-83907380D01*
X197461190Y-83955000D01*
X197556428Y-84050238D01*
X197604047Y-84240714D01*
X197604047Y-84574047D01*
X197556428Y-84764523D01*
X197461190Y-84859761D01*
X197365952Y-84907380D01*
X197175476Y-84907380D01*
X197080238Y-84859761D01*
X196985000Y-84764523D01*
X196937380Y-84574047D01*
X196937380Y-84240714D01*
X196985000Y-84050238D01*
X197080238Y-83955000D01*
X197175476Y-83907380D01*
X197937380Y-83907380D02*
X198175476Y-84907380D01*
X198365952Y-84193095D01*
X198556428Y-84907380D01*
X198794523Y-83907380D01*
X199699285Y-84907380D02*
X199127857Y-84907380D01*
X199413571Y-84907380D02*
X199413571Y-83907380D01*
X199318333Y-84050238D01*
X199223095Y-84145476D01*
X199127857Y-84193095D01*
G04 #@! TO.C,Q2*
D11*
X199595619Y-101116190D02*
X199547238Y-101092000D01*
X199498857Y-101043619D01*
X199426285Y-100971047D01*
X199377904Y-100946857D01*
X199329523Y-100946857D01*
X199353714Y-101067809D02*
X199305333Y-101043619D01*
X199256952Y-100995238D01*
X199232761Y-100898476D01*
X199232761Y-100729142D01*
X199256952Y-100632380D01*
X199305333Y-100584000D01*
X199353714Y-100559809D01*
X199450476Y-100559809D01*
X199498857Y-100584000D01*
X199547238Y-100632380D01*
X199571428Y-100729142D01*
X199571428Y-100898476D01*
X199547238Y-100995238D01*
X199498857Y-101043619D01*
X199450476Y-101067809D01*
X199353714Y-101067809D01*
X199764952Y-100608190D02*
X199789142Y-100584000D01*
X199837523Y-100559809D01*
X199958476Y-100559809D01*
X200006857Y-100584000D01*
X200031047Y-100608190D01*
X200055238Y-100656571D01*
X200055238Y-100704952D01*
X200031047Y-100777523D01*
X199740761Y-101067809D01*
X200055238Y-101067809D01*
G04 #@! TO.C,Q1*
X200103619Y-89686190D02*
X200055238Y-89662000D01*
X200006857Y-89613619D01*
X199934285Y-89541047D01*
X199885904Y-89516857D01*
X199837523Y-89516857D01*
X199861714Y-89637809D02*
X199813333Y-89613619D01*
X199764952Y-89565238D01*
X199740761Y-89468476D01*
X199740761Y-89299142D01*
X199764952Y-89202380D01*
X199813333Y-89154000D01*
X199861714Y-89129809D01*
X199958476Y-89129809D01*
X200006857Y-89154000D01*
X200055238Y-89202380D01*
X200079428Y-89299142D01*
X200079428Y-89468476D01*
X200055238Y-89565238D01*
X200006857Y-89613619D01*
X199958476Y-89637809D01*
X199861714Y-89637809D01*
X200563238Y-89637809D02*
X200272952Y-89637809D01*
X200418095Y-89637809D02*
X200418095Y-89129809D01*
X200369714Y-89202380D01*
X200321333Y-89250761D01*
X200272952Y-89274952D01*
G04 #@! TO.C,R9*
X206985809Y-100922666D02*
X206743904Y-101092000D01*
X206985809Y-101212952D02*
X206477809Y-101212952D01*
X206477809Y-101019428D01*
X206502000Y-100971047D01*
X206526190Y-100946857D01*
X206574571Y-100922666D01*
X206647142Y-100922666D01*
X206695523Y-100946857D01*
X206719714Y-100971047D01*
X206743904Y-101019428D01*
X206743904Y-101212952D01*
X206985809Y-100680761D02*
X206985809Y-100584000D01*
X206961619Y-100535619D01*
X206937428Y-100511428D01*
X206864857Y-100463047D01*
X206768095Y-100438857D01*
X206574571Y-100438857D01*
X206526190Y-100463047D01*
X206502000Y-100487238D01*
X206477809Y-100535619D01*
X206477809Y-100632380D01*
X206502000Y-100680761D01*
X206526190Y-100704952D01*
X206574571Y-100729142D01*
X206695523Y-100729142D01*
X206743904Y-100704952D01*
X206768095Y-100680761D01*
X206792285Y-100632380D01*
X206792285Y-100535619D01*
X206768095Y-100487238D01*
X206743904Y-100463047D01*
X206695523Y-100438857D01*
G04 #@! TO.C,R6*
X195047809Y-90508666D02*
X194805904Y-90678000D01*
X195047809Y-90798952D02*
X194539809Y-90798952D01*
X194539809Y-90605428D01*
X194564000Y-90557047D01*
X194588190Y-90532857D01*
X194636571Y-90508666D01*
X194709142Y-90508666D01*
X194757523Y-90532857D01*
X194781714Y-90557047D01*
X194805904Y-90605428D01*
X194805904Y-90798952D01*
X194539809Y-90073238D02*
X194539809Y-90170000D01*
X194564000Y-90218380D01*
X194588190Y-90242571D01*
X194660761Y-90290952D01*
X194757523Y-90315142D01*
X194951047Y-90315142D01*
X194999428Y-90290952D01*
X195023619Y-90266761D01*
X195047809Y-90218380D01*
X195047809Y-90121619D01*
X195023619Y-90073238D01*
X194999428Y-90049047D01*
X194951047Y-90024857D01*
X194830095Y-90024857D01*
X194781714Y-90049047D01*
X194757523Y-90073238D01*
X194733333Y-90121619D01*
X194733333Y-90218380D01*
X194757523Y-90266761D01*
X194781714Y-90290952D01*
X194830095Y-90315142D01*
G04 #@! TO.C,R7*
X203937809Y-100922666D02*
X203695904Y-101092000D01*
X203937809Y-101212952D02*
X203429809Y-101212952D01*
X203429809Y-101019428D01*
X203454000Y-100971047D01*
X203478190Y-100946857D01*
X203526571Y-100922666D01*
X203599142Y-100922666D01*
X203647523Y-100946857D01*
X203671714Y-100971047D01*
X203695904Y-101019428D01*
X203695904Y-101212952D01*
X203429809Y-100753333D02*
X203429809Y-100414666D01*
X203937809Y-100632380D01*
G04 #@! TO.C,R8*
X201905809Y-100922666D02*
X201663904Y-101092000D01*
X201905809Y-101212952D02*
X201397809Y-101212952D01*
X201397809Y-101019428D01*
X201422000Y-100971047D01*
X201446190Y-100946857D01*
X201494571Y-100922666D01*
X201567142Y-100922666D01*
X201615523Y-100946857D01*
X201639714Y-100971047D01*
X201663904Y-101019428D01*
X201663904Y-101212952D01*
X201615523Y-100632380D02*
X201591333Y-100680761D01*
X201567142Y-100704952D01*
X201518761Y-100729142D01*
X201494571Y-100729142D01*
X201446190Y-100704952D01*
X201422000Y-100680761D01*
X201397809Y-100632380D01*
X201397809Y-100535619D01*
X201422000Y-100487238D01*
X201446190Y-100463047D01*
X201494571Y-100438857D01*
X201518761Y-100438857D01*
X201567142Y-100463047D01*
X201591333Y-100487238D01*
X201615523Y-100535619D01*
X201615523Y-100632380D01*
X201639714Y-100680761D01*
X201663904Y-100704952D01*
X201712285Y-100729142D01*
X201809047Y-100729142D01*
X201857428Y-100704952D01*
X201881619Y-100680761D01*
X201905809Y-100632380D01*
X201905809Y-100535619D01*
X201881619Y-100487238D01*
X201857428Y-100463047D01*
X201809047Y-100438857D01*
X201712285Y-100438857D01*
X201663904Y-100463047D01*
X201639714Y-100487238D01*
X201615523Y-100535619D01*
G04 #@! TO.C,C1*
X202210529Y-113465428D02*
X202186338Y-113489619D01*
X202113767Y-113513809D01*
X202065386Y-113513809D01*
X201992815Y-113489619D01*
X201944434Y-113441238D01*
X201920243Y-113392857D01*
X201896053Y-113296095D01*
X201896053Y-113223523D01*
X201920243Y-113126761D01*
X201944434Y-113078380D01*
X201992815Y-113030000D01*
X202065386Y-113005809D01*
X202113767Y-113005809D01*
X202186338Y-113030000D01*
X202210529Y-113054190D01*
X202694338Y-113513809D02*
X202404053Y-113513809D01*
X202549196Y-113513809D02*
X202549196Y-113005809D01*
X202500815Y-113078380D01*
X202452434Y-113126761D01*
X202404053Y-113150952D01*
G04 #@! TO.C,C2*
X205909333Y-113465428D02*
X205885142Y-113489619D01*
X205812571Y-113513809D01*
X205764190Y-113513809D01*
X205691619Y-113489619D01*
X205643238Y-113441238D01*
X205619047Y-113392857D01*
X205594857Y-113296095D01*
X205594857Y-113223523D01*
X205619047Y-113126761D01*
X205643238Y-113078380D01*
X205691619Y-113030000D01*
X205764190Y-113005809D01*
X205812571Y-113005809D01*
X205885142Y-113030000D01*
X205909333Y-113054190D01*
X206102857Y-113054190D02*
X206127047Y-113030000D01*
X206175428Y-113005809D01*
X206296380Y-113005809D01*
X206344761Y-113030000D01*
X206368952Y-113054190D01*
X206393142Y-113102571D01*
X206393142Y-113150952D01*
X206368952Y-113223523D01*
X206078666Y-113513809D01*
X206393142Y-113513809D01*
G04 #@! TO.C,J2*
X187427809Y-126661333D02*
X187790666Y-126661333D01*
X187863238Y-126685523D01*
X187911619Y-126733904D01*
X187935809Y-126806476D01*
X187935809Y-126854857D01*
X187476190Y-126443619D02*
X187452000Y-126419428D01*
X187427809Y-126371047D01*
X187427809Y-126250095D01*
X187452000Y-126201714D01*
X187476190Y-126177523D01*
X187524571Y-126153333D01*
X187572952Y-126153333D01*
X187645523Y-126177523D01*
X187935809Y-126467809D01*
X187935809Y-126153333D01*
G04 #@! TO.C,NTC1*
D13*
X205748142Y-86050380D02*
X205748142Y-85050380D01*
X206319571Y-86050380D01*
X206319571Y-85050380D01*
X206652904Y-85050380D02*
X207224333Y-85050380D01*
X206938619Y-86050380D02*
X206938619Y-85050380D01*
X208129095Y-85955142D02*
X208081476Y-86002761D01*
X207938619Y-86050380D01*
X207843380Y-86050380D01*
X207700523Y-86002761D01*
X207605285Y-85907523D01*
X207557666Y-85812285D01*
X207510047Y-85621809D01*
X207510047Y-85478952D01*
X207557666Y-85288476D01*
X207605285Y-85193238D01*
X207700523Y-85098000D01*
X207843380Y-85050380D01*
X207938619Y-85050380D01*
X208081476Y-85098000D01*
X208129095Y-85145619D01*
X209081476Y-86050380D02*
X208510047Y-86050380D01*
X208795761Y-86050380D02*
X208795761Y-85050380D01*
X208700523Y-85193238D01*
X208605285Y-85288476D01*
X208510047Y-85336095D01*
G04 #@! TO.C,FAN1*
X191698571Y-93233714D02*
X191698571Y-93567047D01*
X192222380Y-93567047D02*
X191222380Y-93567047D01*
X191222380Y-93090857D01*
X191936666Y-92757523D02*
X191936666Y-92281333D01*
X192222380Y-92852761D02*
X191222380Y-92519428D01*
X192222380Y-92186095D01*
X192222380Y-91852761D02*
X191222380Y-91852761D01*
X192222380Y-91281333D01*
X191222380Y-91281333D01*
X192222380Y-90281333D02*
X192222380Y-90852761D01*
X192222380Y-90567047D02*
X191222380Y-90567047D01*
X191365238Y-90662285D01*
X191460476Y-90757523D01*
X191508095Y-90852761D01*
G04 #@! TO.C,FAN2*
X196326285Y-112196571D02*
X195992952Y-112196571D01*
X195992952Y-112720380D02*
X195992952Y-111720380D01*
X196469142Y-111720380D01*
X196802476Y-112434666D02*
X197278666Y-112434666D01*
X196707238Y-112720380D02*
X197040571Y-111720380D01*
X197373904Y-112720380D01*
X197707238Y-112720380D02*
X197707238Y-111720380D01*
X198278666Y-112720380D01*
X198278666Y-111720380D01*
X198707238Y-111815619D02*
X198754857Y-111768000D01*
X198850095Y-111720380D01*
X199088190Y-111720380D01*
X199183428Y-111768000D01*
X199231047Y-111815619D01*
X199278666Y-111910857D01*
X199278666Y-112006095D01*
X199231047Y-112148952D01*
X198659619Y-112720380D01*
X199278666Y-112720380D01*
G04 #@! TO.C,R1*
D11*
X209465333Y-88621809D02*
X209296000Y-88379904D01*
X209175047Y-88621809D02*
X209175047Y-88113809D01*
X209368571Y-88113809D01*
X209416952Y-88138000D01*
X209441142Y-88162190D01*
X209465333Y-88210571D01*
X209465333Y-88283142D01*
X209441142Y-88331523D01*
X209416952Y-88355714D01*
X209368571Y-88379904D01*
X209175047Y-88379904D01*
X209949142Y-88621809D02*
X209658857Y-88621809D01*
X209804000Y-88621809D02*
X209804000Y-88113809D01*
X209755619Y-88186380D01*
X209707238Y-88234761D01*
X209658857Y-88258952D01*
G04 #@! TO.C,R2*
X196003333Y-88621809D02*
X195834000Y-88379904D01*
X195713047Y-88621809D02*
X195713047Y-88113809D01*
X195906571Y-88113809D01*
X195954952Y-88138000D01*
X195979142Y-88162190D01*
X196003333Y-88210571D01*
X196003333Y-88283142D01*
X195979142Y-88331523D01*
X195954952Y-88355714D01*
X195906571Y-88379904D01*
X195713047Y-88379904D01*
X196196857Y-88162190D02*
X196221047Y-88138000D01*
X196269428Y-88113809D01*
X196390380Y-88113809D01*
X196438761Y-88138000D01*
X196462952Y-88162190D01*
X196487142Y-88210571D01*
X196487142Y-88258952D01*
X196462952Y-88331523D01*
X196172666Y-88621809D01*
X196487142Y-88621809D01*
G04 #@! TO.C,R4*
X196317809Y-89492666D02*
X196075904Y-89662000D01*
X196317809Y-89782952D02*
X195809809Y-89782952D01*
X195809809Y-89589428D01*
X195834000Y-89541047D01*
X195858190Y-89516857D01*
X195906571Y-89492666D01*
X195979142Y-89492666D01*
X196027523Y-89516857D01*
X196051714Y-89541047D01*
X196075904Y-89589428D01*
X196075904Y-89782952D01*
X195979142Y-89057238D02*
X196317809Y-89057238D01*
X195785619Y-89178190D02*
X196148476Y-89299142D01*
X196148476Y-88984666D01*
G04 #@! TO.C,R5*
X198349809Y-89492666D02*
X198107904Y-89662000D01*
X198349809Y-89782952D02*
X197841809Y-89782952D01*
X197841809Y-89589428D01*
X197866000Y-89541047D01*
X197890190Y-89516857D01*
X197938571Y-89492666D01*
X198011142Y-89492666D01*
X198059523Y-89516857D01*
X198083714Y-89541047D01*
X198107904Y-89589428D01*
X198107904Y-89782952D01*
X197841809Y-89033047D02*
X197841809Y-89274952D01*
X198083714Y-89299142D01*
X198059523Y-89274952D01*
X198035333Y-89226571D01*
X198035333Y-89105619D01*
X198059523Y-89057238D01*
X198083714Y-89033047D01*
X198132095Y-89008857D01*
X198253047Y-89008857D01*
X198301428Y-89033047D01*
X198325619Y-89057238D01*
X198349809Y-89105619D01*
X198349809Y-89226571D01*
X198325619Y-89274952D01*
X198301428Y-89299142D01*
G04 #@! TO.C,SW1*
D13*
X204406666Y-89304761D02*
X204549523Y-89352380D01*
X204787619Y-89352380D01*
X204882857Y-89304761D01*
X204930476Y-89257142D01*
X204978095Y-89161904D01*
X204978095Y-89066666D01*
X204930476Y-88971428D01*
X204882857Y-88923809D01*
X204787619Y-88876190D01*
X204597142Y-88828571D01*
X204501904Y-88780952D01*
X204454285Y-88733333D01*
X204406666Y-88638095D01*
X204406666Y-88542857D01*
X204454285Y-88447619D01*
X204501904Y-88400000D01*
X204597142Y-88352380D01*
X204835238Y-88352380D01*
X204978095Y-88400000D01*
X205311428Y-88352380D02*
X205549523Y-89352380D01*
X205740000Y-88638095D01*
X205930476Y-89352380D01*
X206168571Y-88352380D01*
X207073333Y-89352380D02*
X206501904Y-89352380D01*
X206787619Y-89352380D02*
X206787619Y-88352380D01*
X206692380Y-88495238D01*
X206597142Y-88590476D01*
X206501904Y-88638095D01*
G04 #@! TO.C,SW2*
X192214666Y-113688761D02*
X192357523Y-113736380D01*
X192595619Y-113736380D01*
X192690857Y-113688761D01*
X192738476Y-113641142D01*
X192786095Y-113545904D01*
X192786095Y-113450666D01*
X192738476Y-113355428D01*
X192690857Y-113307809D01*
X192595619Y-113260190D01*
X192405142Y-113212571D01*
X192309904Y-113164952D01*
X192262285Y-113117333D01*
X192214666Y-113022095D01*
X192214666Y-112926857D01*
X192262285Y-112831619D01*
X192309904Y-112784000D01*
X192405142Y-112736380D01*
X192643238Y-112736380D01*
X192786095Y-112784000D01*
X193119428Y-112736380D02*
X193357523Y-113736380D01*
X193548000Y-113022095D01*
X193738476Y-113736380D01*
X193976571Y-112736380D01*
X194309904Y-112831619D02*
X194357523Y-112784000D01*
X194452761Y-112736380D01*
X194690857Y-112736380D01*
X194786095Y-112784000D01*
X194833714Y-112831619D01*
X194881333Y-112926857D01*
X194881333Y-113022095D01*
X194833714Y-113164952D01*
X194262285Y-113736380D01*
X194881333Y-113736380D01*
G04 #@! TO.C,U1*
D11*
X199365809Y-117481047D02*
X199777047Y-117481047D01*
X199825428Y-117456857D01*
X199849619Y-117432666D01*
X199873809Y-117384285D01*
X199873809Y-117287523D01*
X199849619Y-117239142D01*
X199825428Y-117214952D01*
X199777047Y-117190761D01*
X199365809Y-117190761D01*
X199873809Y-116682761D02*
X199873809Y-116973047D01*
X199873809Y-116827904D02*
X199365809Y-116827904D01*
X199438380Y-116876285D01*
X199486761Y-116924666D01*
X199510952Y-116973047D01*
G04 #@! TD*
M02*
