G04 #@! TF.GenerationSoftware,KiCad,Pcbnew,5.0.1*
G04 #@! TF.CreationDate,2018-12-14T16:44:58-08:00*
G04 #@! TF.ProjectId,fanpower,66616E706F7765722E6B696361645F70,rev?*
G04 #@! TF.SameCoordinates,Original*
G04 #@! TF.FileFunction,Copper,L1,Top,Signal*
G04 #@! TF.FilePolarity,Positive*
%FSLAX46Y46*%
G04 Gerber Fmt 4.6, Leading zero omitted, Abs format (unit mm)*
G04 Created by KiCad (PCBNEW 5.0.1) date Fri Dec 14 16:44:58 2018*
%MOMM*%
%LPD*%
G01*
G04 APERTURE LIST*
G04 #@! TA.AperFunction,ComponentPad*
%ADD10R,1.700000X2.000000*%
G04 #@! TD*
G04 #@! TA.AperFunction,ComponentPad*
%ADD11O,1.700000X2.000000*%
G04 #@! TD*
G04 #@! TA.AperFunction,SMDPad,CuDef*
%ADD12R,0.900000X0.800000*%
G04 #@! TD*
G04 #@! TA.AperFunction,ComponentPad*
%ADD13R,2.100000X1.900000*%
G04 #@! TD*
G04 #@! TA.AperFunction,ComponentPad*
%ADD14O,2.100000X1.900000*%
G04 #@! TD*
G04 #@! TA.AperFunction,Conductor*
%ADD15C,0.100000*%
G04 #@! TD*
G04 #@! TA.AperFunction,SMDPad,CuDef*
%ADD16C,0.975000*%
G04 #@! TD*
G04 #@! TA.AperFunction,ComponentPad*
%ADD17R,3.500000X3.500000*%
G04 #@! TD*
G04 #@! TA.AperFunction,ComponentPad*
%ADD18C,3.000000*%
G04 #@! TD*
G04 #@! TA.AperFunction,ComponentPad*
%ADD19C,3.500000*%
G04 #@! TD*
G04 #@! TA.AperFunction,ComponentPad*
%ADD20R,1.700000X1.700000*%
G04 #@! TD*
G04 #@! TA.AperFunction,ComponentPad*
%ADD21O,1.700000X1.700000*%
G04 #@! TD*
G04 #@! TA.AperFunction,ComponentPad*
%ADD22O,1.730000X2.030000*%
G04 #@! TD*
G04 #@! TA.AperFunction,ComponentPad*
%ADD23R,1.730000X2.030000*%
G04 #@! TD*
G04 #@! TA.AperFunction,ComponentPad*
%ADD24O,3.500000X2.200000*%
G04 #@! TD*
G04 #@! TA.AperFunction,ComponentPad*
%ADD25O,2.500000X1.500000*%
G04 #@! TD*
G04 #@! TA.AperFunction,ComponentPad*
%ADD26R,2.500000X1.500000*%
G04 #@! TD*
G04 #@! TA.AperFunction,ComponentPad*
%ADD27R,1.500000X2.500000*%
G04 #@! TD*
G04 #@! TA.AperFunction,ComponentPad*
%ADD28O,1.500000X2.500000*%
G04 #@! TD*
G04 #@! TA.AperFunction,ViaPad*
%ADD29C,0.800000*%
G04 #@! TD*
G04 #@! TA.AperFunction,Conductor*
%ADD30C,0.250000*%
G04 #@! TD*
G04 #@! TA.AperFunction,Conductor*
%ADD31C,0.508000*%
G04 #@! TD*
G04 APERTURE END LIST*
D10*
G04 #@! TO.P,FLOW1,1*
G04 #@! TO.N,/FLOW*
X192405000Y-86995000D03*
D11*
G04 #@! TO.P,FLOW1,2*
G04 #@! TO.N,GND*
X189905000Y-86995000D03*
G04 #@! TD*
D12*
G04 #@! TO.P,Q2,3*
G04 #@! TO.N,Net-(Q2-Pad3)*
X197628000Y-103124000D03*
G04 #@! TO.P,Q2,2*
G04 #@! TO.N,GND*
X199628000Y-102174000D03*
G04 #@! TO.P,Q2,1*
G04 #@! TO.N,Net-(Q2-Pad1)*
X199628000Y-104074000D03*
G04 #@! TD*
G04 #@! TO.P,Q1,1*
G04 #@! TO.N,Net-(Q1-Pad1)*
X200184000Y-90744000D03*
G04 #@! TO.P,Q1,2*
G04 #@! TO.N,GND*
X200184000Y-92644000D03*
G04 #@! TO.P,Q1,3*
G04 #@! TO.N,Net-(Q1-Pad3)*
X202184000Y-91694000D03*
G04 #@! TD*
D13*
G04 #@! TO.P,A1,1*
G04 #@! TO.N,Net-(A1-Pad1)*
X209804000Y-91440000D03*
D14*
G04 #@! TO.P,A1,20*
G04 #@! TO.N,Net-(A1-Pad20)*
X189484000Y-91440000D03*
G04 #@! TO.P,A1,2*
G04 #@! TO.N,/NTC*
X209804000Y-93980000D03*
G04 #@! TO.P,A1,19*
G04 #@! TO.N,Net-(A1-Pad19)*
X189484000Y-93980000D03*
G04 #@! TO.P,A1,3*
G04 #@! TO.N,Net-(A1-Pad3)*
X209804000Y-96520000D03*
G04 #@! TO.P,A1,18*
G04 #@! TO.N,/SIGON1*
X189484000Y-96520000D03*
G04 #@! TO.P,A1,4*
G04 #@! TO.N,Net-(A1-Pad4)*
X209804000Y-99060000D03*
G04 #@! TO.P,A1,17*
G04 #@! TO.N,/SIGTACH1*
X189484000Y-99060000D03*
G04 #@! TO.P,A1,5*
G04 #@! TO.N,/SIGON2*
X209804000Y-101600000D03*
G04 #@! TO.P,A1,16*
G04 #@! TO.N,/SIGPWM1*
X189484000Y-101600000D03*
G04 #@! TO.P,A1,6*
G04 #@! TO.N,/SIGTACH2*
X209804000Y-104140000D03*
G04 #@! TO.P,A1,15*
G04 #@! TO.N,/SIGPWM2*
X189484000Y-104140000D03*
G04 #@! TO.P,A1,7*
G04 #@! TO.N,/FLOW*
X209804000Y-106680000D03*
G04 #@! TO.P,A1,14*
G04 #@! TO.N,Net-(A1-Pad14)*
X189484000Y-106680000D03*
G04 #@! TO.P,A1,8*
G04 #@! TO.N,Net-(A1-Pad8)*
X209804000Y-109220000D03*
G04 #@! TO.P,A1,13*
G04 #@! TO.N,+3V3*
X189484000Y-109220000D03*
G04 #@! TO.P,A1,9*
G04 #@! TO.N,+5V*
X209804000Y-111760000D03*
G04 #@! TO.P,A1,12*
G04 #@! TO.N,Net-(A1-Pad12)*
X189484000Y-111760000D03*
G04 #@! TO.P,A1,10*
G04 #@! TO.N,GND*
X209804000Y-114300000D03*
G04 #@! TO.P,A1,11*
X189484000Y-114300000D03*
G04 #@! TD*
D15*
G04 #@! TO.N,/SIGTACH2*
G04 #@! TO.C,R9*
G36*
X207236142Y-103575174D02*
X207259803Y-103578684D01*
X207283007Y-103584496D01*
X207305529Y-103592554D01*
X207327153Y-103602782D01*
X207347670Y-103615079D01*
X207366883Y-103629329D01*
X207384607Y-103645393D01*
X207400671Y-103663117D01*
X207414921Y-103682330D01*
X207427218Y-103702847D01*
X207437446Y-103724471D01*
X207445504Y-103746993D01*
X207451316Y-103770197D01*
X207454826Y-103793858D01*
X207456000Y-103817750D01*
X207456000Y-104305250D01*
X207454826Y-104329142D01*
X207451316Y-104352803D01*
X207445504Y-104376007D01*
X207437446Y-104398529D01*
X207427218Y-104420153D01*
X207414921Y-104440670D01*
X207400671Y-104459883D01*
X207384607Y-104477607D01*
X207366883Y-104493671D01*
X207347670Y-104507921D01*
X207327153Y-104520218D01*
X207305529Y-104530446D01*
X207283007Y-104538504D01*
X207259803Y-104544316D01*
X207236142Y-104547826D01*
X207212250Y-104549000D01*
X206299750Y-104549000D01*
X206275858Y-104547826D01*
X206252197Y-104544316D01*
X206228993Y-104538504D01*
X206206471Y-104530446D01*
X206184847Y-104520218D01*
X206164330Y-104507921D01*
X206145117Y-104493671D01*
X206127393Y-104477607D01*
X206111329Y-104459883D01*
X206097079Y-104440670D01*
X206084782Y-104420153D01*
X206074554Y-104398529D01*
X206066496Y-104376007D01*
X206060684Y-104352803D01*
X206057174Y-104329142D01*
X206056000Y-104305250D01*
X206056000Y-103817750D01*
X206057174Y-103793858D01*
X206060684Y-103770197D01*
X206066496Y-103746993D01*
X206074554Y-103724471D01*
X206084782Y-103702847D01*
X206097079Y-103682330D01*
X206111329Y-103663117D01*
X206127393Y-103645393D01*
X206145117Y-103629329D01*
X206164330Y-103615079D01*
X206184847Y-103602782D01*
X206206471Y-103592554D01*
X206228993Y-103584496D01*
X206252197Y-103578684D01*
X206275858Y-103575174D01*
X206299750Y-103574000D01*
X207212250Y-103574000D01*
X207236142Y-103575174D01*
X207236142Y-103575174D01*
G37*
D16*
G04 #@! TD*
G04 #@! TO.P,R9,2*
G04 #@! TO.N,/SIGTACH2*
X206756000Y-104061500D03*
D15*
G04 #@! TO.N,+3V3*
G04 #@! TO.C,R9*
G36*
X207236142Y-101700174D02*
X207259803Y-101703684D01*
X207283007Y-101709496D01*
X207305529Y-101717554D01*
X207327153Y-101727782D01*
X207347670Y-101740079D01*
X207366883Y-101754329D01*
X207384607Y-101770393D01*
X207400671Y-101788117D01*
X207414921Y-101807330D01*
X207427218Y-101827847D01*
X207437446Y-101849471D01*
X207445504Y-101871993D01*
X207451316Y-101895197D01*
X207454826Y-101918858D01*
X207456000Y-101942750D01*
X207456000Y-102430250D01*
X207454826Y-102454142D01*
X207451316Y-102477803D01*
X207445504Y-102501007D01*
X207437446Y-102523529D01*
X207427218Y-102545153D01*
X207414921Y-102565670D01*
X207400671Y-102584883D01*
X207384607Y-102602607D01*
X207366883Y-102618671D01*
X207347670Y-102632921D01*
X207327153Y-102645218D01*
X207305529Y-102655446D01*
X207283007Y-102663504D01*
X207259803Y-102669316D01*
X207236142Y-102672826D01*
X207212250Y-102674000D01*
X206299750Y-102674000D01*
X206275858Y-102672826D01*
X206252197Y-102669316D01*
X206228993Y-102663504D01*
X206206471Y-102655446D01*
X206184847Y-102645218D01*
X206164330Y-102632921D01*
X206145117Y-102618671D01*
X206127393Y-102602607D01*
X206111329Y-102584883D01*
X206097079Y-102565670D01*
X206084782Y-102545153D01*
X206074554Y-102523529D01*
X206066496Y-102501007D01*
X206060684Y-102477803D01*
X206057174Y-102454142D01*
X206056000Y-102430250D01*
X206056000Y-101942750D01*
X206057174Y-101918858D01*
X206060684Y-101895197D01*
X206066496Y-101871993D01*
X206074554Y-101849471D01*
X206084782Y-101827847D01*
X206097079Y-101807330D01*
X206111329Y-101788117D01*
X206127393Y-101770393D01*
X206145117Y-101754329D01*
X206164330Y-101740079D01*
X206184847Y-101727782D01*
X206206471Y-101717554D01*
X206228993Y-101709496D01*
X206252197Y-101703684D01*
X206275858Y-101700174D01*
X206299750Y-101699000D01*
X207212250Y-101699000D01*
X207236142Y-101700174D01*
X207236142Y-101700174D01*
G37*
D16*
G04 #@! TD*
G04 #@! TO.P,R9,1*
G04 #@! TO.N,+3V3*
X206756000Y-102186500D03*
D15*
G04 #@! TO.N,+3V3*
G04 #@! TO.C,R6*
G36*
X194028142Y-90270174D02*
X194051803Y-90273684D01*
X194075007Y-90279496D01*
X194097529Y-90287554D01*
X194119153Y-90297782D01*
X194139670Y-90310079D01*
X194158883Y-90324329D01*
X194176607Y-90340393D01*
X194192671Y-90358117D01*
X194206921Y-90377330D01*
X194219218Y-90397847D01*
X194229446Y-90419471D01*
X194237504Y-90441993D01*
X194243316Y-90465197D01*
X194246826Y-90488858D01*
X194248000Y-90512750D01*
X194248000Y-91000250D01*
X194246826Y-91024142D01*
X194243316Y-91047803D01*
X194237504Y-91071007D01*
X194229446Y-91093529D01*
X194219218Y-91115153D01*
X194206921Y-91135670D01*
X194192671Y-91154883D01*
X194176607Y-91172607D01*
X194158883Y-91188671D01*
X194139670Y-91202921D01*
X194119153Y-91215218D01*
X194097529Y-91225446D01*
X194075007Y-91233504D01*
X194051803Y-91239316D01*
X194028142Y-91242826D01*
X194004250Y-91244000D01*
X193091750Y-91244000D01*
X193067858Y-91242826D01*
X193044197Y-91239316D01*
X193020993Y-91233504D01*
X192998471Y-91225446D01*
X192976847Y-91215218D01*
X192956330Y-91202921D01*
X192937117Y-91188671D01*
X192919393Y-91172607D01*
X192903329Y-91154883D01*
X192889079Y-91135670D01*
X192876782Y-91115153D01*
X192866554Y-91093529D01*
X192858496Y-91071007D01*
X192852684Y-91047803D01*
X192849174Y-91024142D01*
X192848000Y-91000250D01*
X192848000Y-90512750D01*
X192849174Y-90488858D01*
X192852684Y-90465197D01*
X192858496Y-90441993D01*
X192866554Y-90419471D01*
X192876782Y-90397847D01*
X192889079Y-90377330D01*
X192903329Y-90358117D01*
X192919393Y-90340393D01*
X192937117Y-90324329D01*
X192956330Y-90310079D01*
X192976847Y-90297782D01*
X192998471Y-90287554D01*
X193020993Y-90279496D01*
X193044197Y-90273684D01*
X193067858Y-90270174D01*
X193091750Y-90269000D01*
X194004250Y-90269000D01*
X194028142Y-90270174D01*
X194028142Y-90270174D01*
G37*
D16*
G04 #@! TD*
G04 #@! TO.P,R6,1*
G04 #@! TO.N,+3V3*
X193548000Y-90756500D03*
D15*
G04 #@! TO.N,/SIGTACH1*
G04 #@! TO.C,R6*
G36*
X194028142Y-92145174D02*
X194051803Y-92148684D01*
X194075007Y-92154496D01*
X194097529Y-92162554D01*
X194119153Y-92172782D01*
X194139670Y-92185079D01*
X194158883Y-92199329D01*
X194176607Y-92215393D01*
X194192671Y-92233117D01*
X194206921Y-92252330D01*
X194219218Y-92272847D01*
X194229446Y-92294471D01*
X194237504Y-92316993D01*
X194243316Y-92340197D01*
X194246826Y-92363858D01*
X194248000Y-92387750D01*
X194248000Y-92875250D01*
X194246826Y-92899142D01*
X194243316Y-92922803D01*
X194237504Y-92946007D01*
X194229446Y-92968529D01*
X194219218Y-92990153D01*
X194206921Y-93010670D01*
X194192671Y-93029883D01*
X194176607Y-93047607D01*
X194158883Y-93063671D01*
X194139670Y-93077921D01*
X194119153Y-93090218D01*
X194097529Y-93100446D01*
X194075007Y-93108504D01*
X194051803Y-93114316D01*
X194028142Y-93117826D01*
X194004250Y-93119000D01*
X193091750Y-93119000D01*
X193067858Y-93117826D01*
X193044197Y-93114316D01*
X193020993Y-93108504D01*
X192998471Y-93100446D01*
X192976847Y-93090218D01*
X192956330Y-93077921D01*
X192937117Y-93063671D01*
X192919393Y-93047607D01*
X192903329Y-93029883D01*
X192889079Y-93010670D01*
X192876782Y-92990153D01*
X192866554Y-92968529D01*
X192858496Y-92946007D01*
X192852684Y-92922803D01*
X192849174Y-92899142D01*
X192848000Y-92875250D01*
X192848000Y-92387750D01*
X192849174Y-92363858D01*
X192852684Y-92340197D01*
X192858496Y-92316993D01*
X192866554Y-92294471D01*
X192876782Y-92272847D01*
X192889079Y-92252330D01*
X192903329Y-92233117D01*
X192919393Y-92215393D01*
X192937117Y-92199329D01*
X192956330Y-92185079D01*
X192976847Y-92172782D01*
X192998471Y-92162554D01*
X193020993Y-92154496D01*
X193044197Y-92148684D01*
X193067858Y-92145174D01*
X193091750Y-92144000D01*
X194004250Y-92144000D01*
X194028142Y-92145174D01*
X194028142Y-92145174D01*
G37*
D16*
G04 #@! TD*
G04 #@! TO.P,R6,2*
G04 #@! TO.N,/SIGTACH1*
X193548000Y-92631500D03*
D15*
G04 #@! TO.N,/SIGON2*
G04 #@! TO.C,R7*
G36*
X204188142Y-101700174D02*
X204211803Y-101703684D01*
X204235007Y-101709496D01*
X204257529Y-101717554D01*
X204279153Y-101727782D01*
X204299670Y-101740079D01*
X204318883Y-101754329D01*
X204336607Y-101770393D01*
X204352671Y-101788117D01*
X204366921Y-101807330D01*
X204379218Y-101827847D01*
X204389446Y-101849471D01*
X204397504Y-101871993D01*
X204403316Y-101895197D01*
X204406826Y-101918858D01*
X204408000Y-101942750D01*
X204408000Y-102430250D01*
X204406826Y-102454142D01*
X204403316Y-102477803D01*
X204397504Y-102501007D01*
X204389446Y-102523529D01*
X204379218Y-102545153D01*
X204366921Y-102565670D01*
X204352671Y-102584883D01*
X204336607Y-102602607D01*
X204318883Y-102618671D01*
X204299670Y-102632921D01*
X204279153Y-102645218D01*
X204257529Y-102655446D01*
X204235007Y-102663504D01*
X204211803Y-102669316D01*
X204188142Y-102672826D01*
X204164250Y-102674000D01*
X203251750Y-102674000D01*
X203227858Y-102672826D01*
X203204197Y-102669316D01*
X203180993Y-102663504D01*
X203158471Y-102655446D01*
X203136847Y-102645218D01*
X203116330Y-102632921D01*
X203097117Y-102618671D01*
X203079393Y-102602607D01*
X203063329Y-102584883D01*
X203049079Y-102565670D01*
X203036782Y-102545153D01*
X203026554Y-102523529D01*
X203018496Y-102501007D01*
X203012684Y-102477803D01*
X203009174Y-102454142D01*
X203008000Y-102430250D01*
X203008000Y-101942750D01*
X203009174Y-101918858D01*
X203012684Y-101895197D01*
X203018496Y-101871993D01*
X203026554Y-101849471D01*
X203036782Y-101827847D01*
X203049079Y-101807330D01*
X203063329Y-101788117D01*
X203079393Y-101770393D01*
X203097117Y-101754329D01*
X203116330Y-101740079D01*
X203136847Y-101727782D01*
X203158471Y-101717554D01*
X203180993Y-101709496D01*
X203204197Y-101703684D01*
X203227858Y-101700174D01*
X203251750Y-101699000D01*
X204164250Y-101699000D01*
X204188142Y-101700174D01*
X204188142Y-101700174D01*
G37*
D16*
G04 #@! TD*
G04 #@! TO.P,R7,2*
G04 #@! TO.N,/SIGON2*
X203708000Y-102186500D03*
D15*
G04 #@! TO.N,Net-(Q2-Pad1)*
G04 #@! TO.C,R7*
G36*
X204188142Y-103575174D02*
X204211803Y-103578684D01*
X204235007Y-103584496D01*
X204257529Y-103592554D01*
X204279153Y-103602782D01*
X204299670Y-103615079D01*
X204318883Y-103629329D01*
X204336607Y-103645393D01*
X204352671Y-103663117D01*
X204366921Y-103682330D01*
X204379218Y-103702847D01*
X204389446Y-103724471D01*
X204397504Y-103746993D01*
X204403316Y-103770197D01*
X204406826Y-103793858D01*
X204408000Y-103817750D01*
X204408000Y-104305250D01*
X204406826Y-104329142D01*
X204403316Y-104352803D01*
X204397504Y-104376007D01*
X204389446Y-104398529D01*
X204379218Y-104420153D01*
X204366921Y-104440670D01*
X204352671Y-104459883D01*
X204336607Y-104477607D01*
X204318883Y-104493671D01*
X204299670Y-104507921D01*
X204279153Y-104520218D01*
X204257529Y-104530446D01*
X204235007Y-104538504D01*
X204211803Y-104544316D01*
X204188142Y-104547826D01*
X204164250Y-104549000D01*
X203251750Y-104549000D01*
X203227858Y-104547826D01*
X203204197Y-104544316D01*
X203180993Y-104538504D01*
X203158471Y-104530446D01*
X203136847Y-104520218D01*
X203116330Y-104507921D01*
X203097117Y-104493671D01*
X203079393Y-104477607D01*
X203063329Y-104459883D01*
X203049079Y-104440670D01*
X203036782Y-104420153D01*
X203026554Y-104398529D01*
X203018496Y-104376007D01*
X203012684Y-104352803D01*
X203009174Y-104329142D01*
X203008000Y-104305250D01*
X203008000Y-103817750D01*
X203009174Y-103793858D01*
X203012684Y-103770197D01*
X203018496Y-103746993D01*
X203026554Y-103724471D01*
X203036782Y-103702847D01*
X203049079Y-103682330D01*
X203063329Y-103663117D01*
X203079393Y-103645393D01*
X203097117Y-103629329D01*
X203116330Y-103615079D01*
X203136847Y-103602782D01*
X203158471Y-103592554D01*
X203180993Y-103584496D01*
X203204197Y-103578684D01*
X203227858Y-103575174D01*
X203251750Y-103574000D01*
X204164250Y-103574000D01*
X204188142Y-103575174D01*
X204188142Y-103575174D01*
G37*
D16*
G04 #@! TD*
G04 #@! TO.P,R7,1*
G04 #@! TO.N,Net-(Q2-Pad1)*
X203708000Y-104061500D03*
D15*
G04 #@! TO.N,Net-(Q2-Pad1)*
G04 #@! TO.C,R8*
G36*
X202156142Y-103575174D02*
X202179803Y-103578684D01*
X202203007Y-103584496D01*
X202225529Y-103592554D01*
X202247153Y-103602782D01*
X202267670Y-103615079D01*
X202286883Y-103629329D01*
X202304607Y-103645393D01*
X202320671Y-103663117D01*
X202334921Y-103682330D01*
X202347218Y-103702847D01*
X202357446Y-103724471D01*
X202365504Y-103746993D01*
X202371316Y-103770197D01*
X202374826Y-103793858D01*
X202376000Y-103817750D01*
X202376000Y-104305250D01*
X202374826Y-104329142D01*
X202371316Y-104352803D01*
X202365504Y-104376007D01*
X202357446Y-104398529D01*
X202347218Y-104420153D01*
X202334921Y-104440670D01*
X202320671Y-104459883D01*
X202304607Y-104477607D01*
X202286883Y-104493671D01*
X202267670Y-104507921D01*
X202247153Y-104520218D01*
X202225529Y-104530446D01*
X202203007Y-104538504D01*
X202179803Y-104544316D01*
X202156142Y-104547826D01*
X202132250Y-104549000D01*
X201219750Y-104549000D01*
X201195858Y-104547826D01*
X201172197Y-104544316D01*
X201148993Y-104538504D01*
X201126471Y-104530446D01*
X201104847Y-104520218D01*
X201084330Y-104507921D01*
X201065117Y-104493671D01*
X201047393Y-104477607D01*
X201031329Y-104459883D01*
X201017079Y-104440670D01*
X201004782Y-104420153D01*
X200994554Y-104398529D01*
X200986496Y-104376007D01*
X200980684Y-104352803D01*
X200977174Y-104329142D01*
X200976000Y-104305250D01*
X200976000Y-103817750D01*
X200977174Y-103793858D01*
X200980684Y-103770197D01*
X200986496Y-103746993D01*
X200994554Y-103724471D01*
X201004782Y-103702847D01*
X201017079Y-103682330D01*
X201031329Y-103663117D01*
X201047393Y-103645393D01*
X201065117Y-103629329D01*
X201084330Y-103615079D01*
X201104847Y-103602782D01*
X201126471Y-103592554D01*
X201148993Y-103584496D01*
X201172197Y-103578684D01*
X201195858Y-103575174D01*
X201219750Y-103574000D01*
X202132250Y-103574000D01*
X202156142Y-103575174D01*
X202156142Y-103575174D01*
G37*
D16*
G04 #@! TD*
G04 #@! TO.P,R8,1*
G04 #@! TO.N,Net-(Q2-Pad1)*
X201676000Y-104061500D03*
D15*
G04 #@! TO.N,GND*
G04 #@! TO.C,R8*
G36*
X202156142Y-101700174D02*
X202179803Y-101703684D01*
X202203007Y-101709496D01*
X202225529Y-101717554D01*
X202247153Y-101727782D01*
X202267670Y-101740079D01*
X202286883Y-101754329D01*
X202304607Y-101770393D01*
X202320671Y-101788117D01*
X202334921Y-101807330D01*
X202347218Y-101827847D01*
X202357446Y-101849471D01*
X202365504Y-101871993D01*
X202371316Y-101895197D01*
X202374826Y-101918858D01*
X202376000Y-101942750D01*
X202376000Y-102430250D01*
X202374826Y-102454142D01*
X202371316Y-102477803D01*
X202365504Y-102501007D01*
X202357446Y-102523529D01*
X202347218Y-102545153D01*
X202334921Y-102565670D01*
X202320671Y-102584883D01*
X202304607Y-102602607D01*
X202286883Y-102618671D01*
X202267670Y-102632921D01*
X202247153Y-102645218D01*
X202225529Y-102655446D01*
X202203007Y-102663504D01*
X202179803Y-102669316D01*
X202156142Y-102672826D01*
X202132250Y-102674000D01*
X201219750Y-102674000D01*
X201195858Y-102672826D01*
X201172197Y-102669316D01*
X201148993Y-102663504D01*
X201126471Y-102655446D01*
X201104847Y-102645218D01*
X201084330Y-102632921D01*
X201065117Y-102618671D01*
X201047393Y-102602607D01*
X201031329Y-102584883D01*
X201017079Y-102565670D01*
X201004782Y-102545153D01*
X200994554Y-102523529D01*
X200986496Y-102501007D01*
X200980684Y-102477803D01*
X200977174Y-102454142D01*
X200976000Y-102430250D01*
X200976000Y-101942750D01*
X200977174Y-101918858D01*
X200980684Y-101895197D01*
X200986496Y-101871993D01*
X200994554Y-101849471D01*
X201004782Y-101827847D01*
X201017079Y-101807330D01*
X201031329Y-101788117D01*
X201047393Y-101770393D01*
X201065117Y-101754329D01*
X201084330Y-101740079D01*
X201104847Y-101727782D01*
X201126471Y-101717554D01*
X201148993Y-101709496D01*
X201172197Y-101703684D01*
X201195858Y-101700174D01*
X201219750Y-101699000D01*
X202132250Y-101699000D01*
X202156142Y-101700174D01*
X202156142Y-101700174D01*
G37*
D16*
G04 #@! TD*
G04 #@! TO.P,R8,2*
G04 #@! TO.N,GND*
X201676000Y-102186500D03*
D15*
G04 #@! TO.N,+12V*
G04 #@! TO.C,C1*
G36*
X201625338Y-113861652D02*
X201648999Y-113865162D01*
X201672203Y-113870974D01*
X201694725Y-113879032D01*
X201716349Y-113889260D01*
X201736866Y-113901557D01*
X201756079Y-113915807D01*
X201773803Y-113931871D01*
X201789867Y-113949595D01*
X201804117Y-113968808D01*
X201816414Y-113989325D01*
X201826642Y-114010949D01*
X201834700Y-114033471D01*
X201840512Y-114056675D01*
X201844022Y-114080336D01*
X201845196Y-114104228D01*
X201845196Y-115016728D01*
X201844022Y-115040620D01*
X201840512Y-115064281D01*
X201834700Y-115087485D01*
X201826642Y-115110007D01*
X201816414Y-115131631D01*
X201804117Y-115152148D01*
X201789867Y-115171361D01*
X201773803Y-115189085D01*
X201756079Y-115205149D01*
X201736866Y-115219399D01*
X201716349Y-115231696D01*
X201694725Y-115241924D01*
X201672203Y-115249982D01*
X201648999Y-115255794D01*
X201625338Y-115259304D01*
X201601446Y-115260478D01*
X201113946Y-115260478D01*
X201090054Y-115259304D01*
X201066393Y-115255794D01*
X201043189Y-115249982D01*
X201020667Y-115241924D01*
X200999043Y-115231696D01*
X200978526Y-115219399D01*
X200959313Y-115205149D01*
X200941589Y-115189085D01*
X200925525Y-115171361D01*
X200911275Y-115152148D01*
X200898978Y-115131631D01*
X200888750Y-115110007D01*
X200880692Y-115087485D01*
X200874880Y-115064281D01*
X200871370Y-115040620D01*
X200870196Y-115016728D01*
X200870196Y-114104228D01*
X200871370Y-114080336D01*
X200874880Y-114056675D01*
X200880692Y-114033471D01*
X200888750Y-114010949D01*
X200898978Y-113989325D01*
X200911275Y-113968808D01*
X200925525Y-113949595D01*
X200941589Y-113931871D01*
X200959313Y-113915807D01*
X200978526Y-113901557D01*
X200999043Y-113889260D01*
X201020667Y-113879032D01*
X201043189Y-113870974D01*
X201066393Y-113865162D01*
X201090054Y-113861652D01*
X201113946Y-113860478D01*
X201601446Y-113860478D01*
X201625338Y-113861652D01*
X201625338Y-113861652D01*
G37*
D16*
G04 #@! TD*
G04 #@! TO.P,C1,1*
G04 #@! TO.N,+12V*
X201357696Y-114560478D03*
D15*
G04 #@! TO.N,GND*
G04 #@! TO.C,C1*
G36*
X203500338Y-113861652D02*
X203523999Y-113865162D01*
X203547203Y-113870974D01*
X203569725Y-113879032D01*
X203591349Y-113889260D01*
X203611866Y-113901557D01*
X203631079Y-113915807D01*
X203648803Y-113931871D01*
X203664867Y-113949595D01*
X203679117Y-113968808D01*
X203691414Y-113989325D01*
X203701642Y-114010949D01*
X203709700Y-114033471D01*
X203715512Y-114056675D01*
X203719022Y-114080336D01*
X203720196Y-114104228D01*
X203720196Y-115016728D01*
X203719022Y-115040620D01*
X203715512Y-115064281D01*
X203709700Y-115087485D01*
X203701642Y-115110007D01*
X203691414Y-115131631D01*
X203679117Y-115152148D01*
X203664867Y-115171361D01*
X203648803Y-115189085D01*
X203631079Y-115205149D01*
X203611866Y-115219399D01*
X203591349Y-115231696D01*
X203569725Y-115241924D01*
X203547203Y-115249982D01*
X203523999Y-115255794D01*
X203500338Y-115259304D01*
X203476446Y-115260478D01*
X202988946Y-115260478D01*
X202965054Y-115259304D01*
X202941393Y-115255794D01*
X202918189Y-115249982D01*
X202895667Y-115241924D01*
X202874043Y-115231696D01*
X202853526Y-115219399D01*
X202834313Y-115205149D01*
X202816589Y-115189085D01*
X202800525Y-115171361D01*
X202786275Y-115152148D01*
X202773978Y-115131631D01*
X202763750Y-115110007D01*
X202755692Y-115087485D01*
X202749880Y-115064281D01*
X202746370Y-115040620D01*
X202745196Y-115016728D01*
X202745196Y-114104228D01*
X202746370Y-114080336D01*
X202749880Y-114056675D01*
X202755692Y-114033471D01*
X202763750Y-114010949D01*
X202773978Y-113989325D01*
X202786275Y-113968808D01*
X202800525Y-113949595D01*
X202816589Y-113931871D01*
X202834313Y-113915807D01*
X202853526Y-113901557D01*
X202874043Y-113889260D01*
X202895667Y-113879032D01*
X202918189Y-113870974D01*
X202941393Y-113865162D01*
X202965054Y-113861652D01*
X202988946Y-113860478D01*
X203476446Y-113860478D01*
X203500338Y-113861652D01*
X203500338Y-113861652D01*
G37*
D16*
G04 #@! TD*
G04 #@! TO.P,C1,2*
G04 #@! TO.N,GND*
X203232696Y-114560478D03*
D15*
G04 #@! TO.N,GND*
G04 #@! TO.C,C2*
G36*
X205435338Y-113861652D02*
X205458999Y-113865162D01*
X205482203Y-113870974D01*
X205504725Y-113879032D01*
X205526349Y-113889260D01*
X205546866Y-113901557D01*
X205566079Y-113915807D01*
X205583803Y-113931871D01*
X205599867Y-113949595D01*
X205614117Y-113968808D01*
X205626414Y-113989325D01*
X205636642Y-114010949D01*
X205644700Y-114033471D01*
X205650512Y-114056675D01*
X205654022Y-114080336D01*
X205655196Y-114104228D01*
X205655196Y-115016728D01*
X205654022Y-115040620D01*
X205650512Y-115064281D01*
X205644700Y-115087485D01*
X205636642Y-115110007D01*
X205626414Y-115131631D01*
X205614117Y-115152148D01*
X205599867Y-115171361D01*
X205583803Y-115189085D01*
X205566079Y-115205149D01*
X205546866Y-115219399D01*
X205526349Y-115231696D01*
X205504725Y-115241924D01*
X205482203Y-115249982D01*
X205458999Y-115255794D01*
X205435338Y-115259304D01*
X205411446Y-115260478D01*
X204923946Y-115260478D01*
X204900054Y-115259304D01*
X204876393Y-115255794D01*
X204853189Y-115249982D01*
X204830667Y-115241924D01*
X204809043Y-115231696D01*
X204788526Y-115219399D01*
X204769313Y-115205149D01*
X204751589Y-115189085D01*
X204735525Y-115171361D01*
X204721275Y-115152148D01*
X204708978Y-115131631D01*
X204698750Y-115110007D01*
X204690692Y-115087485D01*
X204684880Y-115064281D01*
X204681370Y-115040620D01*
X204680196Y-115016728D01*
X204680196Y-114104228D01*
X204681370Y-114080336D01*
X204684880Y-114056675D01*
X204690692Y-114033471D01*
X204698750Y-114010949D01*
X204708978Y-113989325D01*
X204721275Y-113968808D01*
X204735525Y-113949595D01*
X204751589Y-113931871D01*
X204769313Y-113915807D01*
X204788526Y-113901557D01*
X204809043Y-113889260D01*
X204830667Y-113879032D01*
X204853189Y-113870974D01*
X204876393Y-113865162D01*
X204900054Y-113861652D01*
X204923946Y-113860478D01*
X205411446Y-113860478D01*
X205435338Y-113861652D01*
X205435338Y-113861652D01*
G37*
D16*
G04 #@! TD*
G04 #@! TO.P,C2,2*
G04 #@! TO.N,GND*
X205167696Y-114560478D03*
D15*
G04 #@! TO.N,+5V*
G04 #@! TO.C,C2*
G36*
X207310338Y-113861652D02*
X207333999Y-113865162D01*
X207357203Y-113870974D01*
X207379725Y-113879032D01*
X207401349Y-113889260D01*
X207421866Y-113901557D01*
X207441079Y-113915807D01*
X207458803Y-113931871D01*
X207474867Y-113949595D01*
X207489117Y-113968808D01*
X207501414Y-113989325D01*
X207511642Y-114010949D01*
X207519700Y-114033471D01*
X207525512Y-114056675D01*
X207529022Y-114080336D01*
X207530196Y-114104228D01*
X207530196Y-115016728D01*
X207529022Y-115040620D01*
X207525512Y-115064281D01*
X207519700Y-115087485D01*
X207511642Y-115110007D01*
X207501414Y-115131631D01*
X207489117Y-115152148D01*
X207474867Y-115171361D01*
X207458803Y-115189085D01*
X207441079Y-115205149D01*
X207421866Y-115219399D01*
X207401349Y-115231696D01*
X207379725Y-115241924D01*
X207357203Y-115249982D01*
X207333999Y-115255794D01*
X207310338Y-115259304D01*
X207286446Y-115260478D01*
X206798946Y-115260478D01*
X206775054Y-115259304D01*
X206751393Y-115255794D01*
X206728189Y-115249982D01*
X206705667Y-115241924D01*
X206684043Y-115231696D01*
X206663526Y-115219399D01*
X206644313Y-115205149D01*
X206626589Y-115189085D01*
X206610525Y-115171361D01*
X206596275Y-115152148D01*
X206583978Y-115131631D01*
X206573750Y-115110007D01*
X206565692Y-115087485D01*
X206559880Y-115064281D01*
X206556370Y-115040620D01*
X206555196Y-115016728D01*
X206555196Y-114104228D01*
X206556370Y-114080336D01*
X206559880Y-114056675D01*
X206565692Y-114033471D01*
X206573750Y-114010949D01*
X206583978Y-113989325D01*
X206596275Y-113968808D01*
X206610525Y-113949595D01*
X206626589Y-113931871D01*
X206644313Y-113915807D01*
X206663526Y-113901557D01*
X206684043Y-113889260D01*
X206705667Y-113879032D01*
X206728189Y-113870974D01*
X206751393Y-113865162D01*
X206775054Y-113861652D01*
X206798946Y-113860478D01*
X207286446Y-113860478D01*
X207310338Y-113861652D01*
X207310338Y-113861652D01*
G37*
D16*
G04 #@! TD*
G04 #@! TO.P,C2,1*
G04 #@! TO.N,+5V*
X207042696Y-114560478D03*
D17*
G04 #@! TO.P,J2,1*
G04 #@! TO.N,+12V*
X193040000Y-118364000D03*
D15*
G04 #@! TD*
G04 #@! TO.N,GND*
G04 #@! TO.C,J2*
G36*
X194113513Y-122867611D02*
X194186318Y-122878411D01*
X194257714Y-122896295D01*
X194327013Y-122921090D01*
X194393548Y-122952559D01*
X194456678Y-122990398D01*
X194515795Y-123034242D01*
X194570330Y-123083670D01*
X194619758Y-123138205D01*
X194663602Y-123197322D01*
X194701441Y-123260452D01*
X194732910Y-123326987D01*
X194757705Y-123396286D01*
X194775589Y-123467682D01*
X194786389Y-123540487D01*
X194790000Y-123614000D01*
X194790000Y-125114000D01*
X194786389Y-125187513D01*
X194775589Y-125260318D01*
X194757705Y-125331714D01*
X194732910Y-125401013D01*
X194701441Y-125467548D01*
X194663602Y-125530678D01*
X194619758Y-125589795D01*
X194570330Y-125644330D01*
X194515795Y-125693758D01*
X194456678Y-125737602D01*
X194393548Y-125775441D01*
X194327013Y-125806910D01*
X194257714Y-125831705D01*
X194186318Y-125849589D01*
X194113513Y-125860389D01*
X194040000Y-125864000D01*
X192040000Y-125864000D01*
X191966487Y-125860389D01*
X191893682Y-125849589D01*
X191822286Y-125831705D01*
X191752987Y-125806910D01*
X191686452Y-125775441D01*
X191623322Y-125737602D01*
X191564205Y-125693758D01*
X191509670Y-125644330D01*
X191460242Y-125589795D01*
X191416398Y-125530678D01*
X191378559Y-125467548D01*
X191347090Y-125401013D01*
X191322295Y-125331714D01*
X191304411Y-125260318D01*
X191293611Y-125187513D01*
X191290000Y-125114000D01*
X191290000Y-123614000D01*
X191293611Y-123540487D01*
X191304411Y-123467682D01*
X191322295Y-123396286D01*
X191347090Y-123326987D01*
X191378559Y-123260452D01*
X191416398Y-123197322D01*
X191460242Y-123138205D01*
X191509670Y-123083670D01*
X191564205Y-123034242D01*
X191623322Y-122990398D01*
X191686452Y-122952559D01*
X191752987Y-122921090D01*
X191822286Y-122896295D01*
X191893682Y-122878411D01*
X191966487Y-122867611D01*
X192040000Y-122864000D01*
X194040000Y-122864000D01*
X194113513Y-122867611D01*
X194113513Y-122867611D01*
G37*
D18*
G04 #@! TO.P,J2,2*
G04 #@! TO.N,GND*
X193040000Y-124364000D03*
D15*
G04 #@! TD*
G04 #@! TO.N,Net-(J2-Pad3)*
G04 #@! TO.C,J2*
G36*
X198700765Y-119618213D02*
X198785704Y-119630813D01*
X198868999Y-119651677D01*
X198949848Y-119680605D01*
X199027472Y-119717319D01*
X199101124Y-119761464D01*
X199170094Y-119812616D01*
X199233718Y-119870282D01*
X199291384Y-119933906D01*
X199342536Y-120002876D01*
X199386681Y-120076528D01*
X199423395Y-120154152D01*
X199452323Y-120235001D01*
X199473187Y-120318296D01*
X199485787Y-120403235D01*
X199490000Y-120489000D01*
X199490000Y-122239000D01*
X199485787Y-122324765D01*
X199473187Y-122409704D01*
X199452323Y-122492999D01*
X199423395Y-122573848D01*
X199386681Y-122651472D01*
X199342536Y-122725124D01*
X199291384Y-122794094D01*
X199233718Y-122857718D01*
X199170094Y-122915384D01*
X199101124Y-122966536D01*
X199027472Y-123010681D01*
X198949848Y-123047395D01*
X198868999Y-123076323D01*
X198785704Y-123097187D01*
X198700765Y-123109787D01*
X198615000Y-123114000D01*
X196865000Y-123114000D01*
X196779235Y-123109787D01*
X196694296Y-123097187D01*
X196611001Y-123076323D01*
X196530152Y-123047395D01*
X196452528Y-123010681D01*
X196378876Y-122966536D01*
X196309906Y-122915384D01*
X196246282Y-122857718D01*
X196188616Y-122794094D01*
X196137464Y-122725124D01*
X196093319Y-122651472D01*
X196056605Y-122573848D01*
X196027677Y-122492999D01*
X196006813Y-122409704D01*
X195994213Y-122324765D01*
X195990000Y-122239000D01*
X195990000Y-120489000D01*
X195994213Y-120403235D01*
X196006813Y-120318296D01*
X196027677Y-120235001D01*
X196056605Y-120154152D01*
X196093319Y-120076528D01*
X196137464Y-120002876D01*
X196188616Y-119933906D01*
X196246282Y-119870282D01*
X196309906Y-119812616D01*
X196378876Y-119761464D01*
X196452528Y-119717319D01*
X196530152Y-119680605D01*
X196611001Y-119651677D01*
X196694296Y-119630813D01*
X196779235Y-119618213D01*
X196865000Y-119614000D01*
X198615000Y-119614000D01*
X198700765Y-119618213D01*
X198700765Y-119618213D01*
G37*
D19*
G04 #@! TO.P,J2,3*
G04 #@! TO.N,Net-(J2-Pad3)*
X197740000Y-121364000D03*
G04 #@! TD*
D20*
G04 #@! TO.P,NTC1,1*
G04 #@! TO.N,/NTC*
X204216000Y-86995000D03*
D21*
G04 #@! TO.P,NTC1,2*
G04 #@! TO.N,GND*
X201676000Y-86995000D03*
G04 #@! TD*
D22*
G04 #@! TO.P,FAN1,4*
G04 #@! TO.N,/SIGPWM1*
X200660000Y-96520000D03*
G04 #@! TO.P,FAN1,3*
G04 #@! TO.N,/SIGTACH1*
X198120000Y-96520000D03*
G04 #@! TO.P,FAN1,2*
G04 #@! TO.N,+12V*
X195580000Y-96520000D03*
D23*
G04 #@! TO.P,FAN1,1*
G04 #@! TO.N,Net-(FAN1-Pad1)*
X193040000Y-96520000D03*
G04 #@! TD*
G04 #@! TO.P,FAN2,1*
G04 #@! TO.N,Net-(FAN2-Pad1)*
X198755000Y-107950000D03*
D22*
G04 #@! TO.P,FAN2,2*
G04 #@! TO.N,+12V*
X201295000Y-107950000D03*
G04 #@! TO.P,FAN2,3*
G04 #@! TO.N,/SIGTACH2*
X203835000Y-107950000D03*
G04 #@! TO.P,FAN2,4*
G04 #@! TO.N,/SIGPWM2*
X206375000Y-107950000D03*
G04 #@! TD*
D15*
G04 #@! TO.N,/NTC*
G04 #@! TO.C,R1*
G36*
X207610142Y-86296174D02*
X207633803Y-86299684D01*
X207657007Y-86305496D01*
X207679529Y-86313554D01*
X207701153Y-86323782D01*
X207721670Y-86336079D01*
X207740883Y-86350329D01*
X207758607Y-86366393D01*
X207774671Y-86384117D01*
X207788921Y-86403330D01*
X207801218Y-86423847D01*
X207811446Y-86445471D01*
X207819504Y-86467993D01*
X207825316Y-86491197D01*
X207828826Y-86514858D01*
X207830000Y-86538750D01*
X207830000Y-87451250D01*
X207828826Y-87475142D01*
X207825316Y-87498803D01*
X207819504Y-87522007D01*
X207811446Y-87544529D01*
X207801218Y-87566153D01*
X207788921Y-87586670D01*
X207774671Y-87605883D01*
X207758607Y-87623607D01*
X207740883Y-87639671D01*
X207721670Y-87653921D01*
X207701153Y-87666218D01*
X207679529Y-87676446D01*
X207657007Y-87684504D01*
X207633803Y-87690316D01*
X207610142Y-87693826D01*
X207586250Y-87695000D01*
X207098750Y-87695000D01*
X207074858Y-87693826D01*
X207051197Y-87690316D01*
X207027993Y-87684504D01*
X207005471Y-87676446D01*
X206983847Y-87666218D01*
X206963330Y-87653921D01*
X206944117Y-87639671D01*
X206926393Y-87623607D01*
X206910329Y-87605883D01*
X206896079Y-87586670D01*
X206883782Y-87566153D01*
X206873554Y-87544529D01*
X206865496Y-87522007D01*
X206859684Y-87498803D01*
X206856174Y-87475142D01*
X206855000Y-87451250D01*
X206855000Y-86538750D01*
X206856174Y-86514858D01*
X206859684Y-86491197D01*
X206865496Y-86467993D01*
X206873554Y-86445471D01*
X206883782Y-86423847D01*
X206896079Y-86403330D01*
X206910329Y-86384117D01*
X206926393Y-86366393D01*
X206944117Y-86350329D01*
X206963330Y-86336079D01*
X206983847Y-86323782D01*
X207005471Y-86313554D01*
X207027993Y-86305496D01*
X207051197Y-86299684D01*
X207074858Y-86296174D01*
X207098750Y-86295000D01*
X207586250Y-86295000D01*
X207610142Y-86296174D01*
X207610142Y-86296174D01*
G37*
D16*
G04 #@! TD*
G04 #@! TO.P,R1,2*
G04 #@! TO.N,/NTC*
X207342500Y-86995000D03*
D15*
G04 #@! TO.N,+3V3*
G04 #@! TO.C,R1*
G36*
X209485142Y-86296174D02*
X209508803Y-86299684D01*
X209532007Y-86305496D01*
X209554529Y-86313554D01*
X209576153Y-86323782D01*
X209596670Y-86336079D01*
X209615883Y-86350329D01*
X209633607Y-86366393D01*
X209649671Y-86384117D01*
X209663921Y-86403330D01*
X209676218Y-86423847D01*
X209686446Y-86445471D01*
X209694504Y-86467993D01*
X209700316Y-86491197D01*
X209703826Y-86514858D01*
X209705000Y-86538750D01*
X209705000Y-87451250D01*
X209703826Y-87475142D01*
X209700316Y-87498803D01*
X209694504Y-87522007D01*
X209686446Y-87544529D01*
X209676218Y-87566153D01*
X209663921Y-87586670D01*
X209649671Y-87605883D01*
X209633607Y-87623607D01*
X209615883Y-87639671D01*
X209596670Y-87653921D01*
X209576153Y-87666218D01*
X209554529Y-87676446D01*
X209532007Y-87684504D01*
X209508803Y-87690316D01*
X209485142Y-87693826D01*
X209461250Y-87695000D01*
X208973750Y-87695000D01*
X208949858Y-87693826D01*
X208926197Y-87690316D01*
X208902993Y-87684504D01*
X208880471Y-87676446D01*
X208858847Y-87666218D01*
X208838330Y-87653921D01*
X208819117Y-87639671D01*
X208801393Y-87623607D01*
X208785329Y-87605883D01*
X208771079Y-87586670D01*
X208758782Y-87566153D01*
X208748554Y-87544529D01*
X208740496Y-87522007D01*
X208734684Y-87498803D01*
X208731174Y-87475142D01*
X208730000Y-87451250D01*
X208730000Y-86538750D01*
X208731174Y-86514858D01*
X208734684Y-86491197D01*
X208740496Y-86467993D01*
X208748554Y-86445471D01*
X208758782Y-86423847D01*
X208771079Y-86403330D01*
X208785329Y-86384117D01*
X208801393Y-86366393D01*
X208819117Y-86350329D01*
X208838330Y-86336079D01*
X208858847Y-86323782D01*
X208880471Y-86313554D01*
X208902993Y-86305496D01*
X208926197Y-86299684D01*
X208949858Y-86296174D01*
X208973750Y-86295000D01*
X209461250Y-86295000D01*
X209485142Y-86296174D01*
X209485142Y-86296174D01*
G37*
D16*
G04 #@! TD*
G04 #@! TO.P,R1,1*
G04 #@! TO.N,+3V3*
X209217500Y-86995000D03*
D15*
G04 #@! TO.N,+3V3*
G04 #@! TO.C,R2*
G36*
X198690142Y-86296174D02*
X198713803Y-86299684D01*
X198737007Y-86305496D01*
X198759529Y-86313554D01*
X198781153Y-86323782D01*
X198801670Y-86336079D01*
X198820883Y-86350329D01*
X198838607Y-86366393D01*
X198854671Y-86384117D01*
X198868921Y-86403330D01*
X198881218Y-86423847D01*
X198891446Y-86445471D01*
X198899504Y-86467993D01*
X198905316Y-86491197D01*
X198908826Y-86514858D01*
X198910000Y-86538750D01*
X198910000Y-87451250D01*
X198908826Y-87475142D01*
X198905316Y-87498803D01*
X198899504Y-87522007D01*
X198891446Y-87544529D01*
X198881218Y-87566153D01*
X198868921Y-87586670D01*
X198854671Y-87605883D01*
X198838607Y-87623607D01*
X198820883Y-87639671D01*
X198801670Y-87653921D01*
X198781153Y-87666218D01*
X198759529Y-87676446D01*
X198737007Y-87684504D01*
X198713803Y-87690316D01*
X198690142Y-87693826D01*
X198666250Y-87695000D01*
X198178750Y-87695000D01*
X198154858Y-87693826D01*
X198131197Y-87690316D01*
X198107993Y-87684504D01*
X198085471Y-87676446D01*
X198063847Y-87666218D01*
X198043330Y-87653921D01*
X198024117Y-87639671D01*
X198006393Y-87623607D01*
X197990329Y-87605883D01*
X197976079Y-87586670D01*
X197963782Y-87566153D01*
X197953554Y-87544529D01*
X197945496Y-87522007D01*
X197939684Y-87498803D01*
X197936174Y-87475142D01*
X197935000Y-87451250D01*
X197935000Y-86538750D01*
X197936174Y-86514858D01*
X197939684Y-86491197D01*
X197945496Y-86467993D01*
X197953554Y-86445471D01*
X197963782Y-86423847D01*
X197976079Y-86403330D01*
X197990329Y-86384117D01*
X198006393Y-86366393D01*
X198024117Y-86350329D01*
X198043330Y-86336079D01*
X198063847Y-86323782D01*
X198085471Y-86313554D01*
X198107993Y-86305496D01*
X198131197Y-86299684D01*
X198154858Y-86296174D01*
X198178750Y-86295000D01*
X198666250Y-86295000D01*
X198690142Y-86296174D01*
X198690142Y-86296174D01*
G37*
D16*
G04 #@! TD*
G04 #@! TO.P,R2,1*
G04 #@! TO.N,+3V3*
X198422500Y-86995000D03*
D15*
G04 #@! TO.N,/FLOW*
G04 #@! TO.C,R2*
G36*
X196815142Y-86296174D02*
X196838803Y-86299684D01*
X196862007Y-86305496D01*
X196884529Y-86313554D01*
X196906153Y-86323782D01*
X196926670Y-86336079D01*
X196945883Y-86350329D01*
X196963607Y-86366393D01*
X196979671Y-86384117D01*
X196993921Y-86403330D01*
X197006218Y-86423847D01*
X197016446Y-86445471D01*
X197024504Y-86467993D01*
X197030316Y-86491197D01*
X197033826Y-86514858D01*
X197035000Y-86538750D01*
X197035000Y-87451250D01*
X197033826Y-87475142D01*
X197030316Y-87498803D01*
X197024504Y-87522007D01*
X197016446Y-87544529D01*
X197006218Y-87566153D01*
X196993921Y-87586670D01*
X196979671Y-87605883D01*
X196963607Y-87623607D01*
X196945883Y-87639671D01*
X196926670Y-87653921D01*
X196906153Y-87666218D01*
X196884529Y-87676446D01*
X196862007Y-87684504D01*
X196838803Y-87690316D01*
X196815142Y-87693826D01*
X196791250Y-87695000D01*
X196303750Y-87695000D01*
X196279858Y-87693826D01*
X196256197Y-87690316D01*
X196232993Y-87684504D01*
X196210471Y-87676446D01*
X196188847Y-87666218D01*
X196168330Y-87653921D01*
X196149117Y-87639671D01*
X196131393Y-87623607D01*
X196115329Y-87605883D01*
X196101079Y-87586670D01*
X196088782Y-87566153D01*
X196078554Y-87544529D01*
X196070496Y-87522007D01*
X196064684Y-87498803D01*
X196061174Y-87475142D01*
X196060000Y-87451250D01*
X196060000Y-86538750D01*
X196061174Y-86514858D01*
X196064684Y-86491197D01*
X196070496Y-86467993D01*
X196078554Y-86445471D01*
X196088782Y-86423847D01*
X196101079Y-86403330D01*
X196115329Y-86384117D01*
X196131393Y-86366393D01*
X196149117Y-86350329D01*
X196168330Y-86336079D01*
X196188847Y-86323782D01*
X196210471Y-86313554D01*
X196232993Y-86305496D01*
X196256197Y-86299684D01*
X196279858Y-86296174D01*
X196303750Y-86295000D01*
X196791250Y-86295000D01*
X196815142Y-86296174D01*
X196815142Y-86296174D01*
G37*
D16*
G04 #@! TD*
G04 #@! TO.P,R2,2*
G04 #@! TO.N,/FLOW*
X196547500Y-86995000D03*
D15*
G04 #@! TO.N,Net-(Q1-Pad1)*
G04 #@! TO.C,R4*
G36*
X196568142Y-90270174D02*
X196591803Y-90273684D01*
X196615007Y-90279496D01*
X196637529Y-90287554D01*
X196659153Y-90297782D01*
X196679670Y-90310079D01*
X196698883Y-90324329D01*
X196716607Y-90340393D01*
X196732671Y-90358117D01*
X196746921Y-90377330D01*
X196759218Y-90397847D01*
X196769446Y-90419471D01*
X196777504Y-90441993D01*
X196783316Y-90465197D01*
X196786826Y-90488858D01*
X196788000Y-90512750D01*
X196788000Y-91000250D01*
X196786826Y-91024142D01*
X196783316Y-91047803D01*
X196777504Y-91071007D01*
X196769446Y-91093529D01*
X196759218Y-91115153D01*
X196746921Y-91135670D01*
X196732671Y-91154883D01*
X196716607Y-91172607D01*
X196698883Y-91188671D01*
X196679670Y-91202921D01*
X196659153Y-91215218D01*
X196637529Y-91225446D01*
X196615007Y-91233504D01*
X196591803Y-91239316D01*
X196568142Y-91242826D01*
X196544250Y-91244000D01*
X195631750Y-91244000D01*
X195607858Y-91242826D01*
X195584197Y-91239316D01*
X195560993Y-91233504D01*
X195538471Y-91225446D01*
X195516847Y-91215218D01*
X195496330Y-91202921D01*
X195477117Y-91188671D01*
X195459393Y-91172607D01*
X195443329Y-91154883D01*
X195429079Y-91135670D01*
X195416782Y-91115153D01*
X195406554Y-91093529D01*
X195398496Y-91071007D01*
X195392684Y-91047803D01*
X195389174Y-91024142D01*
X195388000Y-91000250D01*
X195388000Y-90512750D01*
X195389174Y-90488858D01*
X195392684Y-90465197D01*
X195398496Y-90441993D01*
X195406554Y-90419471D01*
X195416782Y-90397847D01*
X195429079Y-90377330D01*
X195443329Y-90358117D01*
X195459393Y-90340393D01*
X195477117Y-90324329D01*
X195496330Y-90310079D01*
X195516847Y-90297782D01*
X195538471Y-90287554D01*
X195560993Y-90279496D01*
X195584197Y-90273684D01*
X195607858Y-90270174D01*
X195631750Y-90269000D01*
X196544250Y-90269000D01*
X196568142Y-90270174D01*
X196568142Y-90270174D01*
G37*
D16*
G04 #@! TD*
G04 #@! TO.P,R4,1*
G04 #@! TO.N,Net-(Q1-Pad1)*
X196088000Y-90756500D03*
D15*
G04 #@! TO.N,/SIGON1*
G04 #@! TO.C,R4*
G36*
X196568142Y-92145174D02*
X196591803Y-92148684D01*
X196615007Y-92154496D01*
X196637529Y-92162554D01*
X196659153Y-92172782D01*
X196679670Y-92185079D01*
X196698883Y-92199329D01*
X196716607Y-92215393D01*
X196732671Y-92233117D01*
X196746921Y-92252330D01*
X196759218Y-92272847D01*
X196769446Y-92294471D01*
X196777504Y-92316993D01*
X196783316Y-92340197D01*
X196786826Y-92363858D01*
X196788000Y-92387750D01*
X196788000Y-92875250D01*
X196786826Y-92899142D01*
X196783316Y-92922803D01*
X196777504Y-92946007D01*
X196769446Y-92968529D01*
X196759218Y-92990153D01*
X196746921Y-93010670D01*
X196732671Y-93029883D01*
X196716607Y-93047607D01*
X196698883Y-93063671D01*
X196679670Y-93077921D01*
X196659153Y-93090218D01*
X196637529Y-93100446D01*
X196615007Y-93108504D01*
X196591803Y-93114316D01*
X196568142Y-93117826D01*
X196544250Y-93119000D01*
X195631750Y-93119000D01*
X195607858Y-93117826D01*
X195584197Y-93114316D01*
X195560993Y-93108504D01*
X195538471Y-93100446D01*
X195516847Y-93090218D01*
X195496330Y-93077921D01*
X195477117Y-93063671D01*
X195459393Y-93047607D01*
X195443329Y-93029883D01*
X195429079Y-93010670D01*
X195416782Y-92990153D01*
X195406554Y-92968529D01*
X195398496Y-92946007D01*
X195392684Y-92922803D01*
X195389174Y-92899142D01*
X195388000Y-92875250D01*
X195388000Y-92387750D01*
X195389174Y-92363858D01*
X195392684Y-92340197D01*
X195398496Y-92316993D01*
X195406554Y-92294471D01*
X195416782Y-92272847D01*
X195429079Y-92252330D01*
X195443329Y-92233117D01*
X195459393Y-92215393D01*
X195477117Y-92199329D01*
X195496330Y-92185079D01*
X195516847Y-92172782D01*
X195538471Y-92162554D01*
X195560993Y-92154496D01*
X195584197Y-92148684D01*
X195607858Y-92145174D01*
X195631750Y-92144000D01*
X196544250Y-92144000D01*
X196568142Y-92145174D01*
X196568142Y-92145174D01*
G37*
D16*
G04 #@! TD*
G04 #@! TO.P,R4,2*
G04 #@! TO.N,/SIGON1*
X196088000Y-92631500D03*
D15*
G04 #@! TO.N,Net-(Q1-Pad1)*
G04 #@! TO.C,R5*
G36*
X198600142Y-90270174D02*
X198623803Y-90273684D01*
X198647007Y-90279496D01*
X198669529Y-90287554D01*
X198691153Y-90297782D01*
X198711670Y-90310079D01*
X198730883Y-90324329D01*
X198748607Y-90340393D01*
X198764671Y-90358117D01*
X198778921Y-90377330D01*
X198791218Y-90397847D01*
X198801446Y-90419471D01*
X198809504Y-90441993D01*
X198815316Y-90465197D01*
X198818826Y-90488858D01*
X198820000Y-90512750D01*
X198820000Y-91000250D01*
X198818826Y-91024142D01*
X198815316Y-91047803D01*
X198809504Y-91071007D01*
X198801446Y-91093529D01*
X198791218Y-91115153D01*
X198778921Y-91135670D01*
X198764671Y-91154883D01*
X198748607Y-91172607D01*
X198730883Y-91188671D01*
X198711670Y-91202921D01*
X198691153Y-91215218D01*
X198669529Y-91225446D01*
X198647007Y-91233504D01*
X198623803Y-91239316D01*
X198600142Y-91242826D01*
X198576250Y-91244000D01*
X197663750Y-91244000D01*
X197639858Y-91242826D01*
X197616197Y-91239316D01*
X197592993Y-91233504D01*
X197570471Y-91225446D01*
X197548847Y-91215218D01*
X197528330Y-91202921D01*
X197509117Y-91188671D01*
X197491393Y-91172607D01*
X197475329Y-91154883D01*
X197461079Y-91135670D01*
X197448782Y-91115153D01*
X197438554Y-91093529D01*
X197430496Y-91071007D01*
X197424684Y-91047803D01*
X197421174Y-91024142D01*
X197420000Y-91000250D01*
X197420000Y-90512750D01*
X197421174Y-90488858D01*
X197424684Y-90465197D01*
X197430496Y-90441993D01*
X197438554Y-90419471D01*
X197448782Y-90397847D01*
X197461079Y-90377330D01*
X197475329Y-90358117D01*
X197491393Y-90340393D01*
X197509117Y-90324329D01*
X197528330Y-90310079D01*
X197548847Y-90297782D01*
X197570471Y-90287554D01*
X197592993Y-90279496D01*
X197616197Y-90273684D01*
X197639858Y-90270174D01*
X197663750Y-90269000D01*
X198576250Y-90269000D01*
X198600142Y-90270174D01*
X198600142Y-90270174D01*
G37*
D16*
G04 #@! TD*
G04 #@! TO.P,R5,1*
G04 #@! TO.N,Net-(Q1-Pad1)*
X198120000Y-90756500D03*
D15*
G04 #@! TO.N,GND*
G04 #@! TO.C,R5*
G36*
X198600142Y-92145174D02*
X198623803Y-92148684D01*
X198647007Y-92154496D01*
X198669529Y-92162554D01*
X198691153Y-92172782D01*
X198711670Y-92185079D01*
X198730883Y-92199329D01*
X198748607Y-92215393D01*
X198764671Y-92233117D01*
X198778921Y-92252330D01*
X198791218Y-92272847D01*
X198801446Y-92294471D01*
X198809504Y-92316993D01*
X198815316Y-92340197D01*
X198818826Y-92363858D01*
X198820000Y-92387750D01*
X198820000Y-92875250D01*
X198818826Y-92899142D01*
X198815316Y-92922803D01*
X198809504Y-92946007D01*
X198801446Y-92968529D01*
X198791218Y-92990153D01*
X198778921Y-93010670D01*
X198764671Y-93029883D01*
X198748607Y-93047607D01*
X198730883Y-93063671D01*
X198711670Y-93077921D01*
X198691153Y-93090218D01*
X198669529Y-93100446D01*
X198647007Y-93108504D01*
X198623803Y-93114316D01*
X198600142Y-93117826D01*
X198576250Y-93119000D01*
X197663750Y-93119000D01*
X197639858Y-93117826D01*
X197616197Y-93114316D01*
X197592993Y-93108504D01*
X197570471Y-93100446D01*
X197548847Y-93090218D01*
X197528330Y-93077921D01*
X197509117Y-93063671D01*
X197491393Y-93047607D01*
X197475329Y-93029883D01*
X197461079Y-93010670D01*
X197448782Y-92990153D01*
X197438554Y-92968529D01*
X197430496Y-92946007D01*
X197424684Y-92922803D01*
X197421174Y-92899142D01*
X197420000Y-92875250D01*
X197420000Y-92387750D01*
X197421174Y-92363858D01*
X197424684Y-92340197D01*
X197430496Y-92316993D01*
X197438554Y-92294471D01*
X197448782Y-92272847D01*
X197461079Y-92252330D01*
X197475329Y-92233117D01*
X197491393Y-92215393D01*
X197509117Y-92199329D01*
X197528330Y-92185079D01*
X197548847Y-92172782D01*
X197570471Y-92162554D01*
X197592993Y-92154496D01*
X197616197Y-92148684D01*
X197639858Y-92145174D01*
X197663750Y-92144000D01*
X198576250Y-92144000D01*
X198600142Y-92145174D01*
X198600142Y-92145174D01*
G37*
D16*
G04 #@! TD*
G04 #@! TO.P,R5,2*
G04 #@! TO.N,GND*
X198120000Y-92631500D03*
D24*
G04 #@! TO.P,SW1,*
G04 #@! TO.N,*
X205740000Y-99060000D03*
X205740000Y-90860000D03*
D25*
G04 #@! TO.P,SW1,3*
G04 #@! TO.N,GND*
X205740000Y-96960000D03*
G04 #@! TO.P,SW1,2*
G04 #@! TO.N,Net-(FAN1-Pad1)*
X205740000Y-94960000D03*
D26*
G04 #@! TO.P,SW1,1*
G04 #@! TO.N,Net-(Q1-Pad3)*
X205740000Y-92960000D03*
G04 #@! TD*
G04 #@! TO.P,SW2,1*
G04 #@! TO.N,Net-(Q2-Pad3)*
X193675000Y-104390000D03*
D25*
G04 #@! TO.P,SW2,2*
G04 #@! TO.N,Net-(FAN2-Pad1)*
X193675000Y-106390000D03*
G04 #@! TO.P,SW2,3*
G04 #@! TO.N,GND*
X193675000Y-108390000D03*
D24*
G04 #@! TO.P,SW2,*
G04 #@! TO.N,*
X193675000Y-102290000D03*
X193675000Y-110490000D03*
G04 #@! TD*
D27*
G04 #@! TO.P,U1,1*
G04 #@! TO.N,+12V*
X203708000Y-122936000D03*
D28*
G04 #@! TO.P,U1,2*
G04 #@! TO.N,GND*
X206248000Y-122936000D03*
G04 #@! TO.P,U1,3*
G04 #@! TO.N,+5V*
X208788000Y-122936000D03*
G04 #@! TD*
D29*
G04 #@! TO.N,/SIGPWM1*
X198045000Y-100400000D03*
G04 #@! TO.N,+3V3*
X198422500Y-86995000D03*
X209217500Y-86995000D03*
X206756000Y-102186500D03*
X193548000Y-90756500D03*
G04 #@! TO.N,GND*
X201676000Y-102186500D03*
X198120000Y-92631500D03*
X200184000Y-92644000D03*
X203232696Y-114560478D03*
X205167696Y-114560478D03*
G04 #@! TD*
D30*
G04 #@! TO.N,/NTC*
X208504000Y-93980000D02*
X208026000Y-93502000D01*
X209804000Y-93980000D02*
X208504000Y-93980000D01*
X204216000Y-86995000D02*
X207342500Y-86995000D01*
X208026000Y-87678500D02*
X207342500Y-86995000D01*
X208026000Y-93502000D02*
X208026000Y-87678500D01*
G04 #@! TO.N,/SIGON1*
X196088000Y-92044000D02*
X195738000Y-91694000D01*
X196088000Y-92631500D02*
X196088000Y-92044000D01*
X195738000Y-91694000D02*
X192151000Y-91694000D01*
X192151000Y-91694000D02*
X191516000Y-92329000D01*
X189659500Y-96520000D02*
X189484000Y-96520000D01*
X189584000Y-96520000D02*
X189484000Y-96520000D01*
X191192990Y-92652010D02*
X192151000Y-91694000D01*
X191192990Y-96111010D02*
X191192990Y-92652010D01*
X190784000Y-96520000D02*
X191192990Y-96111010D01*
X189484000Y-96520000D02*
X190784000Y-96520000D01*
G04 #@! TO.N,/SIGPWM1*
X189584000Y-101600000D02*
X189484000Y-101600000D01*
X198045000Y-100400000D02*
X190784000Y-100400000D01*
X190784000Y-100400000D02*
X189584000Y-101600000D01*
G04 #@! TO.N,/SIGTACH1*
X198120000Y-96670000D02*
X198120000Y-96520000D01*
X198120000Y-96520000D02*
X198120000Y-96370000D01*
X198120000Y-96370000D02*
X196929990Y-95179990D01*
X198120000Y-96370000D02*
X195730000Y-93980000D01*
X194896500Y-93980000D02*
X193548000Y-92631500D01*
X189584000Y-99060000D02*
X191643000Y-97001000D01*
X189484000Y-99060000D02*
X189584000Y-99060000D01*
X193114998Y-93980000D02*
X195453000Y-93980000D01*
X191643000Y-95451998D02*
X193114998Y-93980000D01*
X191643000Y-97001000D02*
X191643000Y-95451998D01*
X195730000Y-93980000D02*
X195453000Y-93980000D01*
X195453000Y-93980000D02*
X194896500Y-93980000D01*
G04 #@! TO.N,/SIGPWM2*
X206375000Y-107950000D02*
X205667928Y-107950000D01*
X206375000Y-108100000D02*
X206375000Y-107950000D01*
X189484000Y-104140000D02*
X189584000Y-104140000D01*
X189584000Y-104140000D02*
X191135000Y-105691000D01*
X191135000Y-105691000D02*
X191135000Y-111125000D01*
X191135000Y-111125000D02*
X192278000Y-112268000D01*
X192278000Y-112268000D02*
X202207000Y-112268000D01*
X202207000Y-112268000D02*
X206375000Y-108100000D01*
G04 #@! TO.N,/SIGTACH2*
X209704000Y-104140000D02*
X209804000Y-104140000D01*
X209725500Y-104061500D02*
X209804000Y-104140000D01*
X206756000Y-104061500D02*
X209725500Y-104061500D01*
X206756000Y-104879000D02*
X206756000Y-104061500D01*
X203835000Y-107800000D02*
X206756000Y-104879000D01*
X203835000Y-107950000D02*
X203835000Y-107800000D01*
G04 #@! TO.N,/SIGON2*
X203708000Y-102186500D02*
X204645500Y-103124000D01*
X209704000Y-101600000D02*
X209804000Y-101600000D01*
X208180000Y-103124000D02*
X209704000Y-101600000D01*
X204645500Y-103124000D02*
X208180000Y-103124000D01*
G04 #@! TO.N,+5V*
X208788000Y-116305782D02*
X207042696Y-114560478D01*
X208788000Y-122936000D02*
X208788000Y-116305782D01*
X209804000Y-111799174D02*
X209804000Y-111760000D01*
X207042696Y-114560478D02*
X209804000Y-111799174D01*
G04 #@! TO.N,GND*
X201815500Y-102174000D02*
X201803000Y-102186500D01*
X201663500Y-102174000D02*
X201676000Y-102186500D01*
X199628000Y-102174000D02*
X201663500Y-102174000D01*
X203232696Y-114560478D02*
X205167696Y-114560478D01*
D31*
G04 #@! TO.N,+12V*
X203708000Y-122436000D02*
X203708000Y-122936000D01*
X199636000Y-118364000D02*
X203708000Y-122436000D01*
X193040000Y-118364000D02*
X199636000Y-118364000D01*
X201357696Y-114560478D02*
X201357696Y-117537696D01*
X203708000Y-119888000D02*
X203708000Y-122936000D01*
X201357696Y-117537696D02*
X203708000Y-119888000D01*
X195580000Y-96520000D02*
X195580000Y-96670000D01*
D30*
G04 #@! TO.N,Net-(Q2-Pad1)*
X203695500Y-104074000D02*
X203708000Y-104061500D01*
X201663500Y-104074000D02*
X201676000Y-104061500D01*
X199628000Y-104074000D02*
X201663500Y-104074000D01*
X203708000Y-104061500D02*
X201676000Y-104061500D01*
G04 #@! TO.N,Net-(Q1-Pad1)*
X196088000Y-90756500D02*
X198120000Y-90756500D01*
X200171500Y-90756500D02*
X200184000Y-90744000D01*
X198120000Y-90756500D02*
X200171500Y-90756500D01*
D31*
G04 #@! TO.N,Net-(Q1-Pad3)*
X202184000Y-92344000D02*
X202184000Y-91694000D01*
X202800000Y-92960000D02*
X202184000Y-92344000D01*
X205740000Y-92960000D02*
X202800000Y-92960000D01*
G04 #@! TO.N,Net-(Q2-Pad3)*
X195662000Y-104390000D02*
X193675000Y-104390000D01*
X196928000Y-103124000D02*
X195662000Y-104390000D01*
X197628000Y-103124000D02*
X196928000Y-103124000D01*
D30*
G04 #@! TO.N,/FLOW*
X209704000Y-106680000D02*
X209804000Y-106680000D01*
X211455000Y-106329000D02*
X211104000Y-106680000D01*
X211104000Y-106680000D02*
X209804000Y-106680000D01*
X211455000Y-86995000D02*
X211455000Y-106329000D01*
X210185000Y-85725000D02*
X211455000Y-86995000D01*
X197817500Y-85725000D02*
X210185000Y-85725000D01*
X196547500Y-86995000D02*
X197817500Y-85725000D01*
X192405000Y-86995000D02*
X196547500Y-86995000D01*
G04 #@! TO.N,Net-(FAN2-Pad1)*
X196080000Y-106390000D02*
X193675000Y-106390000D01*
X197640000Y-107950000D02*
X196080000Y-106390000D01*
X198755000Y-107950000D02*
X197640000Y-107950000D01*
G04 #@! TO.N,Net-(FAN1-Pad1)*
X193040000Y-96670000D02*
X194668000Y-98298000D01*
X193040000Y-96520000D02*
X193040000Y-96670000D01*
X201902000Y-98298000D02*
X205240000Y-94960000D01*
X205240000Y-94960000D02*
X205740000Y-94960000D01*
X194668000Y-98298000D02*
X201902000Y-98298000D01*
G04 #@! TD*
M02*
