M48
;DRILL file {KiCad 5.0.0} date Tue Nov 27 11:53:57 2018
;FORMAT={-:-/ absolute / inch / decimal}
FMAT,2
INCH,TZ
T1C0.0157
T2C0.0354
T3C0.0394
T4C0.0402
T5C0.0591
%
G90
G05
M72
T1
X7.62Y-3.5731
X7.797Y-3.9528
X7.8Y-3.6469
X7.8119Y-3.425
X7.8813Y-3.6474
X7.94Y-4.0231
X8.0013Y-4.5103
X8.0775Y-4.5103
X8.14Y-4.0231
X8.2369Y-3.425
T2
X8.1Y-3.6598
X8.1Y-3.7386
X8.1Y-3.8173
X7.625Y-4.1098
X7.625Y-4.1886
X7.625Y-4.2673
T3
X7.94Y-3.425
X8.04Y-3.425
X8.02Y-4.84
X8.12Y-4.84
X8.22Y-4.84
X7.4766Y-3.425
X7.575Y-3.425
T4
X7.6Y-3.8
X7.7Y-3.8
X7.8Y-3.8
X7.9Y-3.8
X7.825Y-4.25
X7.925Y-4.25
X8.025Y-4.25
X8.125Y-4.25
X7.46Y-3.6
X7.46Y-3.7
X7.46Y-3.8
X7.46Y-3.9
X7.46Y-4.
X7.46Y-4.1
X7.46Y-4.2
X7.46Y-4.3
X7.46Y-4.4
X7.46Y-4.5
X8.26Y-3.6
X8.26Y-3.7
X8.26Y-3.8
X8.26Y-3.9
X8.26Y-4.
X8.26Y-4.1
X8.26Y-4.2
X8.26Y-4.3
X8.26Y-4.4
X8.26Y-4.5
T5
X8.1Y-3.5772
X8.1Y-3.9
X7.625Y-4.0272
X7.625Y-4.35
T3
X7.5606Y-4.66G85X7.6394Y-4.66
G05
X7.5606Y-4.8962G85X7.6394Y-4.8962
G05
X7.785Y-4.8175G85X7.785Y-4.7387
G05
T0
M30
