G04 #@! TF.GenerationSoftware,KiCad,Pcbnew,5.0.0*
G04 #@! TF.CreationDate,2018-11-28T10:21:33-08:00*
G04 #@! TF.ProjectId,fanpower,66616E706F7765722E6B696361645F70,rev?*
G04 #@! TF.SameCoordinates,Original*
G04 #@! TF.FileFunction,Paste,Top*
G04 #@! TF.FilePolarity,Positive*
%FSLAX46Y46*%
G04 Gerber Fmt 4.6, Leading zero omitted, Abs format (unit mm)*
G04 Created by KiCad (PCBNEW 5.0.0) date Wed Nov 28 10:21:33 2018*
%MOMM*%
%LPD*%
G01*
G04 APERTURE LIST*
%ADD10R,0.900000X0.800000*%
%ADD11C,0.100000*%
%ADD12C,0.975000*%
G04 APERTURE END LIST*
D10*
G04 #@! TO.C,Q2*
X197628000Y-103124000D03*
X199628000Y-102174000D03*
X199628000Y-104074000D03*
G04 #@! TD*
G04 #@! TO.C,Q1*
X200184000Y-90744000D03*
X200184000Y-92644000D03*
X202184000Y-91694000D03*
G04 #@! TD*
D11*
G04 #@! TO.C,R9*
G36*
X207236142Y-103575174D02*
X207259803Y-103578684D01*
X207283007Y-103584496D01*
X207305529Y-103592554D01*
X207327153Y-103602782D01*
X207347670Y-103615079D01*
X207366883Y-103629329D01*
X207384607Y-103645393D01*
X207400671Y-103663117D01*
X207414921Y-103682330D01*
X207427218Y-103702847D01*
X207437446Y-103724471D01*
X207445504Y-103746993D01*
X207451316Y-103770197D01*
X207454826Y-103793858D01*
X207456000Y-103817750D01*
X207456000Y-104305250D01*
X207454826Y-104329142D01*
X207451316Y-104352803D01*
X207445504Y-104376007D01*
X207437446Y-104398529D01*
X207427218Y-104420153D01*
X207414921Y-104440670D01*
X207400671Y-104459883D01*
X207384607Y-104477607D01*
X207366883Y-104493671D01*
X207347670Y-104507921D01*
X207327153Y-104520218D01*
X207305529Y-104530446D01*
X207283007Y-104538504D01*
X207259803Y-104544316D01*
X207236142Y-104547826D01*
X207212250Y-104549000D01*
X206299750Y-104549000D01*
X206275858Y-104547826D01*
X206252197Y-104544316D01*
X206228993Y-104538504D01*
X206206471Y-104530446D01*
X206184847Y-104520218D01*
X206164330Y-104507921D01*
X206145117Y-104493671D01*
X206127393Y-104477607D01*
X206111329Y-104459883D01*
X206097079Y-104440670D01*
X206084782Y-104420153D01*
X206074554Y-104398529D01*
X206066496Y-104376007D01*
X206060684Y-104352803D01*
X206057174Y-104329142D01*
X206056000Y-104305250D01*
X206056000Y-103817750D01*
X206057174Y-103793858D01*
X206060684Y-103770197D01*
X206066496Y-103746993D01*
X206074554Y-103724471D01*
X206084782Y-103702847D01*
X206097079Y-103682330D01*
X206111329Y-103663117D01*
X206127393Y-103645393D01*
X206145117Y-103629329D01*
X206164330Y-103615079D01*
X206184847Y-103602782D01*
X206206471Y-103592554D01*
X206228993Y-103584496D01*
X206252197Y-103578684D01*
X206275858Y-103575174D01*
X206299750Y-103574000D01*
X207212250Y-103574000D01*
X207236142Y-103575174D01*
X207236142Y-103575174D01*
G37*
D12*
X206756000Y-104061500D03*
D11*
G36*
X207236142Y-101700174D02*
X207259803Y-101703684D01*
X207283007Y-101709496D01*
X207305529Y-101717554D01*
X207327153Y-101727782D01*
X207347670Y-101740079D01*
X207366883Y-101754329D01*
X207384607Y-101770393D01*
X207400671Y-101788117D01*
X207414921Y-101807330D01*
X207427218Y-101827847D01*
X207437446Y-101849471D01*
X207445504Y-101871993D01*
X207451316Y-101895197D01*
X207454826Y-101918858D01*
X207456000Y-101942750D01*
X207456000Y-102430250D01*
X207454826Y-102454142D01*
X207451316Y-102477803D01*
X207445504Y-102501007D01*
X207437446Y-102523529D01*
X207427218Y-102545153D01*
X207414921Y-102565670D01*
X207400671Y-102584883D01*
X207384607Y-102602607D01*
X207366883Y-102618671D01*
X207347670Y-102632921D01*
X207327153Y-102645218D01*
X207305529Y-102655446D01*
X207283007Y-102663504D01*
X207259803Y-102669316D01*
X207236142Y-102672826D01*
X207212250Y-102674000D01*
X206299750Y-102674000D01*
X206275858Y-102672826D01*
X206252197Y-102669316D01*
X206228993Y-102663504D01*
X206206471Y-102655446D01*
X206184847Y-102645218D01*
X206164330Y-102632921D01*
X206145117Y-102618671D01*
X206127393Y-102602607D01*
X206111329Y-102584883D01*
X206097079Y-102565670D01*
X206084782Y-102545153D01*
X206074554Y-102523529D01*
X206066496Y-102501007D01*
X206060684Y-102477803D01*
X206057174Y-102454142D01*
X206056000Y-102430250D01*
X206056000Y-101942750D01*
X206057174Y-101918858D01*
X206060684Y-101895197D01*
X206066496Y-101871993D01*
X206074554Y-101849471D01*
X206084782Y-101827847D01*
X206097079Y-101807330D01*
X206111329Y-101788117D01*
X206127393Y-101770393D01*
X206145117Y-101754329D01*
X206164330Y-101740079D01*
X206184847Y-101727782D01*
X206206471Y-101717554D01*
X206228993Y-101709496D01*
X206252197Y-101703684D01*
X206275858Y-101700174D01*
X206299750Y-101699000D01*
X207212250Y-101699000D01*
X207236142Y-101700174D01*
X207236142Y-101700174D01*
G37*
D12*
X206756000Y-102186500D03*
G04 #@! TD*
D11*
G04 #@! TO.C,R6*
G36*
X194028142Y-90270174D02*
X194051803Y-90273684D01*
X194075007Y-90279496D01*
X194097529Y-90287554D01*
X194119153Y-90297782D01*
X194139670Y-90310079D01*
X194158883Y-90324329D01*
X194176607Y-90340393D01*
X194192671Y-90358117D01*
X194206921Y-90377330D01*
X194219218Y-90397847D01*
X194229446Y-90419471D01*
X194237504Y-90441993D01*
X194243316Y-90465197D01*
X194246826Y-90488858D01*
X194248000Y-90512750D01*
X194248000Y-91000250D01*
X194246826Y-91024142D01*
X194243316Y-91047803D01*
X194237504Y-91071007D01*
X194229446Y-91093529D01*
X194219218Y-91115153D01*
X194206921Y-91135670D01*
X194192671Y-91154883D01*
X194176607Y-91172607D01*
X194158883Y-91188671D01*
X194139670Y-91202921D01*
X194119153Y-91215218D01*
X194097529Y-91225446D01*
X194075007Y-91233504D01*
X194051803Y-91239316D01*
X194028142Y-91242826D01*
X194004250Y-91244000D01*
X193091750Y-91244000D01*
X193067858Y-91242826D01*
X193044197Y-91239316D01*
X193020993Y-91233504D01*
X192998471Y-91225446D01*
X192976847Y-91215218D01*
X192956330Y-91202921D01*
X192937117Y-91188671D01*
X192919393Y-91172607D01*
X192903329Y-91154883D01*
X192889079Y-91135670D01*
X192876782Y-91115153D01*
X192866554Y-91093529D01*
X192858496Y-91071007D01*
X192852684Y-91047803D01*
X192849174Y-91024142D01*
X192848000Y-91000250D01*
X192848000Y-90512750D01*
X192849174Y-90488858D01*
X192852684Y-90465197D01*
X192858496Y-90441993D01*
X192866554Y-90419471D01*
X192876782Y-90397847D01*
X192889079Y-90377330D01*
X192903329Y-90358117D01*
X192919393Y-90340393D01*
X192937117Y-90324329D01*
X192956330Y-90310079D01*
X192976847Y-90297782D01*
X192998471Y-90287554D01*
X193020993Y-90279496D01*
X193044197Y-90273684D01*
X193067858Y-90270174D01*
X193091750Y-90269000D01*
X194004250Y-90269000D01*
X194028142Y-90270174D01*
X194028142Y-90270174D01*
G37*
D12*
X193548000Y-90756500D03*
D11*
G36*
X194028142Y-92145174D02*
X194051803Y-92148684D01*
X194075007Y-92154496D01*
X194097529Y-92162554D01*
X194119153Y-92172782D01*
X194139670Y-92185079D01*
X194158883Y-92199329D01*
X194176607Y-92215393D01*
X194192671Y-92233117D01*
X194206921Y-92252330D01*
X194219218Y-92272847D01*
X194229446Y-92294471D01*
X194237504Y-92316993D01*
X194243316Y-92340197D01*
X194246826Y-92363858D01*
X194248000Y-92387750D01*
X194248000Y-92875250D01*
X194246826Y-92899142D01*
X194243316Y-92922803D01*
X194237504Y-92946007D01*
X194229446Y-92968529D01*
X194219218Y-92990153D01*
X194206921Y-93010670D01*
X194192671Y-93029883D01*
X194176607Y-93047607D01*
X194158883Y-93063671D01*
X194139670Y-93077921D01*
X194119153Y-93090218D01*
X194097529Y-93100446D01*
X194075007Y-93108504D01*
X194051803Y-93114316D01*
X194028142Y-93117826D01*
X194004250Y-93119000D01*
X193091750Y-93119000D01*
X193067858Y-93117826D01*
X193044197Y-93114316D01*
X193020993Y-93108504D01*
X192998471Y-93100446D01*
X192976847Y-93090218D01*
X192956330Y-93077921D01*
X192937117Y-93063671D01*
X192919393Y-93047607D01*
X192903329Y-93029883D01*
X192889079Y-93010670D01*
X192876782Y-92990153D01*
X192866554Y-92968529D01*
X192858496Y-92946007D01*
X192852684Y-92922803D01*
X192849174Y-92899142D01*
X192848000Y-92875250D01*
X192848000Y-92387750D01*
X192849174Y-92363858D01*
X192852684Y-92340197D01*
X192858496Y-92316993D01*
X192866554Y-92294471D01*
X192876782Y-92272847D01*
X192889079Y-92252330D01*
X192903329Y-92233117D01*
X192919393Y-92215393D01*
X192937117Y-92199329D01*
X192956330Y-92185079D01*
X192976847Y-92172782D01*
X192998471Y-92162554D01*
X193020993Y-92154496D01*
X193044197Y-92148684D01*
X193067858Y-92145174D01*
X193091750Y-92144000D01*
X194004250Y-92144000D01*
X194028142Y-92145174D01*
X194028142Y-92145174D01*
G37*
D12*
X193548000Y-92631500D03*
G04 #@! TD*
D11*
G04 #@! TO.C,R7*
G36*
X204188142Y-101700174D02*
X204211803Y-101703684D01*
X204235007Y-101709496D01*
X204257529Y-101717554D01*
X204279153Y-101727782D01*
X204299670Y-101740079D01*
X204318883Y-101754329D01*
X204336607Y-101770393D01*
X204352671Y-101788117D01*
X204366921Y-101807330D01*
X204379218Y-101827847D01*
X204389446Y-101849471D01*
X204397504Y-101871993D01*
X204403316Y-101895197D01*
X204406826Y-101918858D01*
X204408000Y-101942750D01*
X204408000Y-102430250D01*
X204406826Y-102454142D01*
X204403316Y-102477803D01*
X204397504Y-102501007D01*
X204389446Y-102523529D01*
X204379218Y-102545153D01*
X204366921Y-102565670D01*
X204352671Y-102584883D01*
X204336607Y-102602607D01*
X204318883Y-102618671D01*
X204299670Y-102632921D01*
X204279153Y-102645218D01*
X204257529Y-102655446D01*
X204235007Y-102663504D01*
X204211803Y-102669316D01*
X204188142Y-102672826D01*
X204164250Y-102674000D01*
X203251750Y-102674000D01*
X203227858Y-102672826D01*
X203204197Y-102669316D01*
X203180993Y-102663504D01*
X203158471Y-102655446D01*
X203136847Y-102645218D01*
X203116330Y-102632921D01*
X203097117Y-102618671D01*
X203079393Y-102602607D01*
X203063329Y-102584883D01*
X203049079Y-102565670D01*
X203036782Y-102545153D01*
X203026554Y-102523529D01*
X203018496Y-102501007D01*
X203012684Y-102477803D01*
X203009174Y-102454142D01*
X203008000Y-102430250D01*
X203008000Y-101942750D01*
X203009174Y-101918858D01*
X203012684Y-101895197D01*
X203018496Y-101871993D01*
X203026554Y-101849471D01*
X203036782Y-101827847D01*
X203049079Y-101807330D01*
X203063329Y-101788117D01*
X203079393Y-101770393D01*
X203097117Y-101754329D01*
X203116330Y-101740079D01*
X203136847Y-101727782D01*
X203158471Y-101717554D01*
X203180993Y-101709496D01*
X203204197Y-101703684D01*
X203227858Y-101700174D01*
X203251750Y-101699000D01*
X204164250Y-101699000D01*
X204188142Y-101700174D01*
X204188142Y-101700174D01*
G37*
D12*
X203708000Y-102186500D03*
D11*
G36*
X204188142Y-103575174D02*
X204211803Y-103578684D01*
X204235007Y-103584496D01*
X204257529Y-103592554D01*
X204279153Y-103602782D01*
X204299670Y-103615079D01*
X204318883Y-103629329D01*
X204336607Y-103645393D01*
X204352671Y-103663117D01*
X204366921Y-103682330D01*
X204379218Y-103702847D01*
X204389446Y-103724471D01*
X204397504Y-103746993D01*
X204403316Y-103770197D01*
X204406826Y-103793858D01*
X204408000Y-103817750D01*
X204408000Y-104305250D01*
X204406826Y-104329142D01*
X204403316Y-104352803D01*
X204397504Y-104376007D01*
X204389446Y-104398529D01*
X204379218Y-104420153D01*
X204366921Y-104440670D01*
X204352671Y-104459883D01*
X204336607Y-104477607D01*
X204318883Y-104493671D01*
X204299670Y-104507921D01*
X204279153Y-104520218D01*
X204257529Y-104530446D01*
X204235007Y-104538504D01*
X204211803Y-104544316D01*
X204188142Y-104547826D01*
X204164250Y-104549000D01*
X203251750Y-104549000D01*
X203227858Y-104547826D01*
X203204197Y-104544316D01*
X203180993Y-104538504D01*
X203158471Y-104530446D01*
X203136847Y-104520218D01*
X203116330Y-104507921D01*
X203097117Y-104493671D01*
X203079393Y-104477607D01*
X203063329Y-104459883D01*
X203049079Y-104440670D01*
X203036782Y-104420153D01*
X203026554Y-104398529D01*
X203018496Y-104376007D01*
X203012684Y-104352803D01*
X203009174Y-104329142D01*
X203008000Y-104305250D01*
X203008000Y-103817750D01*
X203009174Y-103793858D01*
X203012684Y-103770197D01*
X203018496Y-103746993D01*
X203026554Y-103724471D01*
X203036782Y-103702847D01*
X203049079Y-103682330D01*
X203063329Y-103663117D01*
X203079393Y-103645393D01*
X203097117Y-103629329D01*
X203116330Y-103615079D01*
X203136847Y-103602782D01*
X203158471Y-103592554D01*
X203180993Y-103584496D01*
X203204197Y-103578684D01*
X203227858Y-103575174D01*
X203251750Y-103574000D01*
X204164250Y-103574000D01*
X204188142Y-103575174D01*
X204188142Y-103575174D01*
G37*
D12*
X203708000Y-104061500D03*
G04 #@! TD*
D11*
G04 #@! TO.C,R8*
G36*
X202156142Y-103575174D02*
X202179803Y-103578684D01*
X202203007Y-103584496D01*
X202225529Y-103592554D01*
X202247153Y-103602782D01*
X202267670Y-103615079D01*
X202286883Y-103629329D01*
X202304607Y-103645393D01*
X202320671Y-103663117D01*
X202334921Y-103682330D01*
X202347218Y-103702847D01*
X202357446Y-103724471D01*
X202365504Y-103746993D01*
X202371316Y-103770197D01*
X202374826Y-103793858D01*
X202376000Y-103817750D01*
X202376000Y-104305250D01*
X202374826Y-104329142D01*
X202371316Y-104352803D01*
X202365504Y-104376007D01*
X202357446Y-104398529D01*
X202347218Y-104420153D01*
X202334921Y-104440670D01*
X202320671Y-104459883D01*
X202304607Y-104477607D01*
X202286883Y-104493671D01*
X202267670Y-104507921D01*
X202247153Y-104520218D01*
X202225529Y-104530446D01*
X202203007Y-104538504D01*
X202179803Y-104544316D01*
X202156142Y-104547826D01*
X202132250Y-104549000D01*
X201219750Y-104549000D01*
X201195858Y-104547826D01*
X201172197Y-104544316D01*
X201148993Y-104538504D01*
X201126471Y-104530446D01*
X201104847Y-104520218D01*
X201084330Y-104507921D01*
X201065117Y-104493671D01*
X201047393Y-104477607D01*
X201031329Y-104459883D01*
X201017079Y-104440670D01*
X201004782Y-104420153D01*
X200994554Y-104398529D01*
X200986496Y-104376007D01*
X200980684Y-104352803D01*
X200977174Y-104329142D01*
X200976000Y-104305250D01*
X200976000Y-103817750D01*
X200977174Y-103793858D01*
X200980684Y-103770197D01*
X200986496Y-103746993D01*
X200994554Y-103724471D01*
X201004782Y-103702847D01*
X201017079Y-103682330D01*
X201031329Y-103663117D01*
X201047393Y-103645393D01*
X201065117Y-103629329D01*
X201084330Y-103615079D01*
X201104847Y-103602782D01*
X201126471Y-103592554D01*
X201148993Y-103584496D01*
X201172197Y-103578684D01*
X201195858Y-103575174D01*
X201219750Y-103574000D01*
X202132250Y-103574000D01*
X202156142Y-103575174D01*
X202156142Y-103575174D01*
G37*
D12*
X201676000Y-104061500D03*
D11*
G36*
X202156142Y-101700174D02*
X202179803Y-101703684D01*
X202203007Y-101709496D01*
X202225529Y-101717554D01*
X202247153Y-101727782D01*
X202267670Y-101740079D01*
X202286883Y-101754329D01*
X202304607Y-101770393D01*
X202320671Y-101788117D01*
X202334921Y-101807330D01*
X202347218Y-101827847D01*
X202357446Y-101849471D01*
X202365504Y-101871993D01*
X202371316Y-101895197D01*
X202374826Y-101918858D01*
X202376000Y-101942750D01*
X202376000Y-102430250D01*
X202374826Y-102454142D01*
X202371316Y-102477803D01*
X202365504Y-102501007D01*
X202357446Y-102523529D01*
X202347218Y-102545153D01*
X202334921Y-102565670D01*
X202320671Y-102584883D01*
X202304607Y-102602607D01*
X202286883Y-102618671D01*
X202267670Y-102632921D01*
X202247153Y-102645218D01*
X202225529Y-102655446D01*
X202203007Y-102663504D01*
X202179803Y-102669316D01*
X202156142Y-102672826D01*
X202132250Y-102674000D01*
X201219750Y-102674000D01*
X201195858Y-102672826D01*
X201172197Y-102669316D01*
X201148993Y-102663504D01*
X201126471Y-102655446D01*
X201104847Y-102645218D01*
X201084330Y-102632921D01*
X201065117Y-102618671D01*
X201047393Y-102602607D01*
X201031329Y-102584883D01*
X201017079Y-102565670D01*
X201004782Y-102545153D01*
X200994554Y-102523529D01*
X200986496Y-102501007D01*
X200980684Y-102477803D01*
X200977174Y-102454142D01*
X200976000Y-102430250D01*
X200976000Y-101942750D01*
X200977174Y-101918858D01*
X200980684Y-101895197D01*
X200986496Y-101871993D01*
X200994554Y-101849471D01*
X201004782Y-101827847D01*
X201017079Y-101807330D01*
X201031329Y-101788117D01*
X201047393Y-101770393D01*
X201065117Y-101754329D01*
X201084330Y-101740079D01*
X201104847Y-101727782D01*
X201126471Y-101717554D01*
X201148993Y-101709496D01*
X201172197Y-101703684D01*
X201195858Y-101700174D01*
X201219750Y-101699000D01*
X202132250Y-101699000D01*
X202156142Y-101700174D01*
X202156142Y-101700174D01*
G37*
D12*
X201676000Y-102186500D03*
G04 #@! TD*
D11*
G04 #@! TO.C,C1*
G36*
X201625338Y-113861652D02*
X201648999Y-113865162D01*
X201672203Y-113870974D01*
X201694725Y-113879032D01*
X201716349Y-113889260D01*
X201736866Y-113901557D01*
X201756079Y-113915807D01*
X201773803Y-113931871D01*
X201789867Y-113949595D01*
X201804117Y-113968808D01*
X201816414Y-113989325D01*
X201826642Y-114010949D01*
X201834700Y-114033471D01*
X201840512Y-114056675D01*
X201844022Y-114080336D01*
X201845196Y-114104228D01*
X201845196Y-115016728D01*
X201844022Y-115040620D01*
X201840512Y-115064281D01*
X201834700Y-115087485D01*
X201826642Y-115110007D01*
X201816414Y-115131631D01*
X201804117Y-115152148D01*
X201789867Y-115171361D01*
X201773803Y-115189085D01*
X201756079Y-115205149D01*
X201736866Y-115219399D01*
X201716349Y-115231696D01*
X201694725Y-115241924D01*
X201672203Y-115249982D01*
X201648999Y-115255794D01*
X201625338Y-115259304D01*
X201601446Y-115260478D01*
X201113946Y-115260478D01*
X201090054Y-115259304D01*
X201066393Y-115255794D01*
X201043189Y-115249982D01*
X201020667Y-115241924D01*
X200999043Y-115231696D01*
X200978526Y-115219399D01*
X200959313Y-115205149D01*
X200941589Y-115189085D01*
X200925525Y-115171361D01*
X200911275Y-115152148D01*
X200898978Y-115131631D01*
X200888750Y-115110007D01*
X200880692Y-115087485D01*
X200874880Y-115064281D01*
X200871370Y-115040620D01*
X200870196Y-115016728D01*
X200870196Y-114104228D01*
X200871370Y-114080336D01*
X200874880Y-114056675D01*
X200880692Y-114033471D01*
X200888750Y-114010949D01*
X200898978Y-113989325D01*
X200911275Y-113968808D01*
X200925525Y-113949595D01*
X200941589Y-113931871D01*
X200959313Y-113915807D01*
X200978526Y-113901557D01*
X200999043Y-113889260D01*
X201020667Y-113879032D01*
X201043189Y-113870974D01*
X201066393Y-113865162D01*
X201090054Y-113861652D01*
X201113946Y-113860478D01*
X201601446Y-113860478D01*
X201625338Y-113861652D01*
X201625338Y-113861652D01*
G37*
D12*
X201357696Y-114560478D03*
D11*
G36*
X203500338Y-113861652D02*
X203523999Y-113865162D01*
X203547203Y-113870974D01*
X203569725Y-113879032D01*
X203591349Y-113889260D01*
X203611866Y-113901557D01*
X203631079Y-113915807D01*
X203648803Y-113931871D01*
X203664867Y-113949595D01*
X203679117Y-113968808D01*
X203691414Y-113989325D01*
X203701642Y-114010949D01*
X203709700Y-114033471D01*
X203715512Y-114056675D01*
X203719022Y-114080336D01*
X203720196Y-114104228D01*
X203720196Y-115016728D01*
X203719022Y-115040620D01*
X203715512Y-115064281D01*
X203709700Y-115087485D01*
X203701642Y-115110007D01*
X203691414Y-115131631D01*
X203679117Y-115152148D01*
X203664867Y-115171361D01*
X203648803Y-115189085D01*
X203631079Y-115205149D01*
X203611866Y-115219399D01*
X203591349Y-115231696D01*
X203569725Y-115241924D01*
X203547203Y-115249982D01*
X203523999Y-115255794D01*
X203500338Y-115259304D01*
X203476446Y-115260478D01*
X202988946Y-115260478D01*
X202965054Y-115259304D01*
X202941393Y-115255794D01*
X202918189Y-115249982D01*
X202895667Y-115241924D01*
X202874043Y-115231696D01*
X202853526Y-115219399D01*
X202834313Y-115205149D01*
X202816589Y-115189085D01*
X202800525Y-115171361D01*
X202786275Y-115152148D01*
X202773978Y-115131631D01*
X202763750Y-115110007D01*
X202755692Y-115087485D01*
X202749880Y-115064281D01*
X202746370Y-115040620D01*
X202745196Y-115016728D01*
X202745196Y-114104228D01*
X202746370Y-114080336D01*
X202749880Y-114056675D01*
X202755692Y-114033471D01*
X202763750Y-114010949D01*
X202773978Y-113989325D01*
X202786275Y-113968808D01*
X202800525Y-113949595D01*
X202816589Y-113931871D01*
X202834313Y-113915807D01*
X202853526Y-113901557D01*
X202874043Y-113889260D01*
X202895667Y-113879032D01*
X202918189Y-113870974D01*
X202941393Y-113865162D01*
X202965054Y-113861652D01*
X202988946Y-113860478D01*
X203476446Y-113860478D01*
X203500338Y-113861652D01*
X203500338Y-113861652D01*
G37*
D12*
X203232696Y-114560478D03*
G04 #@! TD*
D11*
G04 #@! TO.C,C2*
G36*
X205435338Y-113861652D02*
X205458999Y-113865162D01*
X205482203Y-113870974D01*
X205504725Y-113879032D01*
X205526349Y-113889260D01*
X205546866Y-113901557D01*
X205566079Y-113915807D01*
X205583803Y-113931871D01*
X205599867Y-113949595D01*
X205614117Y-113968808D01*
X205626414Y-113989325D01*
X205636642Y-114010949D01*
X205644700Y-114033471D01*
X205650512Y-114056675D01*
X205654022Y-114080336D01*
X205655196Y-114104228D01*
X205655196Y-115016728D01*
X205654022Y-115040620D01*
X205650512Y-115064281D01*
X205644700Y-115087485D01*
X205636642Y-115110007D01*
X205626414Y-115131631D01*
X205614117Y-115152148D01*
X205599867Y-115171361D01*
X205583803Y-115189085D01*
X205566079Y-115205149D01*
X205546866Y-115219399D01*
X205526349Y-115231696D01*
X205504725Y-115241924D01*
X205482203Y-115249982D01*
X205458999Y-115255794D01*
X205435338Y-115259304D01*
X205411446Y-115260478D01*
X204923946Y-115260478D01*
X204900054Y-115259304D01*
X204876393Y-115255794D01*
X204853189Y-115249982D01*
X204830667Y-115241924D01*
X204809043Y-115231696D01*
X204788526Y-115219399D01*
X204769313Y-115205149D01*
X204751589Y-115189085D01*
X204735525Y-115171361D01*
X204721275Y-115152148D01*
X204708978Y-115131631D01*
X204698750Y-115110007D01*
X204690692Y-115087485D01*
X204684880Y-115064281D01*
X204681370Y-115040620D01*
X204680196Y-115016728D01*
X204680196Y-114104228D01*
X204681370Y-114080336D01*
X204684880Y-114056675D01*
X204690692Y-114033471D01*
X204698750Y-114010949D01*
X204708978Y-113989325D01*
X204721275Y-113968808D01*
X204735525Y-113949595D01*
X204751589Y-113931871D01*
X204769313Y-113915807D01*
X204788526Y-113901557D01*
X204809043Y-113889260D01*
X204830667Y-113879032D01*
X204853189Y-113870974D01*
X204876393Y-113865162D01*
X204900054Y-113861652D01*
X204923946Y-113860478D01*
X205411446Y-113860478D01*
X205435338Y-113861652D01*
X205435338Y-113861652D01*
G37*
D12*
X205167696Y-114560478D03*
D11*
G36*
X207310338Y-113861652D02*
X207333999Y-113865162D01*
X207357203Y-113870974D01*
X207379725Y-113879032D01*
X207401349Y-113889260D01*
X207421866Y-113901557D01*
X207441079Y-113915807D01*
X207458803Y-113931871D01*
X207474867Y-113949595D01*
X207489117Y-113968808D01*
X207501414Y-113989325D01*
X207511642Y-114010949D01*
X207519700Y-114033471D01*
X207525512Y-114056675D01*
X207529022Y-114080336D01*
X207530196Y-114104228D01*
X207530196Y-115016728D01*
X207529022Y-115040620D01*
X207525512Y-115064281D01*
X207519700Y-115087485D01*
X207511642Y-115110007D01*
X207501414Y-115131631D01*
X207489117Y-115152148D01*
X207474867Y-115171361D01*
X207458803Y-115189085D01*
X207441079Y-115205149D01*
X207421866Y-115219399D01*
X207401349Y-115231696D01*
X207379725Y-115241924D01*
X207357203Y-115249982D01*
X207333999Y-115255794D01*
X207310338Y-115259304D01*
X207286446Y-115260478D01*
X206798946Y-115260478D01*
X206775054Y-115259304D01*
X206751393Y-115255794D01*
X206728189Y-115249982D01*
X206705667Y-115241924D01*
X206684043Y-115231696D01*
X206663526Y-115219399D01*
X206644313Y-115205149D01*
X206626589Y-115189085D01*
X206610525Y-115171361D01*
X206596275Y-115152148D01*
X206583978Y-115131631D01*
X206573750Y-115110007D01*
X206565692Y-115087485D01*
X206559880Y-115064281D01*
X206556370Y-115040620D01*
X206555196Y-115016728D01*
X206555196Y-114104228D01*
X206556370Y-114080336D01*
X206559880Y-114056675D01*
X206565692Y-114033471D01*
X206573750Y-114010949D01*
X206583978Y-113989325D01*
X206596275Y-113968808D01*
X206610525Y-113949595D01*
X206626589Y-113931871D01*
X206644313Y-113915807D01*
X206663526Y-113901557D01*
X206684043Y-113889260D01*
X206705667Y-113879032D01*
X206728189Y-113870974D01*
X206751393Y-113865162D01*
X206775054Y-113861652D01*
X206798946Y-113860478D01*
X207286446Y-113860478D01*
X207310338Y-113861652D01*
X207310338Y-113861652D01*
G37*
D12*
X207042696Y-114560478D03*
G04 #@! TD*
D11*
G04 #@! TO.C,R1*
G36*
X207610142Y-86296174D02*
X207633803Y-86299684D01*
X207657007Y-86305496D01*
X207679529Y-86313554D01*
X207701153Y-86323782D01*
X207721670Y-86336079D01*
X207740883Y-86350329D01*
X207758607Y-86366393D01*
X207774671Y-86384117D01*
X207788921Y-86403330D01*
X207801218Y-86423847D01*
X207811446Y-86445471D01*
X207819504Y-86467993D01*
X207825316Y-86491197D01*
X207828826Y-86514858D01*
X207830000Y-86538750D01*
X207830000Y-87451250D01*
X207828826Y-87475142D01*
X207825316Y-87498803D01*
X207819504Y-87522007D01*
X207811446Y-87544529D01*
X207801218Y-87566153D01*
X207788921Y-87586670D01*
X207774671Y-87605883D01*
X207758607Y-87623607D01*
X207740883Y-87639671D01*
X207721670Y-87653921D01*
X207701153Y-87666218D01*
X207679529Y-87676446D01*
X207657007Y-87684504D01*
X207633803Y-87690316D01*
X207610142Y-87693826D01*
X207586250Y-87695000D01*
X207098750Y-87695000D01*
X207074858Y-87693826D01*
X207051197Y-87690316D01*
X207027993Y-87684504D01*
X207005471Y-87676446D01*
X206983847Y-87666218D01*
X206963330Y-87653921D01*
X206944117Y-87639671D01*
X206926393Y-87623607D01*
X206910329Y-87605883D01*
X206896079Y-87586670D01*
X206883782Y-87566153D01*
X206873554Y-87544529D01*
X206865496Y-87522007D01*
X206859684Y-87498803D01*
X206856174Y-87475142D01*
X206855000Y-87451250D01*
X206855000Y-86538750D01*
X206856174Y-86514858D01*
X206859684Y-86491197D01*
X206865496Y-86467993D01*
X206873554Y-86445471D01*
X206883782Y-86423847D01*
X206896079Y-86403330D01*
X206910329Y-86384117D01*
X206926393Y-86366393D01*
X206944117Y-86350329D01*
X206963330Y-86336079D01*
X206983847Y-86323782D01*
X207005471Y-86313554D01*
X207027993Y-86305496D01*
X207051197Y-86299684D01*
X207074858Y-86296174D01*
X207098750Y-86295000D01*
X207586250Y-86295000D01*
X207610142Y-86296174D01*
X207610142Y-86296174D01*
G37*
D12*
X207342500Y-86995000D03*
D11*
G36*
X209485142Y-86296174D02*
X209508803Y-86299684D01*
X209532007Y-86305496D01*
X209554529Y-86313554D01*
X209576153Y-86323782D01*
X209596670Y-86336079D01*
X209615883Y-86350329D01*
X209633607Y-86366393D01*
X209649671Y-86384117D01*
X209663921Y-86403330D01*
X209676218Y-86423847D01*
X209686446Y-86445471D01*
X209694504Y-86467993D01*
X209700316Y-86491197D01*
X209703826Y-86514858D01*
X209705000Y-86538750D01*
X209705000Y-87451250D01*
X209703826Y-87475142D01*
X209700316Y-87498803D01*
X209694504Y-87522007D01*
X209686446Y-87544529D01*
X209676218Y-87566153D01*
X209663921Y-87586670D01*
X209649671Y-87605883D01*
X209633607Y-87623607D01*
X209615883Y-87639671D01*
X209596670Y-87653921D01*
X209576153Y-87666218D01*
X209554529Y-87676446D01*
X209532007Y-87684504D01*
X209508803Y-87690316D01*
X209485142Y-87693826D01*
X209461250Y-87695000D01*
X208973750Y-87695000D01*
X208949858Y-87693826D01*
X208926197Y-87690316D01*
X208902993Y-87684504D01*
X208880471Y-87676446D01*
X208858847Y-87666218D01*
X208838330Y-87653921D01*
X208819117Y-87639671D01*
X208801393Y-87623607D01*
X208785329Y-87605883D01*
X208771079Y-87586670D01*
X208758782Y-87566153D01*
X208748554Y-87544529D01*
X208740496Y-87522007D01*
X208734684Y-87498803D01*
X208731174Y-87475142D01*
X208730000Y-87451250D01*
X208730000Y-86538750D01*
X208731174Y-86514858D01*
X208734684Y-86491197D01*
X208740496Y-86467993D01*
X208748554Y-86445471D01*
X208758782Y-86423847D01*
X208771079Y-86403330D01*
X208785329Y-86384117D01*
X208801393Y-86366393D01*
X208819117Y-86350329D01*
X208838330Y-86336079D01*
X208858847Y-86323782D01*
X208880471Y-86313554D01*
X208902993Y-86305496D01*
X208926197Y-86299684D01*
X208949858Y-86296174D01*
X208973750Y-86295000D01*
X209461250Y-86295000D01*
X209485142Y-86296174D01*
X209485142Y-86296174D01*
G37*
D12*
X209217500Y-86995000D03*
G04 #@! TD*
D11*
G04 #@! TO.C,R2*
G36*
X198690142Y-86296174D02*
X198713803Y-86299684D01*
X198737007Y-86305496D01*
X198759529Y-86313554D01*
X198781153Y-86323782D01*
X198801670Y-86336079D01*
X198820883Y-86350329D01*
X198838607Y-86366393D01*
X198854671Y-86384117D01*
X198868921Y-86403330D01*
X198881218Y-86423847D01*
X198891446Y-86445471D01*
X198899504Y-86467993D01*
X198905316Y-86491197D01*
X198908826Y-86514858D01*
X198910000Y-86538750D01*
X198910000Y-87451250D01*
X198908826Y-87475142D01*
X198905316Y-87498803D01*
X198899504Y-87522007D01*
X198891446Y-87544529D01*
X198881218Y-87566153D01*
X198868921Y-87586670D01*
X198854671Y-87605883D01*
X198838607Y-87623607D01*
X198820883Y-87639671D01*
X198801670Y-87653921D01*
X198781153Y-87666218D01*
X198759529Y-87676446D01*
X198737007Y-87684504D01*
X198713803Y-87690316D01*
X198690142Y-87693826D01*
X198666250Y-87695000D01*
X198178750Y-87695000D01*
X198154858Y-87693826D01*
X198131197Y-87690316D01*
X198107993Y-87684504D01*
X198085471Y-87676446D01*
X198063847Y-87666218D01*
X198043330Y-87653921D01*
X198024117Y-87639671D01*
X198006393Y-87623607D01*
X197990329Y-87605883D01*
X197976079Y-87586670D01*
X197963782Y-87566153D01*
X197953554Y-87544529D01*
X197945496Y-87522007D01*
X197939684Y-87498803D01*
X197936174Y-87475142D01*
X197935000Y-87451250D01*
X197935000Y-86538750D01*
X197936174Y-86514858D01*
X197939684Y-86491197D01*
X197945496Y-86467993D01*
X197953554Y-86445471D01*
X197963782Y-86423847D01*
X197976079Y-86403330D01*
X197990329Y-86384117D01*
X198006393Y-86366393D01*
X198024117Y-86350329D01*
X198043330Y-86336079D01*
X198063847Y-86323782D01*
X198085471Y-86313554D01*
X198107993Y-86305496D01*
X198131197Y-86299684D01*
X198154858Y-86296174D01*
X198178750Y-86295000D01*
X198666250Y-86295000D01*
X198690142Y-86296174D01*
X198690142Y-86296174D01*
G37*
D12*
X198422500Y-86995000D03*
D11*
G36*
X196815142Y-86296174D02*
X196838803Y-86299684D01*
X196862007Y-86305496D01*
X196884529Y-86313554D01*
X196906153Y-86323782D01*
X196926670Y-86336079D01*
X196945883Y-86350329D01*
X196963607Y-86366393D01*
X196979671Y-86384117D01*
X196993921Y-86403330D01*
X197006218Y-86423847D01*
X197016446Y-86445471D01*
X197024504Y-86467993D01*
X197030316Y-86491197D01*
X197033826Y-86514858D01*
X197035000Y-86538750D01*
X197035000Y-87451250D01*
X197033826Y-87475142D01*
X197030316Y-87498803D01*
X197024504Y-87522007D01*
X197016446Y-87544529D01*
X197006218Y-87566153D01*
X196993921Y-87586670D01*
X196979671Y-87605883D01*
X196963607Y-87623607D01*
X196945883Y-87639671D01*
X196926670Y-87653921D01*
X196906153Y-87666218D01*
X196884529Y-87676446D01*
X196862007Y-87684504D01*
X196838803Y-87690316D01*
X196815142Y-87693826D01*
X196791250Y-87695000D01*
X196303750Y-87695000D01*
X196279858Y-87693826D01*
X196256197Y-87690316D01*
X196232993Y-87684504D01*
X196210471Y-87676446D01*
X196188847Y-87666218D01*
X196168330Y-87653921D01*
X196149117Y-87639671D01*
X196131393Y-87623607D01*
X196115329Y-87605883D01*
X196101079Y-87586670D01*
X196088782Y-87566153D01*
X196078554Y-87544529D01*
X196070496Y-87522007D01*
X196064684Y-87498803D01*
X196061174Y-87475142D01*
X196060000Y-87451250D01*
X196060000Y-86538750D01*
X196061174Y-86514858D01*
X196064684Y-86491197D01*
X196070496Y-86467993D01*
X196078554Y-86445471D01*
X196088782Y-86423847D01*
X196101079Y-86403330D01*
X196115329Y-86384117D01*
X196131393Y-86366393D01*
X196149117Y-86350329D01*
X196168330Y-86336079D01*
X196188847Y-86323782D01*
X196210471Y-86313554D01*
X196232993Y-86305496D01*
X196256197Y-86299684D01*
X196279858Y-86296174D01*
X196303750Y-86295000D01*
X196791250Y-86295000D01*
X196815142Y-86296174D01*
X196815142Y-86296174D01*
G37*
D12*
X196547500Y-86995000D03*
G04 #@! TD*
D11*
G04 #@! TO.C,R4*
G36*
X196568142Y-90270174D02*
X196591803Y-90273684D01*
X196615007Y-90279496D01*
X196637529Y-90287554D01*
X196659153Y-90297782D01*
X196679670Y-90310079D01*
X196698883Y-90324329D01*
X196716607Y-90340393D01*
X196732671Y-90358117D01*
X196746921Y-90377330D01*
X196759218Y-90397847D01*
X196769446Y-90419471D01*
X196777504Y-90441993D01*
X196783316Y-90465197D01*
X196786826Y-90488858D01*
X196788000Y-90512750D01*
X196788000Y-91000250D01*
X196786826Y-91024142D01*
X196783316Y-91047803D01*
X196777504Y-91071007D01*
X196769446Y-91093529D01*
X196759218Y-91115153D01*
X196746921Y-91135670D01*
X196732671Y-91154883D01*
X196716607Y-91172607D01*
X196698883Y-91188671D01*
X196679670Y-91202921D01*
X196659153Y-91215218D01*
X196637529Y-91225446D01*
X196615007Y-91233504D01*
X196591803Y-91239316D01*
X196568142Y-91242826D01*
X196544250Y-91244000D01*
X195631750Y-91244000D01*
X195607858Y-91242826D01*
X195584197Y-91239316D01*
X195560993Y-91233504D01*
X195538471Y-91225446D01*
X195516847Y-91215218D01*
X195496330Y-91202921D01*
X195477117Y-91188671D01*
X195459393Y-91172607D01*
X195443329Y-91154883D01*
X195429079Y-91135670D01*
X195416782Y-91115153D01*
X195406554Y-91093529D01*
X195398496Y-91071007D01*
X195392684Y-91047803D01*
X195389174Y-91024142D01*
X195388000Y-91000250D01*
X195388000Y-90512750D01*
X195389174Y-90488858D01*
X195392684Y-90465197D01*
X195398496Y-90441993D01*
X195406554Y-90419471D01*
X195416782Y-90397847D01*
X195429079Y-90377330D01*
X195443329Y-90358117D01*
X195459393Y-90340393D01*
X195477117Y-90324329D01*
X195496330Y-90310079D01*
X195516847Y-90297782D01*
X195538471Y-90287554D01*
X195560993Y-90279496D01*
X195584197Y-90273684D01*
X195607858Y-90270174D01*
X195631750Y-90269000D01*
X196544250Y-90269000D01*
X196568142Y-90270174D01*
X196568142Y-90270174D01*
G37*
D12*
X196088000Y-90756500D03*
D11*
G36*
X196568142Y-92145174D02*
X196591803Y-92148684D01*
X196615007Y-92154496D01*
X196637529Y-92162554D01*
X196659153Y-92172782D01*
X196679670Y-92185079D01*
X196698883Y-92199329D01*
X196716607Y-92215393D01*
X196732671Y-92233117D01*
X196746921Y-92252330D01*
X196759218Y-92272847D01*
X196769446Y-92294471D01*
X196777504Y-92316993D01*
X196783316Y-92340197D01*
X196786826Y-92363858D01*
X196788000Y-92387750D01*
X196788000Y-92875250D01*
X196786826Y-92899142D01*
X196783316Y-92922803D01*
X196777504Y-92946007D01*
X196769446Y-92968529D01*
X196759218Y-92990153D01*
X196746921Y-93010670D01*
X196732671Y-93029883D01*
X196716607Y-93047607D01*
X196698883Y-93063671D01*
X196679670Y-93077921D01*
X196659153Y-93090218D01*
X196637529Y-93100446D01*
X196615007Y-93108504D01*
X196591803Y-93114316D01*
X196568142Y-93117826D01*
X196544250Y-93119000D01*
X195631750Y-93119000D01*
X195607858Y-93117826D01*
X195584197Y-93114316D01*
X195560993Y-93108504D01*
X195538471Y-93100446D01*
X195516847Y-93090218D01*
X195496330Y-93077921D01*
X195477117Y-93063671D01*
X195459393Y-93047607D01*
X195443329Y-93029883D01*
X195429079Y-93010670D01*
X195416782Y-92990153D01*
X195406554Y-92968529D01*
X195398496Y-92946007D01*
X195392684Y-92922803D01*
X195389174Y-92899142D01*
X195388000Y-92875250D01*
X195388000Y-92387750D01*
X195389174Y-92363858D01*
X195392684Y-92340197D01*
X195398496Y-92316993D01*
X195406554Y-92294471D01*
X195416782Y-92272847D01*
X195429079Y-92252330D01*
X195443329Y-92233117D01*
X195459393Y-92215393D01*
X195477117Y-92199329D01*
X195496330Y-92185079D01*
X195516847Y-92172782D01*
X195538471Y-92162554D01*
X195560993Y-92154496D01*
X195584197Y-92148684D01*
X195607858Y-92145174D01*
X195631750Y-92144000D01*
X196544250Y-92144000D01*
X196568142Y-92145174D01*
X196568142Y-92145174D01*
G37*
D12*
X196088000Y-92631500D03*
G04 #@! TD*
D11*
G04 #@! TO.C,R5*
G36*
X198600142Y-90270174D02*
X198623803Y-90273684D01*
X198647007Y-90279496D01*
X198669529Y-90287554D01*
X198691153Y-90297782D01*
X198711670Y-90310079D01*
X198730883Y-90324329D01*
X198748607Y-90340393D01*
X198764671Y-90358117D01*
X198778921Y-90377330D01*
X198791218Y-90397847D01*
X198801446Y-90419471D01*
X198809504Y-90441993D01*
X198815316Y-90465197D01*
X198818826Y-90488858D01*
X198820000Y-90512750D01*
X198820000Y-91000250D01*
X198818826Y-91024142D01*
X198815316Y-91047803D01*
X198809504Y-91071007D01*
X198801446Y-91093529D01*
X198791218Y-91115153D01*
X198778921Y-91135670D01*
X198764671Y-91154883D01*
X198748607Y-91172607D01*
X198730883Y-91188671D01*
X198711670Y-91202921D01*
X198691153Y-91215218D01*
X198669529Y-91225446D01*
X198647007Y-91233504D01*
X198623803Y-91239316D01*
X198600142Y-91242826D01*
X198576250Y-91244000D01*
X197663750Y-91244000D01*
X197639858Y-91242826D01*
X197616197Y-91239316D01*
X197592993Y-91233504D01*
X197570471Y-91225446D01*
X197548847Y-91215218D01*
X197528330Y-91202921D01*
X197509117Y-91188671D01*
X197491393Y-91172607D01*
X197475329Y-91154883D01*
X197461079Y-91135670D01*
X197448782Y-91115153D01*
X197438554Y-91093529D01*
X197430496Y-91071007D01*
X197424684Y-91047803D01*
X197421174Y-91024142D01*
X197420000Y-91000250D01*
X197420000Y-90512750D01*
X197421174Y-90488858D01*
X197424684Y-90465197D01*
X197430496Y-90441993D01*
X197438554Y-90419471D01*
X197448782Y-90397847D01*
X197461079Y-90377330D01*
X197475329Y-90358117D01*
X197491393Y-90340393D01*
X197509117Y-90324329D01*
X197528330Y-90310079D01*
X197548847Y-90297782D01*
X197570471Y-90287554D01*
X197592993Y-90279496D01*
X197616197Y-90273684D01*
X197639858Y-90270174D01*
X197663750Y-90269000D01*
X198576250Y-90269000D01*
X198600142Y-90270174D01*
X198600142Y-90270174D01*
G37*
D12*
X198120000Y-90756500D03*
D11*
G36*
X198600142Y-92145174D02*
X198623803Y-92148684D01*
X198647007Y-92154496D01*
X198669529Y-92162554D01*
X198691153Y-92172782D01*
X198711670Y-92185079D01*
X198730883Y-92199329D01*
X198748607Y-92215393D01*
X198764671Y-92233117D01*
X198778921Y-92252330D01*
X198791218Y-92272847D01*
X198801446Y-92294471D01*
X198809504Y-92316993D01*
X198815316Y-92340197D01*
X198818826Y-92363858D01*
X198820000Y-92387750D01*
X198820000Y-92875250D01*
X198818826Y-92899142D01*
X198815316Y-92922803D01*
X198809504Y-92946007D01*
X198801446Y-92968529D01*
X198791218Y-92990153D01*
X198778921Y-93010670D01*
X198764671Y-93029883D01*
X198748607Y-93047607D01*
X198730883Y-93063671D01*
X198711670Y-93077921D01*
X198691153Y-93090218D01*
X198669529Y-93100446D01*
X198647007Y-93108504D01*
X198623803Y-93114316D01*
X198600142Y-93117826D01*
X198576250Y-93119000D01*
X197663750Y-93119000D01*
X197639858Y-93117826D01*
X197616197Y-93114316D01*
X197592993Y-93108504D01*
X197570471Y-93100446D01*
X197548847Y-93090218D01*
X197528330Y-93077921D01*
X197509117Y-93063671D01*
X197491393Y-93047607D01*
X197475329Y-93029883D01*
X197461079Y-93010670D01*
X197448782Y-92990153D01*
X197438554Y-92968529D01*
X197430496Y-92946007D01*
X197424684Y-92922803D01*
X197421174Y-92899142D01*
X197420000Y-92875250D01*
X197420000Y-92387750D01*
X197421174Y-92363858D01*
X197424684Y-92340197D01*
X197430496Y-92316993D01*
X197438554Y-92294471D01*
X197448782Y-92272847D01*
X197461079Y-92252330D01*
X197475329Y-92233117D01*
X197491393Y-92215393D01*
X197509117Y-92199329D01*
X197528330Y-92185079D01*
X197548847Y-92172782D01*
X197570471Y-92162554D01*
X197592993Y-92154496D01*
X197616197Y-92148684D01*
X197639858Y-92145174D01*
X197663750Y-92144000D01*
X198576250Y-92144000D01*
X198600142Y-92145174D01*
X198600142Y-92145174D01*
G37*
D12*
X198120000Y-92631500D03*
G04 #@! TD*
M02*
