G04 #@! TF.GenerationSoftware,KiCad,Pcbnew,5.0.1*
G04 #@! TF.CreationDate,2018-12-14T16:44:58-08:00*
G04 #@! TF.ProjectId,fanpower,66616E706F7765722E6B696361645F70,rev?*
G04 #@! TF.SameCoordinates,Original*
G04 #@! TF.FileFunction,Soldermask,Bot*
G04 #@! TF.FilePolarity,Negative*
%FSLAX46Y46*%
G04 Gerber Fmt 4.6, Leading zero omitted, Abs format (unit mm)*
G04 Created by KiCad (PCBNEW 5.0.1) date Fri Dec 14 16:44:58 2018*
%MOMM*%
%LPD*%
G01*
G04 APERTURE LIST*
%ADD10C,0.100000*%
G04 APERTURE END LIST*
D10*
G36*
X194356017Y-122679724D02*
X194503630Y-122724503D01*
X194639677Y-122797222D01*
X194758919Y-122895081D01*
X194856778Y-123014323D01*
X194929497Y-123150370D01*
X194974276Y-123297983D01*
X194990000Y-123457640D01*
X194990000Y-125270360D01*
X194974276Y-125430017D01*
X194929497Y-125577630D01*
X194856778Y-125713677D01*
X194758919Y-125832919D01*
X194639677Y-125930778D01*
X194503630Y-126003497D01*
X194356017Y-126048276D01*
X194196360Y-126064000D01*
X191883640Y-126064000D01*
X191723983Y-126048276D01*
X191576370Y-126003497D01*
X191440323Y-125930778D01*
X191321081Y-125832919D01*
X191223222Y-125713677D01*
X191150503Y-125577630D01*
X191105724Y-125430017D01*
X191090000Y-125270360D01*
X191090000Y-123457640D01*
X191105724Y-123297983D01*
X191150503Y-123150370D01*
X191223222Y-123014323D01*
X191321081Y-122895081D01*
X191440323Y-122797222D01*
X191576370Y-122724503D01*
X191723983Y-122679724D01*
X191883640Y-122664000D01*
X194196360Y-122664000D01*
X194356017Y-122679724D01*
X194356017Y-122679724D01*
G37*
G36*
X206434231Y-121499746D02*
X206523769Y-121526907D01*
X206613308Y-121554068D01*
X206778347Y-121642283D01*
X206923001Y-121760999D01*
X207041717Y-121905653D01*
X207129932Y-122070691D01*
X207184254Y-122249769D01*
X207198000Y-122389334D01*
X207198000Y-123482666D01*
X207184254Y-123622231D01*
X207129932Y-123801309D01*
X207041717Y-123966347D01*
X206923001Y-124111001D01*
X206778347Y-124229717D01*
X206613309Y-124317932D01*
X206523770Y-124345093D01*
X206434232Y-124372254D01*
X206248000Y-124390596D01*
X206061769Y-124372254D01*
X205972231Y-124345093D01*
X205882692Y-124317932D01*
X205717654Y-124229717D01*
X205573000Y-124111001D01*
X205454284Y-123966347D01*
X205366068Y-123801306D01*
X205311746Y-123622234D01*
X205298000Y-123482666D01*
X205298000Y-122389335D01*
X205311746Y-122249770D01*
X205311747Y-122249768D01*
X205366068Y-122070693D01*
X205366068Y-122070692D01*
X205454283Y-121905653D01*
X205572999Y-121760999D01*
X205717653Y-121642283D01*
X205882691Y-121554068D01*
X205972230Y-121526907D01*
X206061768Y-121499746D01*
X206248000Y-121481404D01*
X206434231Y-121499746D01*
X206434231Y-121499746D01*
G37*
G36*
X208974231Y-121499746D02*
X209063769Y-121526907D01*
X209153308Y-121554068D01*
X209318347Y-121642283D01*
X209463001Y-121760999D01*
X209581717Y-121905653D01*
X209669932Y-122070691D01*
X209724254Y-122249769D01*
X209738000Y-122389334D01*
X209738000Y-123482666D01*
X209724254Y-123622231D01*
X209669932Y-123801309D01*
X209581717Y-123966347D01*
X209463001Y-124111001D01*
X209318347Y-124229717D01*
X209153309Y-124317932D01*
X209063770Y-124345093D01*
X208974232Y-124372254D01*
X208788000Y-124390596D01*
X208601769Y-124372254D01*
X208512231Y-124345093D01*
X208422692Y-124317932D01*
X208257654Y-124229717D01*
X208113000Y-124111001D01*
X207994284Y-123966347D01*
X207906068Y-123801306D01*
X207851746Y-123622234D01*
X207838000Y-123482666D01*
X207838000Y-122389335D01*
X207851746Y-122249770D01*
X207851747Y-122249768D01*
X207906068Y-122070693D01*
X207906068Y-122070692D01*
X207994283Y-121905653D01*
X208112999Y-121760999D01*
X208257653Y-121642283D01*
X208422691Y-121554068D01*
X208512230Y-121526907D01*
X208601768Y-121499746D01*
X208788000Y-121481404D01*
X208974231Y-121499746D01*
X208974231Y-121499746D01*
G37*
G36*
X204658000Y-124386000D02*
X202758000Y-124386000D01*
X202758000Y-121486000D01*
X204658000Y-121486000D01*
X204658000Y-124386000D01*
X204658000Y-124386000D01*
G37*
G36*
X198955398Y-119432126D02*
X199126472Y-119484021D01*
X199284121Y-119568286D01*
X199422307Y-119681693D01*
X199535714Y-119819879D01*
X199619979Y-119977528D01*
X199671874Y-120148602D01*
X199690000Y-120332640D01*
X199690000Y-122395360D01*
X199671874Y-122579398D01*
X199619979Y-122750472D01*
X199535714Y-122908121D01*
X199422307Y-123046307D01*
X199284121Y-123159714D01*
X199126472Y-123243979D01*
X198955398Y-123295874D01*
X198771360Y-123314000D01*
X196708640Y-123314000D01*
X196524602Y-123295874D01*
X196353528Y-123243979D01*
X196195879Y-123159714D01*
X196057693Y-123046307D01*
X195944286Y-122908121D01*
X195860021Y-122750472D01*
X195808126Y-122579398D01*
X195790000Y-122395360D01*
X195790000Y-120332640D01*
X195808126Y-120148602D01*
X195860021Y-119977528D01*
X195944286Y-119819879D01*
X196057693Y-119681693D01*
X196195879Y-119568286D01*
X196353528Y-119484021D01*
X196524602Y-119432126D01*
X196708640Y-119414000D01*
X198771360Y-119414000D01*
X198955398Y-119432126D01*
X198955398Y-119432126D01*
G37*
G36*
X194990000Y-120314000D02*
X191090000Y-120314000D01*
X191090000Y-116414000D01*
X194990000Y-116414000D01*
X194990000Y-120314000D01*
X194990000Y-120314000D01*
G37*
G36*
X211054000Y-92590000D02*
X210068169Y-92590000D01*
X210043783Y-92592402D01*
X210020334Y-92599515D01*
X209998723Y-92611066D01*
X209979781Y-92626612D01*
X209964235Y-92645554D01*
X209952684Y-92667165D01*
X209945571Y-92690614D01*
X209943169Y-92715000D01*
X209945571Y-92739386D01*
X209952684Y-92762835D01*
X209964235Y-92784446D01*
X209979781Y-92803388D01*
X209998723Y-92818934D01*
X210020334Y-92830485D01*
X210043783Y-92837598D01*
X210055917Y-92839398D01*
X210129436Y-92846639D01*
X210129439Y-92846640D01*
X210346215Y-92912398D01*
X210545997Y-93019184D01*
X210545999Y-93019185D01*
X210545998Y-93019185D01*
X210721107Y-93162893D01*
X210864815Y-93338002D01*
X210971601Y-93537783D01*
X211037361Y-93754564D01*
X211059564Y-93980000D01*
X211037361Y-94205436D01*
X211037360Y-94205439D01*
X210971602Y-94422215D01*
X210864816Y-94621997D01*
X210721107Y-94797107D01*
X210545997Y-94940816D01*
X210346215Y-95047602D01*
X210178660Y-95098429D01*
X210129436Y-95113361D01*
X210005150Y-95125602D01*
X209981117Y-95130382D01*
X209958478Y-95139760D01*
X209938103Y-95153374D01*
X209920776Y-95170701D01*
X209907162Y-95191075D01*
X209897785Y-95213714D01*
X209893004Y-95237748D01*
X209893004Y-95262252D01*
X209897784Y-95286285D01*
X209907162Y-95308924D01*
X209920776Y-95329299D01*
X209938103Y-95346626D01*
X209958477Y-95360240D01*
X209981116Y-95369617D01*
X210005150Y-95374398D01*
X210129436Y-95386639D01*
X210129439Y-95386640D01*
X210346215Y-95452398D01*
X210545997Y-95559184D01*
X210721107Y-95702893D01*
X210864816Y-95878003D01*
X210971602Y-96077785D01*
X210996913Y-96161224D01*
X211037361Y-96294564D01*
X211059564Y-96520000D01*
X211037361Y-96745436D01*
X211037360Y-96745439D01*
X210971602Y-96962215D01*
X210864816Y-97161997D01*
X210721107Y-97337107D01*
X210545997Y-97480816D01*
X210346215Y-97587602D01*
X210189967Y-97634999D01*
X210129436Y-97653361D01*
X210005150Y-97665602D01*
X209981117Y-97670382D01*
X209958478Y-97679760D01*
X209938103Y-97693374D01*
X209920776Y-97710701D01*
X209907162Y-97731075D01*
X209897785Y-97753714D01*
X209893004Y-97777748D01*
X209893004Y-97802252D01*
X209897784Y-97826285D01*
X209907162Y-97848924D01*
X209920776Y-97869299D01*
X209938103Y-97886626D01*
X209958477Y-97900240D01*
X209981116Y-97909617D01*
X210005150Y-97914398D01*
X210129436Y-97926639D01*
X210129439Y-97926640D01*
X210346215Y-97992398D01*
X210545997Y-98099184D01*
X210545999Y-98099185D01*
X210545998Y-98099185D01*
X210721107Y-98242893D01*
X210864815Y-98418002D01*
X210971601Y-98617783D01*
X211037361Y-98834564D01*
X211059564Y-99060000D01*
X211037361Y-99285436D01*
X211037360Y-99285439D01*
X210971602Y-99502215D01*
X210864816Y-99701997D01*
X210721107Y-99877107D01*
X210545997Y-100020816D01*
X210346215Y-100127602D01*
X210169791Y-100181119D01*
X210129436Y-100193361D01*
X210005150Y-100205602D01*
X209981117Y-100210382D01*
X209958478Y-100219760D01*
X209938103Y-100233374D01*
X209920776Y-100250701D01*
X209907162Y-100271075D01*
X209897785Y-100293714D01*
X209893004Y-100317748D01*
X209893004Y-100342252D01*
X209897784Y-100366285D01*
X209907162Y-100388924D01*
X209920776Y-100409299D01*
X209938103Y-100426626D01*
X209958477Y-100440240D01*
X209981116Y-100449617D01*
X210005150Y-100454398D01*
X210129436Y-100466639D01*
X210129439Y-100466640D01*
X210346215Y-100532398D01*
X210545997Y-100639184D01*
X210721107Y-100782893D01*
X210864816Y-100958003D01*
X210971602Y-101157785D01*
X210985579Y-101203862D01*
X211037361Y-101374564D01*
X211059564Y-101600000D01*
X211037361Y-101825436D01*
X211037360Y-101825439D01*
X210971602Y-102042215D01*
X210864816Y-102241997D01*
X210721107Y-102417107D01*
X210545997Y-102560816D01*
X210346215Y-102667602D01*
X210169791Y-102721119D01*
X210129436Y-102733361D01*
X210005150Y-102745602D01*
X209981117Y-102750382D01*
X209958478Y-102759760D01*
X209938103Y-102773374D01*
X209920776Y-102790701D01*
X209907162Y-102811075D01*
X209897785Y-102833714D01*
X209893004Y-102857748D01*
X209893004Y-102882252D01*
X209897784Y-102906285D01*
X209907162Y-102928924D01*
X209920776Y-102949299D01*
X209938103Y-102966626D01*
X209958477Y-102980240D01*
X209981116Y-102989617D01*
X210005150Y-102994398D01*
X210129436Y-103006639D01*
X210129439Y-103006640D01*
X210346215Y-103072398D01*
X210545997Y-103179184D01*
X210721107Y-103322893D01*
X210864816Y-103498003D01*
X210957811Y-103671984D01*
X210971601Y-103697783D01*
X211037361Y-103914564D01*
X211059564Y-104140000D01*
X211037361Y-104365436D01*
X211037360Y-104365439D01*
X210971602Y-104582215D01*
X210864816Y-104781997D01*
X210721107Y-104957107D01*
X210545997Y-105100816D01*
X210346215Y-105207602D01*
X210169791Y-105261119D01*
X210129436Y-105273361D01*
X210005150Y-105285602D01*
X209981117Y-105290382D01*
X209958478Y-105299760D01*
X209938103Y-105313374D01*
X209920776Y-105330701D01*
X209907162Y-105351075D01*
X209897785Y-105373714D01*
X209893004Y-105397748D01*
X209893004Y-105422252D01*
X209897784Y-105446285D01*
X209907162Y-105468924D01*
X209920776Y-105489299D01*
X209938103Y-105506626D01*
X209958477Y-105520240D01*
X209981116Y-105529617D01*
X210005150Y-105534398D01*
X210129436Y-105546639D01*
X210129439Y-105546640D01*
X210346215Y-105612398D01*
X210545997Y-105719184D01*
X210721107Y-105862893D01*
X210864816Y-106038003D01*
X210922145Y-106145258D01*
X210971601Y-106237783D01*
X211037361Y-106454564D01*
X211059564Y-106680000D01*
X211037361Y-106905436D01*
X211037360Y-106905439D01*
X210971602Y-107122215D01*
X210864816Y-107321997D01*
X210721107Y-107497107D01*
X210545997Y-107640816D01*
X210346215Y-107747602D01*
X210169791Y-107801119D01*
X210129436Y-107813361D01*
X210005150Y-107825602D01*
X209981117Y-107830382D01*
X209958478Y-107839760D01*
X209938103Y-107853374D01*
X209920776Y-107870701D01*
X209907162Y-107891075D01*
X209897785Y-107913714D01*
X209893004Y-107937748D01*
X209893004Y-107962252D01*
X209897784Y-107986285D01*
X209907162Y-108008924D01*
X209920776Y-108029299D01*
X209938103Y-108046626D01*
X209958477Y-108060240D01*
X209981116Y-108069617D01*
X210005150Y-108074398D01*
X210129436Y-108086639D01*
X210129439Y-108086640D01*
X210346215Y-108152398D01*
X210545997Y-108259184D01*
X210721107Y-108402893D01*
X210864816Y-108578003D01*
X210971602Y-108777785D01*
X211025119Y-108954209D01*
X211037361Y-108994564D01*
X211059564Y-109220000D01*
X211037361Y-109445436D01*
X211037360Y-109445439D01*
X210971602Y-109662215D01*
X210864816Y-109861997D01*
X210721107Y-110037107D01*
X210545997Y-110180816D01*
X210346215Y-110287602D01*
X210169791Y-110341119D01*
X210129436Y-110353361D01*
X210005150Y-110365602D01*
X209981117Y-110370382D01*
X209958478Y-110379760D01*
X209938103Y-110393374D01*
X209920776Y-110410701D01*
X209907162Y-110431075D01*
X209897785Y-110453714D01*
X209893004Y-110477748D01*
X209893004Y-110502252D01*
X209897784Y-110526285D01*
X209907162Y-110548924D01*
X209920776Y-110569299D01*
X209938103Y-110586626D01*
X209958477Y-110600240D01*
X209981116Y-110609617D01*
X210005150Y-110614398D01*
X210129436Y-110626639D01*
X210129439Y-110626640D01*
X210346215Y-110692398D01*
X210545997Y-110799184D01*
X210721107Y-110942893D01*
X210864816Y-111118003D01*
X210917056Y-111215737D01*
X210971601Y-111317783D01*
X211037361Y-111534564D01*
X211059564Y-111760000D01*
X211037361Y-111985436D01*
X211037360Y-111985439D01*
X210971602Y-112202215D01*
X210864816Y-112401997D01*
X210721107Y-112577107D01*
X210545997Y-112720816D01*
X210346215Y-112827602D01*
X210169791Y-112881119D01*
X210129436Y-112893361D01*
X210005150Y-112905602D01*
X209981117Y-112910382D01*
X209958478Y-112919760D01*
X209938103Y-112933374D01*
X209920776Y-112950701D01*
X209907162Y-112971075D01*
X209897785Y-112993714D01*
X209893004Y-113017748D01*
X209893004Y-113042252D01*
X209897784Y-113066285D01*
X209907162Y-113088924D01*
X209920776Y-113109299D01*
X209938103Y-113126626D01*
X209958477Y-113140240D01*
X209981116Y-113149617D01*
X210005150Y-113154398D01*
X210129436Y-113166639D01*
X210129439Y-113166640D01*
X210346215Y-113232398D01*
X210545997Y-113339184D01*
X210545999Y-113339185D01*
X210545998Y-113339185D01*
X210721107Y-113482893D01*
X210864815Y-113658002D01*
X210971601Y-113857783D01*
X211037361Y-114074564D01*
X211059564Y-114300000D01*
X211037361Y-114525436D01*
X211037360Y-114525439D01*
X210971602Y-114742215D01*
X210864816Y-114941997D01*
X210721107Y-115117107D01*
X210545997Y-115260816D01*
X210346215Y-115367602D01*
X210169791Y-115421119D01*
X210129436Y-115433361D01*
X209960496Y-115450000D01*
X209647504Y-115450000D01*
X209478564Y-115433361D01*
X209438209Y-115421119D01*
X209261785Y-115367602D01*
X209062003Y-115260816D01*
X208886893Y-115117107D01*
X208743184Y-114941997D01*
X208636398Y-114742215D01*
X208570640Y-114525439D01*
X208570639Y-114525436D01*
X208548436Y-114300000D01*
X208570639Y-114074564D01*
X208636399Y-113857783D01*
X208743185Y-113658002D01*
X208886893Y-113482893D01*
X209062002Y-113339185D01*
X209062001Y-113339185D01*
X209062003Y-113339184D01*
X209261785Y-113232398D01*
X209478561Y-113166640D01*
X209478564Y-113166639D01*
X209602850Y-113154398D01*
X209626883Y-113149618D01*
X209649522Y-113140240D01*
X209669897Y-113126626D01*
X209687224Y-113109299D01*
X209700838Y-113088925D01*
X209710215Y-113066286D01*
X209714996Y-113042252D01*
X209714996Y-113017748D01*
X209710216Y-112993715D01*
X209700838Y-112971076D01*
X209687224Y-112950701D01*
X209669897Y-112933374D01*
X209649523Y-112919760D01*
X209626884Y-112910383D01*
X209602850Y-112905602D01*
X209478564Y-112893361D01*
X209438209Y-112881119D01*
X209261785Y-112827602D01*
X209062003Y-112720816D01*
X208886893Y-112577107D01*
X208743184Y-112401997D01*
X208636398Y-112202215D01*
X208570640Y-111985439D01*
X208570639Y-111985436D01*
X208548436Y-111760000D01*
X208570639Y-111534564D01*
X208636399Y-111317783D01*
X208690944Y-111215737D01*
X208743184Y-111118003D01*
X208886893Y-110942893D01*
X209062003Y-110799184D01*
X209261785Y-110692398D01*
X209478561Y-110626640D01*
X209478564Y-110626639D01*
X209602850Y-110614398D01*
X209626883Y-110609618D01*
X209649522Y-110600240D01*
X209669897Y-110586626D01*
X209687224Y-110569299D01*
X209700838Y-110548925D01*
X209710215Y-110526286D01*
X209714996Y-110502252D01*
X209714996Y-110477748D01*
X209710216Y-110453715D01*
X209700838Y-110431076D01*
X209687224Y-110410701D01*
X209669897Y-110393374D01*
X209649523Y-110379760D01*
X209626884Y-110370383D01*
X209602850Y-110365602D01*
X209478564Y-110353361D01*
X209438209Y-110341119D01*
X209261785Y-110287602D01*
X209062003Y-110180816D01*
X208886893Y-110037107D01*
X208743184Y-109861997D01*
X208636398Y-109662215D01*
X208570640Y-109445439D01*
X208570639Y-109445436D01*
X208548436Y-109220000D01*
X208570639Y-108994564D01*
X208582881Y-108954209D01*
X208636398Y-108777785D01*
X208743184Y-108578003D01*
X208886893Y-108402893D01*
X209062003Y-108259184D01*
X209261785Y-108152398D01*
X209478561Y-108086640D01*
X209478564Y-108086639D01*
X209602850Y-108074398D01*
X209626883Y-108069618D01*
X209649522Y-108060240D01*
X209669897Y-108046626D01*
X209687224Y-108029299D01*
X209700838Y-108008925D01*
X209710215Y-107986286D01*
X209714996Y-107962252D01*
X209714996Y-107937748D01*
X209710216Y-107913715D01*
X209700838Y-107891076D01*
X209687224Y-107870701D01*
X209669897Y-107853374D01*
X209649523Y-107839760D01*
X209626884Y-107830383D01*
X209602850Y-107825602D01*
X209478564Y-107813361D01*
X209438209Y-107801119D01*
X209261785Y-107747602D01*
X209062003Y-107640816D01*
X208886893Y-107497107D01*
X208743184Y-107321997D01*
X208636398Y-107122215D01*
X208570640Y-106905439D01*
X208570639Y-106905436D01*
X208548436Y-106680000D01*
X208570639Y-106454564D01*
X208636399Y-106237783D01*
X208685855Y-106145258D01*
X208743184Y-106038003D01*
X208886893Y-105862893D01*
X209062003Y-105719184D01*
X209261785Y-105612398D01*
X209478561Y-105546640D01*
X209478564Y-105546639D01*
X209602850Y-105534398D01*
X209626883Y-105529618D01*
X209649522Y-105520240D01*
X209669897Y-105506626D01*
X209687224Y-105489299D01*
X209700838Y-105468925D01*
X209710215Y-105446286D01*
X209714996Y-105422252D01*
X209714996Y-105397748D01*
X209710216Y-105373715D01*
X209700838Y-105351076D01*
X209687224Y-105330701D01*
X209669897Y-105313374D01*
X209649523Y-105299760D01*
X209626884Y-105290383D01*
X209602850Y-105285602D01*
X209478564Y-105273361D01*
X209438209Y-105261119D01*
X209261785Y-105207602D01*
X209062003Y-105100816D01*
X208886893Y-104957107D01*
X208743184Y-104781997D01*
X208636398Y-104582215D01*
X208570640Y-104365439D01*
X208570639Y-104365436D01*
X208548436Y-104140000D01*
X208570639Y-103914564D01*
X208636399Y-103697783D01*
X208650189Y-103671984D01*
X208743184Y-103498003D01*
X208886893Y-103322893D01*
X209062003Y-103179184D01*
X209261785Y-103072398D01*
X209478561Y-103006640D01*
X209478564Y-103006639D01*
X209602850Y-102994398D01*
X209626883Y-102989618D01*
X209649522Y-102980240D01*
X209669897Y-102966626D01*
X209687224Y-102949299D01*
X209700838Y-102928925D01*
X209710215Y-102906286D01*
X209714996Y-102882252D01*
X209714996Y-102857748D01*
X209710216Y-102833715D01*
X209700838Y-102811076D01*
X209687224Y-102790701D01*
X209669897Y-102773374D01*
X209649523Y-102759760D01*
X209626884Y-102750383D01*
X209602850Y-102745602D01*
X209478564Y-102733361D01*
X209438209Y-102721119D01*
X209261785Y-102667602D01*
X209062003Y-102560816D01*
X208886893Y-102417107D01*
X208743184Y-102241997D01*
X208636398Y-102042215D01*
X208570640Y-101825439D01*
X208570639Y-101825436D01*
X208548436Y-101600000D01*
X208570639Y-101374564D01*
X208622421Y-101203862D01*
X208636398Y-101157785D01*
X208743184Y-100958003D01*
X208886893Y-100782893D01*
X209062003Y-100639184D01*
X209261785Y-100532398D01*
X209478561Y-100466640D01*
X209478564Y-100466639D01*
X209602850Y-100454398D01*
X209626883Y-100449618D01*
X209649522Y-100440240D01*
X209669897Y-100426626D01*
X209687224Y-100409299D01*
X209700838Y-100388925D01*
X209710215Y-100366286D01*
X209714996Y-100342252D01*
X209714996Y-100317748D01*
X209710216Y-100293715D01*
X209700838Y-100271076D01*
X209687224Y-100250701D01*
X209669897Y-100233374D01*
X209649523Y-100219760D01*
X209626884Y-100210383D01*
X209602850Y-100205602D01*
X209478564Y-100193361D01*
X209438209Y-100181119D01*
X209261785Y-100127602D01*
X209062003Y-100020816D01*
X208886893Y-99877107D01*
X208743184Y-99701997D01*
X208636398Y-99502215D01*
X208570640Y-99285439D01*
X208570639Y-99285436D01*
X208548436Y-99060000D01*
X208570639Y-98834564D01*
X208636399Y-98617783D01*
X208743185Y-98418002D01*
X208886893Y-98242893D01*
X209062002Y-98099185D01*
X209062001Y-98099185D01*
X209062003Y-98099184D01*
X209261785Y-97992398D01*
X209478561Y-97926640D01*
X209478564Y-97926639D01*
X209602850Y-97914398D01*
X209626883Y-97909618D01*
X209649522Y-97900240D01*
X209669897Y-97886626D01*
X209687224Y-97869299D01*
X209700838Y-97848925D01*
X209710215Y-97826286D01*
X209714996Y-97802252D01*
X209714996Y-97777748D01*
X209710216Y-97753715D01*
X209700838Y-97731076D01*
X209687224Y-97710701D01*
X209669897Y-97693374D01*
X209649523Y-97679760D01*
X209626884Y-97670383D01*
X209602850Y-97665602D01*
X209478564Y-97653361D01*
X209418033Y-97634999D01*
X209261785Y-97587602D01*
X209062003Y-97480816D01*
X208886893Y-97337107D01*
X208743184Y-97161997D01*
X208636398Y-96962215D01*
X208570640Y-96745439D01*
X208570639Y-96745436D01*
X208548436Y-96520000D01*
X208570639Y-96294564D01*
X208611087Y-96161224D01*
X208636398Y-96077785D01*
X208743184Y-95878003D01*
X208886893Y-95702893D01*
X209062003Y-95559184D01*
X209261785Y-95452398D01*
X209478561Y-95386640D01*
X209478564Y-95386639D01*
X209602850Y-95374398D01*
X209626883Y-95369618D01*
X209649522Y-95360240D01*
X209669897Y-95346626D01*
X209687224Y-95329299D01*
X209700838Y-95308925D01*
X209710215Y-95286286D01*
X209714996Y-95262252D01*
X209714996Y-95237748D01*
X209710216Y-95213715D01*
X209700838Y-95191076D01*
X209687224Y-95170701D01*
X209669897Y-95153374D01*
X209649523Y-95139760D01*
X209626884Y-95130383D01*
X209602850Y-95125602D01*
X209478564Y-95113361D01*
X209429340Y-95098429D01*
X209261785Y-95047602D01*
X209062003Y-94940816D01*
X208886893Y-94797107D01*
X208743184Y-94621997D01*
X208636398Y-94422215D01*
X208570640Y-94205439D01*
X208570639Y-94205436D01*
X208548436Y-93980000D01*
X208570639Y-93754564D01*
X208636399Y-93537783D01*
X208743185Y-93338002D01*
X208886893Y-93162893D01*
X209062002Y-93019185D01*
X209062001Y-93019185D01*
X209062003Y-93019184D01*
X209261785Y-92912398D01*
X209478561Y-92846640D01*
X209478564Y-92846639D01*
X209552083Y-92839398D01*
X209576116Y-92834618D01*
X209598755Y-92825240D01*
X209619130Y-92811626D01*
X209636457Y-92794299D01*
X209650071Y-92773925D01*
X209659449Y-92751286D01*
X209664229Y-92727252D01*
X209664229Y-92702748D01*
X209659449Y-92678715D01*
X209650071Y-92656076D01*
X209636457Y-92635701D01*
X209619130Y-92618374D01*
X209598756Y-92604760D01*
X209576117Y-92595382D01*
X209552083Y-92590602D01*
X209539831Y-92590000D01*
X208554000Y-92590000D01*
X208554000Y-90290000D01*
X211054000Y-90290000D01*
X211054000Y-92590000D01*
X211054000Y-92590000D01*
G37*
G36*
X189809436Y-90306639D02*
X189809439Y-90306640D01*
X190026215Y-90372398D01*
X190225997Y-90479184D01*
X190401107Y-90622893D01*
X190544816Y-90798003D01*
X190651602Y-90997785D01*
X190705119Y-91174209D01*
X190717361Y-91214564D01*
X190739564Y-91440000D01*
X190717361Y-91665436D01*
X190717360Y-91665439D01*
X190651602Y-91882215D01*
X190544816Y-92081997D01*
X190401107Y-92257107D01*
X190225997Y-92400816D01*
X190026215Y-92507602D01*
X189849791Y-92561119D01*
X189809436Y-92573361D01*
X189685150Y-92585602D01*
X189661117Y-92590382D01*
X189638478Y-92599760D01*
X189618103Y-92613374D01*
X189600776Y-92630701D01*
X189587162Y-92651075D01*
X189577785Y-92673714D01*
X189573004Y-92697748D01*
X189573004Y-92722252D01*
X189577784Y-92746285D01*
X189587162Y-92768924D01*
X189600776Y-92789299D01*
X189618103Y-92806626D01*
X189638477Y-92820240D01*
X189661116Y-92829617D01*
X189685150Y-92834398D01*
X189809436Y-92846639D01*
X189809439Y-92846640D01*
X190026215Y-92912398D01*
X190225997Y-93019184D01*
X190225999Y-93019185D01*
X190225998Y-93019185D01*
X190401107Y-93162893D01*
X190544815Y-93338002D01*
X190651601Y-93537783D01*
X190717361Y-93754564D01*
X190739564Y-93980000D01*
X190717361Y-94205436D01*
X190717360Y-94205439D01*
X190651602Y-94422215D01*
X190544816Y-94621997D01*
X190401107Y-94797107D01*
X190225997Y-94940816D01*
X190026215Y-95047602D01*
X189858660Y-95098429D01*
X189809436Y-95113361D01*
X189685150Y-95125602D01*
X189661117Y-95130382D01*
X189638478Y-95139760D01*
X189618103Y-95153374D01*
X189600776Y-95170701D01*
X189587162Y-95191075D01*
X189577785Y-95213714D01*
X189573004Y-95237748D01*
X189573004Y-95262252D01*
X189577784Y-95286285D01*
X189587162Y-95308924D01*
X189600776Y-95329299D01*
X189618103Y-95346626D01*
X189638477Y-95360240D01*
X189661116Y-95369617D01*
X189685150Y-95374398D01*
X189809436Y-95386639D01*
X189809439Y-95386640D01*
X190026215Y-95452398D01*
X190225997Y-95559184D01*
X190401107Y-95702893D01*
X190544816Y-95878003D01*
X190651602Y-96077785D01*
X190676913Y-96161224D01*
X190717361Y-96294564D01*
X190739564Y-96520000D01*
X190717361Y-96745436D01*
X190717360Y-96745439D01*
X190651602Y-96962215D01*
X190544816Y-97161997D01*
X190401107Y-97337107D01*
X190225997Y-97480816D01*
X190026215Y-97587602D01*
X189869967Y-97634999D01*
X189809436Y-97653361D01*
X189685150Y-97665602D01*
X189661117Y-97670382D01*
X189638478Y-97679760D01*
X189618103Y-97693374D01*
X189600776Y-97710701D01*
X189587162Y-97731075D01*
X189577785Y-97753714D01*
X189573004Y-97777748D01*
X189573004Y-97802252D01*
X189577784Y-97826285D01*
X189587162Y-97848924D01*
X189600776Y-97869299D01*
X189618103Y-97886626D01*
X189638477Y-97900240D01*
X189661116Y-97909617D01*
X189685150Y-97914398D01*
X189809436Y-97926639D01*
X189809439Y-97926640D01*
X190026215Y-97992398D01*
X190225997Y-98099184D01*
X190225999Y-98099185D01*
X190225998Y-98099185D01*
X190401107Y-98242893D01*
X190544815Y-98418002D01*
X190651601Y-98617783D01*
X190717361Y-98834564D01*
X190739564Y-99060000D01*
X190717361Y-99285436D01*
X190717360Y-99285439D01*
X190651602Y-99502215D01*
X190544816Y-99701997D01*
X190401107Y-99877107D01*
X190225997Y-100020816D01*
X190026215Y-100127602D01*
X189849791Y-100181119D01*
X189809436Y-100193361D01*
X189685150Y-100205602D01*
X189661117Y-100210382D01*
X189638478Y-100219760D01*
X189618103Y-100233374D01*
X189600776Y-100250701D01*
X189587162Y-100271075D01*
X189577785Y-100293714D01*
X189573004Y-100317748D01*
X189573004Y-100342252D01*
X189577784Y-100366285D01*
X189587162Y-100388924D01*
X189600776Y-100409299D01*
X189618103Y-100426626D01*
X189638477Y-100440240D01*
X189661116Y-100449617D01*
X189685150Y-100454398D01*
X189809436Y-100466639D01*
X189809439Y-100466640D01*
X190026215Y-100532398D01*
X190225997Y-100639184D01*
X190401107Y-100782893D01*
X190544816Y-100958003D01*
X190651602Y-101157785D01*
X190665579Y-101203862D01*
X190717361Y-101374564D01*
X190739564Y-101600000D01*
X190717361Y-101825436D01*
X190717360Y-101825439D01*
X190651602Y-102042215D01*
X190544816Y-102241997D01*
X190401107Y-102417107D01*
X190225997Y-102560816D01*
X190026215Y-102667602D01*
X189849791Y-102721119D01*
X189809436Y-102733361D01*
X189685150Y-102745602D01*
X189661117Y-102750382D01*
X189638478Y-102759760D01*
X189618103Y-102773374D01*
X189600776Y-102790701D01*
X189587162Y-102811075D01*
X189577785Y-102833714D01*
X189573004Y-102857748D01*
X189573004Y-102882252D01*
X189577784Y-102906285D01*
X189587162Y-102928924D01*
X189600776Y-102949299D01*
X189618103Y-102966626D01*
X189638477Y-102980240D01*
X189661116Y-102989617D01*
X189685150Y-102994398D01*
X189809436Y-103006639D01*
X189809439Y-103006640D01*
X190026215Y-103072398D01*
X190225997Y-103179184D01*
X190401107Y-103322893D01*
X190544816Y-103498003D01*
X190637811Y-103671984D01*
X190651601Y-103697783D01*
X190717361Y-103914564D01*
X190739564Y-104140000D01*
X190717361Y-104365436D01*
X190717360Y-104365439D01*
X190651602Y-104582215D01*
X190544816Y-104781997D01*
X190401107Y-104957107D01*
X190225997Y-105100816D01*
X190026215Y-105207602D01*
X189849791Y-105261119D01*
X189809436Y-105273361D01*
X189685150Y-105285602D01*
X189661117Y-105290382D01*
X189638478Y-105299760D01*
X189618103Y-105313374D01*
X189600776Y-105330701D01*
X189587162Y-105351075D01*
X189577785Y-105373714D01*
X189573004Y-105397748D01*
X189573004Y-105422252D01*
X189577784Y-105446285D01*
X189587162Y-105468924D01*
X189600776Y-105489299D01*
X189618103Y-105506626D01*
X189638477Y-105520240D01*
X189661116Y-105529617D01*
X189685150Y-105534398D01*
X189809436Y-105546639D01*
X189809439Y-105546640D01*
X190026215Y-105612398D01*
X190225997Y-105719184D01*
X190401107Y-105862893D01*
X190544816Y-106038003D01*
X190602145Y-106145258D01*
X190651601Y-106237783D01*
X190717361Y-106454564D01*
X190739564Y-106680000D01*
X190717361Y-106905436D01*
X190717360Y-106905439D01*
X190651602Y-107122215D01*
X190544816Y-107321997D01*
X190401107Y-107497107D01*
X190225997Y-107640816D01*
X190026215Y-107747602D01*
X189849791Y-107801119D01*
X189809436Y-107813361D01*
X189685150Y-107825602D01*
X189661117Y-107830382D01*
X189638478Y-107839760D01*
X189618103Y-107853374D01*
X189600776Y-107870701D01*
X189587162Y-107891075D01*
X189577785Y-107913714D01*
X189573004Y-107937748D01*
X189573004Y-107962252D01*
X189577784Y-107986285D01*
X189587162Y-108008924D01*
X189600776Y-108029299D01*
X189618103Y-108046626D01*
X189638477Y-108060240D01*
X189661116Y-108069617D01*
X189685150Y-108074398D01*
X189809436Y-108086639D01*
X189809439Y-108086640D01*
X190026215Y-108152398D01*
X190225997Y-108259184D01*
X190401107Y-108402893D01*
X190544816Y-108578003D01*
X190651602Y-108777785D01*
X190705119Y-108954209D01*
X190717361Y-108994564D01*
X190739564Y-109220000D01*
X190717361Y-109445436D01*
X190717360Y-109445439D01*
X190651602Y-109662215D01*
X190544816Y-109861997D01*
X190401107Y-110037107D01*
X190225997Y-110180816D01*
X190026215Y-110287602D01*
X189849791Y-110341119D01*
X189809436Y-110353361D01*
X189685150Y-110365602D01*
X189661117Y-110370382D01*
X189638478Y-110379760D01*
X189618103Y-110393374D01*
X189600776Y-110410701D01*
X189587162Y-110431075D01*
X189577785Y-110453714D01*
X189573004Y-110477748D01*
X189573004Y-110502252D01*
X189577784Y-110526285D01*
X189587162Y-110548924D01*
X189600776Y-110569299D01*
X189618103Y-110586626D01*
X189638477Y-110600240D01*
X189661116Y-110609617D01*
X189685150Y-110614398D01*
X189809436Y-110626639D01*
X189809439Y-110626640D01*
X190026215Y-110692398D01*
X190225997Y-110799184D01*
X190401107Y-110942893D01*
X190544816Y-111118003D01*
X190597056Y-111215737D01*
X190651601Y-111317783D01*
X190717361Y-111534564D01*
X190739564Y-111760000D01*
X190717361Y-111985436D01*
X190717360Y-111985439D01*
X190651602Y-112202215D01*
X190544816Y-112401997D01*
X190401107Y-112577107D01*
X190225997Y-112720816D01*
X190026215Y-112827602D01*
X189849791Y-112881119D01*
X189809436Y-112893361D01*
X189685150Y-112905602D01*
X189661117Y-112910382D01*
X189638478Y-112919760D01*
X189618103Y-112933374D01*
X189600776Y-112950701D01*
X189587162Y-112971075D01*
X189577785Y-112993714D01*
X189573004Y-113017748D01*
X189573004Y-113042252D01*
X189577784Y-113066285D01*
X189587162Y-113088924D01*
X189600776Y-113109299D01*
X189618103Y-113126626D01*
X189638477Y-113140240D01*
X189661116Y-113149617D01*
X189685150Y-113154398D01*
X189809436Y-113166639D01*
X189809439Y-113166640D01*
X190026215Y-113232398D01*
X190225997Y-113339184D01*
X190225999Y-113339185D01*
X190225998Y-113339185D01*
X190401107Y-113482893D01*
X190544815Y-113658002D01*
X190651601Y-113857783D01*
X190717361Y-114074564D01*
X190739564Y-114300000D01*
X190717361Y-114525436D01*
X190717360Y-114525439D01*
X190651602Y-114742215D01*
X190544816Y-114941997D01*
X190401107Y-115117107D01*
X190225997Y-115260816D01*
X190026215Y-115367602D01*
X189849791Y-115421119D01*
X189809436Y-115433361D01*
X189640496Y-115450000D01*
X189327504Y-115450000D01*
X189158564Y-115433361D01*
X189118209Y-115421119D01*
X188941785Y-115367602D01*
X188742003Y-115260816D01*
X188566893Y-115117107D01*
X188423184Y-114941997D01*
X188316398Y-114742215D01*
X188250640Y-114525439D01*
X188250639Y-114525436D01*
X188228436Y-114300000D01*
X188250639Y-114074564D01*
X188316399Y-113857783D01*
X188423185Y-113658002D01*
X188566893Y-113482893D01*
X188742002Y-113339185D01*
X188742001Y-113339185D01*
X188742003Y-113339184D01*
X188941785Y-113232398D01*
X189158561Y-113166640D01*
X189158564Y-113166639D01*
X189282850Y-113154398D01*
X189306883Y-113149618D01*
X189329522Y-113140240D01*
X189349897Y-113126626D01*
X189367224Y-113109299D01*
X189380838Y-113088925D01*
X189390215Y-113066286D01*
X189394996Y-113042252D01*
X189394996Y-113017748D01*
X189390216Y-112993715D01*
X189380838Y-112971076D01*
X189367224Y-112950701D01*
X189349897Y-112933374D01*
X189329523Y-112919760D01*
X189306884Y-112910383D01*
X189282850Y-112905602D01*
X189158564Y-112893361D01*
X189118209Y-112881119D01*
X188941785Y-112827602D01*
X188742003Y-112720816D01*
X188566893Y-112577107D01*
X188423184Y-112401997D01*
X188316398Y-112202215D01*
X188250640Y-111985439D01*
X188250639Y-111985436D01*
X188228436Y-111760000D01*
X188250639Y-111534564D01*
X188316399Y-111317783D01*
X188370944Y-111215737D01*
X188423184Y-111118003D01*
X188566893Y-110942893D01*
X188742003Y-110799184D01*
X188941785Y-110692398D01*
X189158561Y-110626640D01*
X189158564Y-110626639D01*
X189282850Y-110614398D01*
X189306883Y-110609618D01*
X189329522Y-110600240D01*
X189349897Y-110586626D01*
X189367224Y-110569299D01*
X189380838Y-110548925D01*
X189390215Y-110526286D01*
X189394996Y-110502252D01*
X189394996Y-110477748D01*
X189390216Y-110453715D01*
X189380838Y-110431076D01*
X189367224Y-110410701D01*
X189349897Y-110393374D01*
X189329523Y-110379760D01*
X189306884Y-110370383D01*
X189282850Y-110365602D01*
X189158564Y-110353361D01*
X189118209Y-110341119D01*
X188941785Y-110287602D01*
X188742003Y-110180816D01*
X188566893Y-110037107D01*
X188423184Y-109861997D01*
X188316398Y-109662215D01*
X188250640Y-109445439D01*
X188250639Y-109445436D01*
X188228436Y-109220000D01*
X188250639Y-108994564D01*
X188262881Y-108954209D01*
X188316398Y-108777785D01*
X188423184Y-108578003D01*
X188566893Y-108402893D01*
X188742003Y-108259184D01*
X188941785Y-108152398D01*
X189158561Y-108086640D01*
X189158564Y-108086639D01*
X189282850Y-108074398D01*
X189306883Y-108069618D01*
X189329522Y-108060240D01*
X189349897Y-108046626D01*
X189367224Y-108029299D01*
X189380838Y-108008925D01*
X189390215Y-107986286D01*
X189394996Y-107962252D01*
X189394996Y-107937748D01*
X189390216Y-107913715D01*
X189380838Y-107891076D01*
X189367224Y-107870701D01*
X189349897Y-107853374D01*
X189329523Y-107839760D01*
X189306884Y-107830383D01*
X189282850Y-107825602D01*
X189158564Y-107813361D01*
X189118209Y-107801119D01*
X188941785Y-107747602D01*
X188742003Y-107640816D01*
X188566893Y-107497107D01*
X188423184Y-107321997D01*
X188316398Y-107122215D01*
X188250640Y-106905439D01*
X188250639Y-106905436D01*
X188228436Y-106680000D01*
X188250639Y-106454564D01*
X188316399Y-106237783D01*
X188365855Y-106145258D01*
X188423184Y-106038003D01*
X188566893Y-105862893D01*
X188742003Y-105719184D01*
X188941785Y-105612398D01*
X189158561Y-105546640D01*
X189158564Y-105546639D01*
X189282850Y-105534398D01*
X189306883Y-105529618D01*
X189329522Y-105520240D01*
X189349897Y-105506626D01*
X189367224Y-105489299D01*
X189380838Y-105468925D01*
X189390215Y-105446286D01*
X189394996Y-105422252D01*
X189394996Y-105397748D01*
X189390216Y-105373715D01*
X189380838Y-105351076D01*
X189367224Y-105330701D01*
X189349897Y-105313374D01*
X189329523Y-105299760D01*
X189306884Y-105290383D01*
X189282850Y-105285602D01*
X189158564Y-105273361D01*
X189118209Y-105261119D01*
X188941785Y-105207602D01*
X188742003Y-105100816D01*
X188566893Y-104957107D01*
X188423184Y-104781997D01*
X188316398Y-104582215D01*
X188250640Y-104365439D01*
X188250639Y-104365436D01*
X188228436Y-104140000D01*
X188250639Y-103914564D01*
X188316399Y-103697783D01*
X188330189Y-103671984D01*
X188423184Y-103498003D01*
X188566893Y-103322893D01*
X188742003Y-103179184D01*
X188941785Y-103072398D01*
X189158561Y-103006640D01*
X189158564Y-103006639D01*
X189282850Y-102994398D01*
X189306883Y-102989618D01*
X189329522Y-102980240D01*
X189349897Y-102966626D01*
X189367224Y-102949299D01*
X189380838Y-102928925D01*
X189390215Y-102906286D01*
X189394996Y-102882252D01*
X189394996Y-102857748D01*
X189390216Y-102833715D01*
X189380838Y-102811076D01*
X189367224Y-102790701D01*
X189349897Y-102773374D01*
X189329523Y-102759760D01*
X189306884Y-102750383D01*
X189282850Y-102745602D01*
X189158564Y-102733361D01*
X189118209Y-102721119D01*
X188941785Y-102667602D01*
X188742003Y-102560816D01*
X188566893Y-102417107D01*
X188423184Y-102241997D01*
X188316398Y-102042215D01*
X188250640Y-101825439D01*
X188250639Y-101825436D01*
X188228436Y-101600000D01*
X188250639Y-101374564D01*
X188302421Y-101203862D01*
X188316398Y-101157785D01*
X188423184Y-100958003D01*
X188566893Y-100782893D01*
X188742003Y-100639184D01*
X188941785Y-100532398D01*
X189158561Y-100466640D01*
X189158564Y-100466639D01*
X189282850Y-100454398D01*
X189306883Y-100449618D01*
X189329522Y-100440240D01*
X189349897Y-100426626D01*
X189367224Y-100409299D01*
X189380838Y-100388925D01*
X189390215Y-100366286D01*
X189394996Y-100342252D01*
X189394996Y-100317748D01*
X189390216Y-100293715D01*
X189380838Y-100271076D01*
X189367224Y-100250701D01*
X189349897Y-100233374D01*
X189329523Y-100219760D01*
X189306884Y-100210383D01*
X189282850Y-100205602D01*
X189158564Y-100193361D01*
X189118209Y-100181119D01*
X188941785Y-100127602D01*
X188742003Y-100020816D01*
X188566893Y-99877107D01*
X188423184Y-99701997D01*
X188316398Y-99502215D01*
X188250640Y-99285439D01*
X188250639Y-99285436D01*
X188228436Y-99060000D01*
X188250639Y-98834564D01*
X188316399Y-98617783D01*
X188423185Y-98418002D01*
X188566893Y-98242893D01*
X188742002Y-98099185D01*
X188742001Y-98099185D01*
X188742003Y-98099184D01*
X188941785Y-97992398D01*
X189158561Y-97926640D01*
X189158564Y-97926639D01*
X189282850Y-97914398D01*
X189306883Y-97909618D01*
X189329522Y-97900240D01*
X189349897Y-97886626D01*
X189367224Y-97869299D01*
X189380838Y-97848925D01*
X189390215Y-97826286D01*
X189394996Y-97802252D01*
X189394996Y-97777748D01*
X189390216Y-97753715D01*
X189380838Y-97731076D01*
X189367224Y-97710701D01*
X189349897Y-97693374D01*
X189329523Y-97679760D01*
X189306884Y-97670383D01*
X189282850Y-97665602D01*
X189158564Y-97653361D01*
X189098033Y-97634999D01*
X188941785Y-97587602D01*
X188742003Y-97480816D01*
X188566893Y-97337107D01*
X188423184Y-97161997D01*
X188316398Y-96962215D01*
X188250640Y-96745439D01*
X188250639Y-96745436D01*
X188228436Y-96520000D01*
X188250639Y-96294564D01*
X188291087Y-96161224D01*
X188316398Y-96077785D01*
X188423184Y-95878003D01*
X188566893Y-95702893D01*
X188742003Y-95559184D01*
X188941785Y-95452398D01*
X189158561Y-95386640D01*
X189158564Y-95386639D01*
X189282850Y-95374398D01*
X189306883Y-95369618D01*
X189329522Y-95360240D01*
X189349897Y-95346626D01*
X189367224Y-95329299D01*
X189380838Y-95308925D01*
X189390215Y-95286286D01*
X189394996Y-95262252D01*
X189394996Y-95237748D01*
X189390216Y-95213715D01*
X189380838Y-95191076D01*
X189367224Y-95170701D01*
X189349897Y-95153374D01*
X189329523Y-95139760D01*
X189306884Y-95130383D01*
X189282850Y-95125602D01*
X189158564Y-95113361D01*
X189109340Y-95098429D01*
X188941785Y-95047602D01*
X188742003Y-94940816D01*
X188566893Y-94797107D01*
X188423184Y-94621997D01*
X188316398Y-94422215D01*
X188250640Y-94205439D01*
X188250639Y-94205436D01*
X188228436Y-93980000D01*
X188250639Y-93754564D01*
X188316399Y-93537783D01*
X188423185Y-93338002D01*
X188566893Y-93162893D01*
X188742002Y-93019185D01*
X188742001Y-93019185D01*
X188742003Y-93019184D01*
X188941785Y-92912398D01*
X189158561Y-92846640D01*
X189158564Y-92846639D01*
X189282850Y-92834398D01*
X189306883Y-92829618D01*
X189329522Y-92820240D01*
X189349897Y-92806626D01*
X189367224Y-92789299D01*
X189380838Y-92768925D01*
X189390215Y-92746286D01*
X189394996Y-92722252D01*
X189394996Y-92697748D01*
X189390216Y-92673715D01*
X189380838Y-92651076D01*
X189367224Y-92630701D01*
X189349897Y-92613374D01*
X189329523Y-92599760D01*
X189306884Y-92590383D01*
X189282850Y-92585602D01*
X189158564Y-92573361D01*
X189118209Y-92561119D01*
X188941785Y-92507602D01*
X188742003Y-92400816D01*
X188566893Y-92257107D01*
X188423184Y-92081997D01*
X188316398Y-91882215D01*
X188250640Y-91665439D01*
X188250639Y-91665436D01*
X188228436Y-91440000D01*
X188250639Y-91214564D01*
X188262881Y-91174209D01*
X188316398Y-90997785D01*
X188423184Y-90798003D01*
X188566893Y-90622893D01*
X188742003Y-90479184D01*
X188941785Y-90372398D01*
X189158561Y-90306640D01*
X189158564Y-90306639D01*
X189327504Y-90290000D01*
X189640496Y-90290000D01*
X189809436Y-90306639D01*
X189809436Y-90306639D01*
G37*
G36*
X194579845Y-101008810D02*
X194824896Y-101083145D01*
X195050736Y-101203860D01*
X195248687Y-101366313D01*
X195411140Y-101564264D01*
X195531855Y-101790104D01*
X195606190Y-102035155D01*
X195631290Y-102290000D01*
X195606190Y-102544845D01*
X195531855Y-102789896D01*
X195411140Y-103015736D01*
X195248687Y-103213687D01*
X195170695Y-103277693D01*
X195153374Y-103295014D01*
X195139760Y-103315388D01*
X195130382Y-103338027D01*
X195125602Y-103362061D01*
X195125000Y-103374313D01*
X195125000Y-105340000D01*
X194724903Y-105340000D01*
X194700517Y-105342402D01*
X194677068Y-105349515D01*
X194655457Y-105361066D01*
X194636515Y-105376612D01*
X194620969Y-105395554D01*
X194609418Y-105417165D01*
X194602305Y-105440614D01*
X194599903Y-105465000D01*
X194602305Y-105489386D01*
X194609418Y-105512835D01*
X194620969Y-105534446D01*
X194636515Y-105553388D01*
X194665978Y-105575240D01*
X194705347Y-105596283D01*
X194850001Y-105714999D01*
X194968717Y-105859653D01*
X195056932Y-106024691D01*
X195056932Y-106024692D01*
X195111254Y-106203768D01*
X195129596Y-106390000D01*
X195123230Y-106454641D01*
X195111254Y-106576231D01*
X195056932Y-106755309D01*
X194968717Y-106920347D01*
X194850001Y-107065001D01*
X194705347Y-107183717D01*
X194535600Y-107274449D01*
X194522777Y-107279760D01*
X194502403Y-107293374D01*
X194485076Y-107310702D01*
X194471462Y-107331076D01*
X194462085Y-107353716D01*
X194457305Y-107377749D01*
X194457305Y-107402253D01*
X194462086Y-107426287D01*
X194471463Y-107448926D01*
X194485077Y-107469300D01*
X194502405Y-107486627D01*
X194522779Y-107500241D01*
X194535601Y-107505552D01*
X194705347Y-107596283D01*
X194850001Y-107714999D01*
X194968717Y-107859653D01*
X195056932Y-108024691D01*
X195070560Y-108069617D01*
X195111254Y-108203768D01*
X195129596Y-108390000D01*
X195111254Y-108576232D01*
X195084093Y-108665770D01*
X195056932Y-108755309D01*
X194968717Y-108920347D01*
X194850003Y-109064999D01*
X194823740Y-109086553D01*
X194806413Y-109103881D01*
X194792799Y-109124255D01*
X194783422Y-109146895D01*
X194778642Y-109170928D01*
X194778642Y-109195432D01*
X194783423Y-109219466D01*
X194792800Y-109242105D01*
X194806414Y-109262479D01*
X194823742Y-109279806D01*
X194844106Y-109293413D01*
X195050736Y-109403860D01*
X195248687Y-109566313D01*
X195411140Y-109764264D01*
X195531855Y-109990104D01*
X195606190Y-110235155D01*
X195631290Y-110490000D01*
X195606190Y-110744845D01*
X195531855Y-110989896D01*
X195411140Y-111215736D01*
X195248687Y-111413687D01*
X195050736Y-111576140D01*
X194824896Y-111696855D01*
X194579845Y-111771190D01*
X194388864Y-111790000D01*
X192961136Y-111790000D01*
X192770155Y-111771190D01*
X192525104Y-111696855D01*
X192299264Y-111576140D01*
X192101313Y-111413687D01*
X191938860Y-111215736D01*
X191818145Y-110989896D01*
X191743810Y-110744845D01*
X191718710Y-110490000D01*
X191743810Y-110235155D01*
X191818145Y-109990104D01*
X191938860Y-109764264D01*
X192101313Y-109566313D01*
X192299264Y-109403860D01*
X192505894Y-109293413D01*
X192526259Y-109279805D01*
X192543586Y-109262478D01*
X192557200Y-109242103D01*
X192566578Y-109219464D01*
X192571358Y-109195431D01*
X192571358Y-109170927D01*
X192566577Y-109146893D01*
X192557200Y-109124254D01*
X192543586Y-109103880D01*
X192526260Y-109086553D01*
X192499997Y-109064999D01*
X192381283Y-108920347D01*
X192293068Y-108755309D01*
X192265907Y-108665770D01*
X192238746Y-108576232D01*
X192220404Y-108390000D01*
X192238746Y-108203768D01*
X192279440Y-108069617D01*
X192293068Y-108024691D01*
X192381283Y-107859653D01*
X192499999Y-107714999D01*
X192644653Y-107596283D01*
X192814400Y-107505551D01*
X192827223Y-107500240D01*
X192847597Y-107486626D01*
X192864924Y-107469298D01*
X192878538Y-107448924D01*
X192887915Y-107426284D01*
X192892695Y-107402251D01*
X192892695Y-107377747D01*
X192887914Y-107353713D01*
X192878537Y-107331074D01*
X192864923Y-107310700D01*
X192847595Y-107293373D01*
X192827221Y-107279759D01*
X192814399Y-107274448D01*
X192644653Y-107183717D01*
X192499999Y-107065001D01*
X192381283Y-106920347D01*
X192293068Y-106755309D01*
X192238746Y-106576231D01*
X192226771Y-106454641D01*
X192220404Y-106390000D01*
X192238746Y-106203768D01*
X192293068Y-106024692D01*
X192293068Y-106024691D01*
X192381283Y-105859653D01*
X192499999Y-105714999D01*
X192644653Y-105596283D01*
X192684022Y-105575240D01*
X192704396Y-105561626D01*
X192721724Y-105544299D01*
X192735337Y-105523924D01*
X192744715Y-105501285D01*
X192749495Y-105477252D01*
X192749495Y-105452748D01*
X192744714Y-105428714D01*
X192735337Y-105406075D01*
X192721723Y-105385701D01*
X192704396Y-105368373D01*
X192684021Y-105354760D01*
X192661382Y-105345382D01*
X192625097Y-105340000D01*
X192225000Y-105340000D01*
X192225000Y-103374313D01*
X192222598Y-103349927D01*
X192215485Y-103326478D01*
X192203934Y-103304867D01*
X192188388Y-103285925D01*
X192179311Y-103277697D01*
X192101313Y-103213687D01*
X191938860Y-103015736D01*
X191818145Y-102789896D01*
X191743810Y-102544845D01*
X191718710Y-102290000D01*
X191743810Y-102035155D01*
X191818145Y-101790104D01*
X191938860Y-101564264D01*
X192101313Y-101366313D01*
X192299264Y-101203860D01*
X192525104Y-101083145D01*
X192770155Y-101008810D01*
X192961136Y-100990000D01*
X194388864Y-100990000D01*
X194579845Y-101008810D01*
X194579845Y-101008810D01*
G37*
G36*
X201469419Y-106747026D02*
X201503777Y-106750410D01*
X201637611Y-106791009D01*
X201704529Y-106811308D01*
X201889545Y-106910200D01*
X202051712Y-107043288D01*
X202184800Y-107205455D01*
X202283692Y-107390470D01*
X202287266Y-107402253D01*
X202344590Y-107591222D01*
X202344590Y-107591224D01*
X202360000Y-107747682D01*
X202360000Y-108152317D01*
X202354932Y-108203768D01*
X202344590Y-108308777D01*
X202319951Y-108390000D01*
X202283692Y-108509529D01*
X202184800Y-108694545D01*
X202051712Y-108856712D01*
X201889545Y-108989800D01*
X201704530Y-109088692D01*
X201637612Y-109108991D01*
X201503778Y-109149590D01*
X201469420Y-109152974D01*
X201295000Y-109170153D01*
X201120581Y-109152974D01*
X201086223Y-109149590D01*
X200952389Y-109108991D01*
X200885471Y-109088692D01*
X200700456Y-108989800D01*
X200538289Y-108856712D01*
X200405200Y-108694545D01*
X200306308Y-108509530D01*
X200269769Y-108389078D01*
X200245410Y-108308778D01*
X200235068Y-108203769D01*
X200230000Y-108152318D01*
X200230000Y-107747683D01*
X200245410Y-107591225D01*
X200245410Y-107591223D01*
X200288576Y-107448926D01*
X200306308Y-107390471D01*
X200405200Y-107205455D01*
X200538288Y-107043288D01*
X200700455Y-106910200D01*
X200885470Y-106811308D01*
X200952388Y-106791009D01*
X201086222Y-106750410D01*
X201120580Y-106747026D01*
X201295000Y-106729847D01*
X201469419Y-106747026D01*
X201469419Y-106747026D01*
G37*
G36*
X203981318Y-105054411D02*
X204053767Y-105068822D01*
X204110303Y-105092240D01*
X204190257Y-105125358D01*
X204313100Y-105207439D01*
X204417561Y-105311900D01*
X204499642Y-105434743D01*
X204522276Y-105489386D01*
X204556178Y-105571233D01*
X204585000Y-105716131D01*
X204585000Y-105863869D01*
X204556178Y-106008767D01*
X204544068Y-106038002D01*
X204499642Y-106145257D01*
X204417561Y-106268100D01*
X204313100Y-106372561D01*
X204190257Y-106454642D01*
X204097459Y-106493080D01*
X204053767Y-106511178D01*
X204053766Y-106511178D01*
X204047091Y-106513943D01*
X204037414Y-106516878D01*
X204015802Y-106528429D01*
X203996860Y-106543974D01*
X203981314Y-106562915D01*
X203969762Y-106584526D01*
X203962648Y-106607974D01*
X203960245Y-106632361D01*
X203962646Y-106656747D01*
X203969758Y-106680196D01*
X203981309Y-106701808D01*
X203996854Y-106720750D01*
X204015795Y-106736296D01*
X204037406Y-106747848D01*
X204048959Y-106751982D01*
X204174816Y-106790161D01*
X204244529Y-106811308D01*
X204429545Y-106910200D01*
X204591712Y-107043288D01*
X204724800Y-107205455D01*
X204823692Y-107390470D01*
X204827266Y-107402253D01*
X204884590Y-107591222D01*
X204884590Y-107591224D01*
X204900000Y-107747682D01*
X204900000Y-108152317D01*
X204894932Y-108203768D01*
X204884590Y-108308777D01*
X204859951Y-108390000D01*
X204823692Y-108509529D01*
X204724800Y-108694545D01*
X204591712Y-108856712D01*
X204429545Y-108989800D01*
X204244530Y-109088692D01*
X204177612Y-109108991D01*
X204043778Y-109149590D01*
X204009420Y-109152974D01*
X203835000Y-109170153D01*
X203660581Y-109152974D01*
X203626223Y-109149590D01*
X203492389Y-109108991D01*
X203425471Y-109088692D01*
X203240456Y-108989800D01*
X203078289Y-108856712D01*
X202945200Y-108694545D01*
X202846308Y-108509530D01*
X202809769Y-108389078D01*
X202785410Y-108308778D01*
X202775068Y-108203769D01*
X202770000Y-108152318D01*
X202770000Y-107747683D01*
X202785410Y-107591225D01*
X202785410Y-107591223D01*
X202828576Y-107448926D01*
X202846308Y-107390471D01*
X202945200Y-107205455D01*
X203078288Y-107043288D01*
X203240455Y-106910200D01*
X203425470Y-106811308D01*
X203533797Y-106778447D01*
X203621041Y-106751982D01*
X203643680Y-106742605D01*
X203664054Y-106728991D01*
X203681382Y-106711664D01*
X203694995Y-106691289D01*
X203704373Y-106668650D01*
X203709153Y-106644617D01*
X203709153Y-106620112D01*
X203704372Y-106596079D01*
X203694995Y-106573440D01*
X203681381Y-106553066D01*
X203664054Y-106535738D01*
X203643679Y-106522125D01*
X203621040Y-106512747D01*
X203618464Y-106512102D01*
X203479743Y-106454642D01*
X203356900Y-106372561D01*
X203252439Y-106268100D01*
X203170358Y-106145257D01*
X203125932Y-106038002D01*
X203113822Y-106008767D01*
X203085000Y-105863869D01*
X203085000Y-105716131D01*
X203113822Y-105571233D01*
X203147724Y-105489386D01*
X203170358Y-105434743D01*
X203252439Y-105311900D01*
X203356900Y-105207439D01*
X203479743Y-105125358D01*
X203559697Y-105092240D01*
X203616233Y-105068822D01*
X203688682Y-105054411D01*
X203761130Y-105040000D01*
X203908870Y-105040000D01*
X203981318Y-105054411D01*
X203981318Y-105054411D01*
G37*
G36*
X206549419Y-106747026D02*
X206583777Y-106750410D01*
X206717611Y-106791009D01*
X206784529Y-106811308D01*
X206969545Y-106910200D01*
X207131712Y-107043288D01*
X207264800Y-107205455D01*
X207363692Y-107390470D01*
X207367266Y-107402253D01*
X207424590Y-107591222D01*
X207424590Y-107591224D01*
X207440000Y-107747682D01*
X207440000Y-108152317D01*
X207434932Y-108203768D01*
X207424590Y-108308777D01*
X207399951Y-108390000D01*
X207363692Y-108509529D01*
X207264800Y-108694545D01*
X207131712Y-108856712D01*
X206969545Y-108989800D01*
X206784530Y-109088692D01*
X206717612Y-109108991D01*
X206583778Y-109149590D01*
X206549420Y-109152974D01*
X206375000Y-109170153D01*
X206200581Y-109152974D01*
X206166223Y-109149590D01*
X206032389Y-109108991D01*
X205965471Y-109088692D01*
X205780456Y-108989800D01*
X205618289Y-108856712D01*
X205485200Y-108694545D01*
X205386308Y-108509530D01*
X205349769Y-108389078D01*
X205325410Y-108308778D01*
X205315068Y-108203769D01*
X205310000Y-108152318D01*
X205310000Y-107747683D01*
X205325410Y-107591225D01*
X205325410Y-107591223D01*
X205368576Y-107448926D01*
X205386308Y-107390471D01*
X205485200Y-107205455D01*
X205618288Y-107043288D01*
X205780455Y-106910200D01*
X205965470Y-106811308D01*
X206032388Y-106791009D01*
X206166222Y-106750410D01*
X206200580Y-106747026D01*
X206375000Y-106729847D01*
X206549419Y-106747026D01*
X206549419Y-106747026D01*
G37*
G36*
X199820000Y-109165000D02*
X197690000Y-109165000D01*
X197690000Y-106735000D01*
X199820000Y-106735000D01*
X199820000Y-109165000D01*
X199820000Y-109165000D01*
G37*
G36*
X206644845Y-89578810D02*
X206889896Y-89653145D01*
X207115736Y-89773860D01*
X207313687Y-89936313D01*
X207476140Y-90134264D01*
X207596855Y-90360104D01*
X207671190Y-90605155D01*
X207696290Y-90860000D01*
X207671190Y-91114845D01*
X207596855Y-91359896D01*
X207476140Y-91585736D01*
X207313687Y-91783687D01*
X207235695Y-91847693D01*
X207218374Y-91865014D01*
X207204760Y-91885388D01*
X207195382Y-91908027D01*
X207190602Y-91932061D01*
X207190000Y-91944313D01*
X207190000Y-93910000D01*
X206789903Y-93910000D01*
X206765517Y-93912402D01*
X206742068Y-93919515D01*
X206720457Y-93931066D01*
X206701515Y-93946612D01*
X206685969Y-93965554D01*
X206674418Y-93987165D01*
X206667305Y-94010614D01*
X206664903Y-94035000D01*
X206667305Y-94059386D01*
X206674418Y-94082835D01*
X206685969Y-94104446D01*
X206701515Y-94123388D01*
X206730978Y-94145240D01*
X206770347Y-94166283D01*
X206915001Y-94284999D01*
X207033717Y-94429653D01*
X207121932Y-94594691D01*
X207121932Y-94594692D01*
X207176254Y-94773768D01*
X207194596Y-94960000D01*
X207176254Y-95146232D01*
X207173738Y-95154526D01*
X207121932Y-95325309D01*
X207033717Y-95490347D01*
X206915001Y-95635001D01*
X206770347Y-95753717D01*
X206600600Y-95844449D01*
X206587777Y-95849760D01*
X206567403Y-95863374D01*
X206550076Y-95880702D01*
X206536462Y-95901076D01*
X206527085Y-95923716D01*
X206522305Y-95947749D01*
X206522305Y-95972253D01*
X206527086Y-95996287D01*
X206536463Y-96018926D01*
X206550077Y-96039300D01*
X206567405Y-96056627D01*
X206587779Y-96070241D01*
X206600601Y-96075552D01*
X206770347Y-96166283D01*
X206915001Y-96284999D01*
X207033717Y-96429653D01*
X207121932Y-96594691D01*
X207121932Y-96594692D01*
X207176254Y-96773768D01*
X207194596Y-96960000D01*
X207176254Y-97146232D01*
X207171471Y-97161998D01*
X207121932Y-97325309D01*
X207033717Y-97490347D01*
X206915003Y-97634999D01*
X206888740Y-97656553D01*
X206871413Y-97673881D01*
X206857799Y-97694255D01*
X206848422Y-97716895D01*
X206843642Y-97740928D01*
X206843642Y-97765432D01*
X206848423Y-97789466D01*
X206857800Y-97812105D01*
X206871414Y-97832479D01*
X206888742Y-97849806D01*
X206909106Y-97863413D01*
X207115736Y-97973860D01*
X207313687Y-98136313D01*
X207476140Y-98334264D01*
X207596855Y-98560104D01*
X207671190Y-98805155D01*
X207696290Y-99060000D01*
X207671190Y-99314845D01*
X207596855Y-99559896D01*
X207476140Y-99785736D01*
X207313687Y-99983687D01*
X207115736Y-100146140D01*
X206889896Y-100266855D01*
X206644845Y-100341190D01*
X206453864Y-100360000D01*
X205026136Y-100360000D01*
X204835155Y-100341190D01*
X204590104Y-100266855D01*
X204364264Y-100146140D01*
X204166313Y-99983687D01*
X204003860Y-99785736D01*
X203883145Y-99559896D01*
X203808810Y-99314845D01*
X203783710Y-99060000D01*
X203808810Y-98805155D01*
X203883145Y-98560104D01*
X204003860Y-98334264D01*
X204166313Y-98136313D01*
X204364264Y-97973860D01*
X204570894Y-97863413D01*
X204591259Y-97849805D01*
X204608586Y-97832478D01*
X204622200Y-97812103D01*
X204631578Y-97789464D01*
X204636358Y-97765431D01*
X204636358Y-97740927D01*
X204631577Y-97716893D01*
X204622200Y-97694254D01*
X204608586Y-97673880D01*
X204591260Y-97656553D01*
X204564997Y-97634999D01*
X204446283Y-97490347D01*
X204358068Y-97325309D01*
X204308529Y-97161998D01*
X204303746Y-97146232D01*
X204285404Y-96960000D01*
X204303746Y-96773768D01*
X204358068Y-96594692D01*
X204358068Y-96594691D01*
X204446283Y-96429653D01*
X204564999Y-96284999D01*
X204709653Y-96166283D01*
X204879400Y-96075551D01*
X204892223Y-96070240D01*
X204912597Y-96056626D01*
X204929924Y-96039298D01*
X204943538Y-96018924D01*
X204952915Y-95996284D01*
X204957695Y-95972251D01*
X204957695Y-95947747D01*
X204952914Y-95923713D01*
X204943537Y-95901074D01*
X204929923Y-95880700D01*
X204912595Y-95863373D01*
X204892221Y-95849759D01*
X204879399Y-95844448D01*
X204709653Y-95753717D01*
X204564999Y-95635001D01*
X204446283Y-95490347D01*
X204358068Y-95325309D01*
X204306262Y-95154526D01*
X204303746Y-95146232D01*
X204285404Y-94960000D01*
X204303746Y-94773768D01*
X204358068Y-94594692D01*
X204358068Y-94594691D01*
X204446283Y-94429653D01*
X204564999Y-94284999D01*
X204709653Y-94166283D01*
X204749022Y-94145240D01*
X204769396Y-94131626D01*
X204786724Y-94114299D01*
X204800337Y-94093924D01*
X204809715Y-94071285D01*
X204814495Y-94047252D01*
X204814495Y-94022748D01*
X204809714Y-93998714D01*
X204800337Y-93976075D01*
X204786723Y-93955701D01*
X204769396Y-93938373D01*
X204749021Y-93924760D01*
X204726382Y-93915382D01*
X204690097Y-93910000D01*
X204290000Y-93910000D01*
X204290000Y-91944313D01*
X204287598Y-91919927D01*
X204280485Y-91896478D01*
X204268934Y-91874867D01*
X204253388Y-91855925D01*
X204244311Y-91847697D01*
X204166313Y-91783687D01*
X204003860Y-91585736D01*
X203883145Y-91359896D01*
X203808810Y-91114845D01*
X203783710Y-90860000D01*
X203808810Y-90605155D01*
X203883145Y-90360104D01*
X204003860Y-90134264D01*
X204166313Y-89936313D01*
X204364264Y-89773860D01*
X204590104Y-89653145D01*
X204835155Y-89578810D01*
X205026136Y-89560000D01*
X206453864Y-89560000D01*
X206644845Y-89578810D01*
X206644845Y-89578810D01*
G37*
G36*
X195754419Y-95317026D02*
X195788777Y-95320410D01*
X195875198Y-95346626D01*
X195989529Y-95381308D01*
X196174545Y-95480200D01*
X196336712Y-95613288D01*
X196469800Y-95775455D01*
X196568692Y-95960470D01*
X196572266Y-95972253D01*
X196629590Y-96161222D01*
X196629590Y-96161224D01*
X196645000Y-96317682D01*
X196645000Y-96722317D01*
X196639932Y-96773768D01*
X196629590Y-96878777D01*
X196604951Y-96960000D01*
X196568692Y-97079529D01*
X196469800Y-97264545D01*
X196336712Y-97426712D01*
X196174545Y-97559800D01*
X195989530Y-97658692D01*
X195922612Y-97678991D01*
X195788778Y-97719590D01*
X195754420Y-97722974D01*
X195580000Y-97740153D01*
X195405581Y-97722974D01*
X195371223Y-97719590D01*
X195237389Y-97678991D01*
X195170471Y-97658692D01*
X194985456Y-97559800D01*
X194823289Y-97426712D01*
X194690200Y-97264545D01*
X194591308Y-97079530D01*
X194554769Y-96959078D01*
X194530410Y-96878778D01*
X194520068Y-96773769D01*
X194515000Y-96722318D01*
X194515000Y-96317683D01*
X194530410Y-96161225D01*
X194530410Y-96161223D01*
X194573576Y-96018926D01*
X194591308Y-95960471D01*
X194690200Y-95775455D01*
X194823288Y-95613288D01*
X194985455Y-95480200D01*
X195170470Y-95381308D01*
X195284801Y-95346626D01*
X195371222Y-95320410D01*
X195405580Y-95317026D01*
X195580000Y-95299847D01*
X195754419Y-95317026D01*
X195754419Y-95317026D01*
G37*
G36*
X198266318Y-93624411D02*
X198338767Y-93638822D01*
X198395303Y-93662240D01*
X198475257Y-93695358D01*
X198598100Y-93777439D01*
X198702561Y-93881900D01*
X198784642Y-94004743D01*
X198807276Y-94059386D01*
X198841178Y-94141233D01*
X198870000Y-94286131D01*
X198870000Y-94433869D01*
X198841178Y-94578767D01*
X198823271Y-94621997D01*
X198784642Y-94715257D01*
X198702561Y-94838100D01*
X198598100Y-94942561D01*
X198475257Y-95024642D01*
X198419826Y-95047602D01*
X198338767Y-95081178D01*
X198338766Y-95081178D01*
X198332091Y-95083943D01*
X198322414Y-95086878D01*
X198300802Y-95098429D01*
X198281860Y-95113974D01*
X198266314Y-95132915D01*
X198254762Y-95154526D01*
X198247648Y-95177974D01*
X198245245Y-95202361D01*
X198247646Y-95226747D01*
X198254758Y-95250196D01*
X198266309Y-95271808D01*
X198281854Y-95290750D01*
X198300795Y-95306296D01*
X198322406Y-95317848D01*
X198333959Y-95321982D01*
X198415198Y-95346626D01*
X198529529Y-95381308D01*
X198714545Y-95480200D01*
X198876712Y-95613288D01*
X199009800Y-95775455D01*
X199108692Y-95960470D01*
X199112266Y-95972253D01*
X199169590Y-96161222D01*
X199169590Y-96161224D01*
X199185000Y-96317682D01*
X199185000Y-96722317D01*
X199179932Y-96773768D01*
X199169590Y-96878777D01*
X199144951Y-96960000D01*
X199108692Y-97079529D01*
X199009800Y-97264545D01*
X198876712Y-97426712D01*
X198714545Y-97559800D01*
X198529530Y-97658692D01*
X198462612Y-97678991D01*
X198328778Y-97719590D01*
X198294420Y-97722974D01*
X198120000Y-97740153D01*
X197945581Y-97722974D01*
X197911223Y-97719590D01*
X197777389Y-97678991D01*
X197710471Y-97658692D01*
X197525456Y-97559800D01*
X197363289Y-97426712D01*
X197230200Y-97264545D01*
X197131308Y-97079530D01*
X197094769Y-96959078D01*
X197070410Y-96878778D01*
X197060068Y-96773769D01*
X197055000Y-96722318D01*
X197055000Y-96317683D01*
X197070410Y-96161225D01*
X197070410Y-96161223D01*
X197113576Y-96018926D01*
X197131308Y-95960471D01*
X197230200Y-95775455D01*
X197363288Y-95613288D01*
X197525455Y-95480200D01*
X197710470Y-95381308D01*
X197824801Y-95346626D01*
X197906041Y-95321982D01*
X197928680Y-95312605D01*
X197949054Y-95298991D01*
X197966382Y-95281664D01*
X197979995Y-95261289D01*
X197989373Y-95238650D01*
X197994153Y-95214617D01*
X197994153Y-95190112D01*
X197989372Y-95166079D01*
X197979995Y-95143440D01*
X197966381Y-95123066D01*
X197949054Y-95105738D01*
X197928679Y-95092125D01*
X197906040Y-95082747D01*
X197903464Y-95082102D01*
X197764743Y-95024642D01*
X197641900Y-94942561D01*
X197537439Y-94838100D01*
X197455358Y-94715257D01*
X197416729Y-94621997D01*
X197398822Y-94578767D01*
X197370000Y-94433869D01*
X197370000Y-94286131D01*
X197398822Y-94141233D01*
X197432724Y-94059386D01*
X197455358Y-94004743D01*
X197537439Y-93881900D01*
X197641900Y-93777439D01*
X197764743Y-93695358D01*
X197844697Y-93662240D01*
X197901233Y-93638822D01*
X197973682Y-93624411D01*
X198046130Y-93610000D01*
X198193870Y-93610000D01*
X198266318Y-93624411D01*
X198266318Y-93624411D01*
G37*
G36*
X200834419Y-95317026D02*
X200868777Y-95320410D01*
X200955198Y-95346626D01*
X201069529Y-95381308D01*
X201254545Y-95480200D01*
X201416712Y-95613288D01*
X201549800Y-95775455D01*
X201648692Y-95960470D01*
X201652266Y-95972253D01*
X201709590Y-96161222D01*
X201709590Y-96161224D01*
X201725000Y-96317682D01*
X201725000Y-96722317D01*
X201719932Y-96773768D01*
X201709590Y-96878777D01*
X201684951Y-96960000D01*
X201648692Y-97079529D01*
X201549800Y-97264545D01*
X201416712Y-97426712D01*
X201254545Y-97559800D01*
X201069530Y-97658692D01*
X201002612Y-97678991D01*
X200868778Y-97719590D01*
X200834420Y-97722974D01*
X200660000Y-97740153D01*
X200485581Y-97722974D01*
X200451223Y-97719590D01*
X200317389Y-97678991D01*
X200250471Y-97658692D01*
X200065456Y-97559800D01*
X199903289Y-97426712D01*
X199770200Y-97264545D01*
X199671308Y-97079530D01*
X199634769Y-96959078D01*
X199610410Y-96878778D01*
X199600068Y-96773769D01*
X199595000Y-96722318D01*
X199595000Y-96317683D01*
X199610410Y-96161225D01*
X199610410Y-96161223D01*
X199653576Y-96018926D01*
X199671308Y-95960471D01*
X199770200Y-95775455D01*
X199903288Y-95613288D01*
X200065455Y-95480200D01*
X200250470Y-95381308D01*
X200364801Y-95346626D01*
X200451222Y-95320410D01*
X200485580Y-95317026D01*
X200660000Y-95299847D01*
X200834419Y-95317026D01*
X200834419Y-95317026D01*
G37*
G36*
X194105000Y-97735000D02*
X191975000Y-97735000D01*
X191975000Y-95305000D01*
X194105000Y-95305000D01*
X194105000Y-97735000D01*
X194105000Y-97735000D01*
G37*
G36*
X190110836Y-85810193D02*
X190242787Y-85850220D01*
X190308763Y-85870233D01*
X190491172Y-85967733D01*
X190651054Y-86098946D01*
X190782267Y-86258829D01*
X190845805Y-86377700D01*
X190879767Y-86441238D01*
X190879767Y-86441239D01*
X190939807Y-86639165D01*
X190955000Y-86793423D01*
X190955000Y-87196578D01*
X190939807Y-87350836D01*
X190899780Y-87482787D01*
X190879767Y-87548763D01*
X190782267Y-87731172D01*
X190666472Y-87872267D01*
X190651054Y-87891054D01*
X190491171Y-88022267D01*
X190372300Y-88085805D01*
X190308762Y-88119767D01*
X190242786Y-88139780D01*
X190110835Y-88179807D01*
X189905000Y-88200080D01*
X189699164Y-88179807D01*
X189567213Y-88139780D01*
X189501237Y-88119767D01*
X189318828Y-88022267D01*
X189158946Y-87891054D01*
X189143528Y-87872267D01*
X189027733Y-87731171D01*
X188930234Y-87548763D01*
X188930233Y-87548762D01*
X188884732Y-87398763D01*
X188870193Y-87350835D01*
X188855000Y-87196577D01*
X188855000Y-86793422D01*
X188870193Y-86639164D01*
X188910220Y-86507213D01*
X188930233Y-86441237D01*
X189027734Y-86258828D01*
X189158947Y-86098946D01*
X189318829Y-85967733D01*
X189501238Y-85870233D01*
X189567214Y-85850220D01*
X189699165Y-85810193D01*
X189905000Y-85789920D01*
X190110836Y-85810193D01*
X190110836Y-85810193D01*
G37*
G36*
X193455000Y-88195000D02*
X191355000Y-88195000D01*
X191355000Y-85795000D01*
X193455000Y-85795000D01*
X193455000Y-88195000D01*
X193455000Y-88195000D01*
G37*
G36*
X205266000Y-88045000D02*
X203166000Y-88045000D01*
X203166000Y-85945000D01*
X205266000Y-85945000D01*
X205266000Y-88045000D01*
X205266000Y-88045000D01*
G37*
G36*
X201804707Y-85952596D02*
X201881836Y-85960193D01*
X202013787Y-86000220D01*
X202079763Y-86020233D01*
X202262172Y-86117733D01*
X202422054Y-86248946D01*
X202553267Y-86408828D01*
X202650767Y-86591237D01*
X202665306Y-86639166D01*
X202710807Y-86789164D01*
X202731080Y-86995000D01*
X202710807Y-87200836D01*
X202670780Y-87332787D01*
X202650767Y-87398763D01*
X202553267Y-87581172D01*
X202422054Y-87741054D01*
X202262172Y-87872267D01*
X202079763Y-87969767D01*
X202013787Y-87989780D01*
X201881836Y-88029807D01*
X201804707Y-88037404D01*
X201727580Y-88045000D01*
X201624420Y-88045000D01*
X201547293Y-88037403D01*
X201470164Y-88029807D01*
X201338213Y-87989780D01*
X201272237Y-87969767D01*
X201089828Y-87872267D01*
X200929946Y-87741054D01*
X200798733Y-87581172D01*
X200701233Y-87398763D01*
X200681220Y-87332787D01*
X200641193Y-87200836D01*
X200620920Y-86995000D01*
X200641193Y-86789164D01*
X200686694Y-86639166D01*
X200701233Y-86591237D01*
X200798733Y-86408828D01*
X200929946Y-86248946D01*
X201089828Y-86117733D01*
X201272237Y-86020233D01*
X201338213Y-86000220D01*
X201470164Y-85960193D01*
X201547293Y-85952596D01*
X201624420Y-85945000D01*
X201727580Y-85945000D01*
X201804707Y-85952596D01*
X201804707Y-85952596D01*
G37*
M02*
